<svg xmlns="http://www.w3.org/2000/svg" width="30.972" height="28" viewBox="0 0 30.972 28">
  <g id="Group_41033" data-name="Group 41033" transform="translate(1607.431 -299.411)">
    <path id="Path_35324" data-name="Path 35324" d="M-1583.793,299.411l-7.14,9.546,3.017,8.448,11.062,2.011V318.41Z" transform="translate(-4.054)" fill="#c2d6fc"/>
    <g id="menu-Social_Media_Marketing" data-name="menu-Social Media Marketing" transform="translate(-1607.431 299.411)">
      <path id="Path_5017" data-name="Path 5017" d="M134.347,374.888a1.414,1.414,0,0,1-.575-.127,1.4,1.4,0,0,1-.736-.781l-2.625-6.921a1.4,1.4,0,0,1,.811-1.808l9.1-3.454,3.622,9.54-9.1,3.454A1.4,1.4,0,0,1,134.347,374.888Zm5.385-11.758-8.14,3.091a.381.381,0,0,0-.22.482L134,373.625a.381.381,0,0,0,.482.22l8.14-3.091Z" transform="translate(-127.903 -352.94)" fill="#0253e9"/>
      <path id="Path_5018" data-name="Path 5018" d="M62.793,515.432a1.836,1.836,0,0,1-1.715-1.184l-1.249-3.3a1.837,1.837,0,0,1,1.065-2.365l2.331-.889,2.553,6.737-2.338.889A1.79,1.79,0,0,1,62.793,515.432Zm-.176-6.4-1.37.52a.809.809,0,0,0-.468,1.041l1.249,3.3a.809.809,0,0,0,1.041.468l1.37-.52Z" transform="translate(-59.71 -493.847)" fill="#0253e9"/>
      <path id="Path_5019" data-name="Path 5019" d="M411.975,123.668a.683.683,0,0,1-.143-.014h0l-11.463-2.01-3.468-9.126,7.244-9.109a.843.843,0,0,1,1.448.226l7.168,18.893a.846.846,0,0,1-.137.835.835.835,0,0,1-.647.3Zm-10.858-2.934,10.571,1.852-6.939-18.281-6.679,8.4Z" transform="translate(-385.36 -103.091)" fill="#0253e9"/>
      <path id="Path_5020" data-name="Path 5020" d="M269.025,653.962a.689.689,0,0,1-.616-.381L264.9,646.69l5.775-2.191.684,1.8a2.122,2.122,0,0,1-.267,2l-.349.482,1.64,3.125a.687.687,0,0,1,.034.569.7.7,0,0,1-.4.4l-2.742,1.041a.763.763,0,0,1-.248.042Zm-2.69-6.719,2.851,5.607,2.112-.8-1.763-3.355.726-1a1.079,1.079,0,0,0,.137-1.031l-.319-.839Z" transform="translate(-257.878 -625.962)" fill="#0253e9"/>
      <rect id="Rectangle_2719" data-name="Rectangle 2719" width="1.027" height="3.249" transform="translate(29.744 7.197) rotate(69.218)" fill="#0253e9"/>
      <rect id="Rectangle_2720" data-name="Rectangle 2720" width="1.027" height="3.252" transform="matrix(0.722, 0.692, -0.692, 0.722, 25.91, 1.691)" fill="#0253e9"/>
      <rect id="Rectangle_2721" data-name="Rectangle 2721" width="3.249" height="1.027" transform="matrix(0.997, 0.081, -0.081, 0.997, 27.734, 13.537)" fill="#0253e9"/>
      <rect id="Rectangle_2722" data-name="Rectangle 2722" width="1.027" height="5.378" transform="translate(10.7 12.351) rotate(69.218)" fill="#0253e9"/>
    </g>
  </g>
</svg>
