<svg xmlns="http://www.w3.org/2000/svg" width="33.44" height="24.331" viewBox="0 0 33.44 24.331">
  <g id="Group_41032" data-name="Group 41032" transform="translate(1612.785 -59.74)">
    <rect id="Rectangle_17877" data-name="Rectangle 17877" width="22.607" height="14.21" transform="translate(-1607.111 60.554)" fill="#f9eecf"/>
    <g id="Blogger" transform="translate(-1612.785 59.74)">
      <g id="Technical_SEO" data-name="Technical SEO" transform="translate(0)">
        <g id="Group_2206" data-name="Group 2206" transform="translate(0)">
          <path id="Path_5452" data-name="Path 5452" d="M12.048,970.362a.788.788,0,0,0-.69.76v14.222l-5.21,8.173a.8.8,0,0,0,.642,1.176H38.758a.8.8,0,0,0,.642-1.176l-5.209-8.174V971.122a.791.791,0,0,0-.761-.76H12.051Zm.833,1.521H32.669v12.927H12.88Zm5.245,1.889a.788.788,0,0,0-.678.775v6.844H16.234a.762.762,0,1,0,.071,1.52h12.94a.76.76,0,0,0,0-1.521H28.1v-3.8a.762.762,0,1,0-1.522,0v3.8H23.536v-5.323a.762.762,0,1,0-1.522,0v5.323H18.969v-6.847a.794.794,0,0,0-.844-.775Zm-5.59,12.559H33.014l4.364,6.843H8.171Zm7.5,4.182a.762.762,0,1,0,.071,1.52h5.328a.76.76,0,1,0,0-1.52h-5.4Z" transform="translate(-6.055 -970.362)" fill="#ffba00"/>
        </g>
      </g>
    </g>
  </g>
</svg>
