<svg xmlns="http://www.w3.org/2000/svg" width="27.391" height="27.385" viewBox="0 0 27.391 27.385">
  <g id="Group_41035" data-name="Group 41035" transform="translate(1606.857 -209)">
    <circle id="Ellipse_1603" data-name="Ellipse 1603" cx="10.7" cy="10.7" r="10.7" transform="translate(-1605.316 210.706)" fill="#e0fcf8"/>
    <path id="Path_35325" data-name="Path 35325" d="M116.419,33.221a11.206,11.206,0,0,1,.706,2.655c-.012-.079-.021-.156-.032-.235a11.208,11.208,0,0,1,0,2.943c.012-.079.021-.156.032-.235a11.115,11.115,0,0,1-.77,2.817l.088-.212a10.846,10.846,0,0,1-.767,1.479c-.147.235-.3.467-.467.694-.044.062-.088.126-.135.182,0-.006.141-.179.053-.071-.018.024-.038.047-.056.071-.094.121-.194.238-.294.353a10.968,10.968,0,0,1-1.173,1.164c-.1.082-.2.165-.3.244-.026.024-.056.044-.082.065-.088.071.188-.144.062-.047-.056.041-.112.085-.171.126-.215.156-.435.306-.662.447a10.914,10.914,0,0,1-1.541.8l.212-.088a11.12,11.12,0,0,1-2.778.756l.235-.032a11.186,11.186,0,0,1-2.94,0l.235.032a11.084,11.084,0,0,1-2.778-.756l.212.088a10.982,10.982,0,0,1-1.435-.732c-.238-.144-.473-.3-.7-.462-.047-.032-.091-.065-.135-.1s-.265-.206-.024-.015c-.112-.088-.223-.176-.332-.268a11.1,11.1,0,0,1-1.2-1.179c-.085-.1-.168-.194-.25-.294l-.132-.168c-.085-.106.059.076.059.076-.032-.038-.059-.079-.088-.118-.165-.221-.318-.444-.465-.676a10.894,10.894,0,0,1-.841-1.611l.088.212a11.12,11.12,0,0,1-.756-2.778c.012.079.021.156.032.235a11.186,11.186,0,0,1,0-2.94c-.012.079-.021.156-.032.235a11.084,11.084,0,0,1,.756-2.778l-.088.212a11.057,11.057,0,0,1,.72-1.417c.141-.232.291-.462.45-.682.074-.1.15-.206.226-.306-.179.241-.038.05.006-.006s.1-.121.15-.182a11.33,11.33,0,0,1,1.155-1.191c.106-.094.212-.182.318-.273l.153-.123c.024-.018.047-.035.068-.053-.221.179-.074.059-.023.018.221-.165.444-.32.676-.467a11.028,11.028,0,0,1,1.641-.861l-.212.088a11.018,11.018,0,0,1,2.781-.756l-.235.032a11.23,11.23,0,0,1,2.946,0l-.235-.032a11.147,11.147,0,0,1,2.781.759l-.212-.088a11.055,11.055,0,0,1,2.017,1.114.881.881,0,1,0,.888-1.523,11.841,11.841,0,1,0,.388,19.232A12.451,12.451,0,0,0,116.745,44a11.635,11.635,0,0,0,1.576-3.064,11.91,11.91,0,0,0,.282-6.689,11.151,11.151,0,0,0-.485-1.5.953.953,0,0,0-.406-.526.885.885,0,0,0-.679-.088.883.883,0,0,0-.614,1.088Z" transform="translate(-1702.118 183.733)" fill="#41b6a7"/>
    <path id="Path_35326" data-name="Path 35326" d="M451.979,380.712l-6.906-6.906a.882.882,0,0,0-1.247,1.247l6.906,6.906a.882.882,0,0,0,1.247-1.247Z" transform="translate(-2031.704 -145.827)" fill="#41b6a7"/>
    <path id="Path_35327" data-name="Path 35327" d="M212.364,78.59l1.993-1.993,3.172-3.172.723-.723h-1.247l1.376,1.376,2.2,2.2.506.506a.893.893,0,0,0,1.247,0l.938-.938,2.255-2.255,2.728-2.728,2.355-2.355c.379-.379.767-.753,1.141-1.141l.018-.018A.882.882,0,0,0,230.52,66.1l-.938.938-2.255,2.255L224.6,72.019l-2.355,2.355c-.379.379-.773.75-1.141,1.141l-.018.018h1.247l-1.376-1.376-2.2-2.2-.506-.506a.893.893,0,0,0-1.247,0l-1.993,1.993-3.172,3.172-.723.723a.882.882,0,0,0,1.247,1.247Z" transform="translate(-1811.506 145.337)" fill="#41b6a7"/>
    <path id="Path_35328" data-name="Path 35328" d="M490.764,67.225h4.41l-.882-.882v4.41a.882.882,0,1,0,1.764,0v-4.41a.894.894,0,0,0-.882-.882h-4.41a.882.882,0,0,0,0,1.764Z" transform="translate(-2075.522 145.7)" fill="#41b6a7"/>
  </g>
</svg>
