<svg xmlns="http://www.w3.org/2000/svg" width="68.025" height="41.723" viewBox="0 0 68.025 41.723">
  <g id="Group_9338" data-name="Group 9338" transform="translate(-191.291 -6095.42)">
    <path id="Path_15704" data-name="Path 15704" d="M137.293,128.789a1.522,1.522,0,0,0-.362.1l-32.45,12.362a1.545,1.545,0,0,0,0,2.9l11.372,4.322v13.545a5.251,5.251,0,0,0,2.125,3.96,15.019,15.019,0,0,0,4.78,2.487,47.226,47.226,0,0,0,14.728,2.052,47.226,47.226,0,0,0,14.728-2.052,15.022,15.022,0,0,0,4.78-2.487,5.251,5.251,0,0,0,2.125-3.96v-7.726a1.546,1.546,0,1,0-3.091,0v7.726c0,.434-.223.936-1.014,1.593a12.386,12.386,0,0,1-3.791,1.932,44.81,44.81,0,0,1-13.738,1.884,44.812,44.812,0,0,1-13.738-1.884,12.387,12.387,0,0,1-3.791-1.932c-.791-.658-1.014-1.159-1.014-1.593V149.65l17.988,6.857a1.541,1.541,0,0,0,1.11,0l32.45-12.362a1.545,1.545,0,0,0,0-2.9l-32.45-12.362a1.534,1.534,0,0,0-.6-.1c-.048,0-.1,0-.144,0Zm.193,3.211,28.1,10.7-28.1,10.7-28.1-10.7Z" transform="translate(87.816 5966.633)" fill="#005fff"/>
  </g>
</svg>
