<?xml version="1.0" encoding="UTF-8"?><svg id="a" xmlns="http://www.w3.org/2000/svg" xmlns:xlink="http://www.w3.org/1999/xlink" viewBox="0 0 219.63 244.22"><defs><style>.e{fill:url(#c);}.f{fill:url(#b);}.g{fill:url(#d);}</style><linearGradient id="b" x1="0" y1="118.55" x2="146.01" y2="118.55" gradientTransform="matrix(1, 0, 0, 1, 0, 0)" gradientUnits="userSpaceOnUse"><stop offset="0" stop-color="#0bbead"/><stop offset="1" stop-color="#1f4fb1"/></linearGradient><linearGradient id="c" x1="84.07" y1="159.76" x2="219.63" y2="159.76" xlink:href="#b"/><linearGradient id="d" x1="45.62" y1="117.2" x2="200.84" y2="117.2" xlink:href="#b"/></defs><path class="f" d="M92.55,141.39c-3.68-2.21-6.16-3.5-8.41-5.11-2.32-1.66-3.79-1.26-5.28,1.1-9.05,14.35-18.17,28.66-27.27,42.98-6.66,10.48-13.33,20.96-20.05,31.53C2.51,183.88-14.28,129.52,16.17,78.79,45.19,30.43,104.27,14.97,146.01,31.75c-3.2,4.84-6.53,9.59-9.53,14.53-1.49,2.46-3.13,2.86-5.8,2.25-21.31-4.88-41.74-2.18-61.06,7.92-22.31,11.66-37.06,29.61-44.61,53.74-5.85,18.71-4.89,37.08,.96,55.46,.7,2.21,1.8,4.3,2.79,6.41,.32,.69,.9,1.25,1.76,2.41,5.39-8.34,10.53-16.24,15.62-24.17,4.94-7.7,9.7-15.52,14.78-23.12,1.96-2.94,2.45-4.84-1.3-6.55-2.07-.94-3.81-2.59-7-4.82,13.7-6.82,26.56-13.23,39.92-19.88v45.47Z"/><path class="e" d="M160.65,94.58c13.42-6.65,25.81-12.79,38.92-19.28v43.62c-2.73-1.66-4.91-2.67-6.72-4.14-3.39-2.75-5.15-1.02-7,1.91-9.48,15.07-19.06,30.08-28.6,45.11-12.21,19.25-24.43,38.49-36.63,57.75-.67,1.05-1.22,2.18-1.83,3.27l.75,1.54c8.06-2.11,16.4-3.49,24.12-6.48,21.4-8.27,37.13-23.08,47.15-43.74,5.29-10.9,7.78-22.56,8.7-34.63,.22-2.83,1.28-5.8,2.69-8.29,3.17-5.64,6.78-11.04,10.25-16.52,.76-1.2,1.65-2.32,2.64-3.71,9.98,21.89,4.28,68.14-24.32,99.04-31.31,33.83-81.74,40.41-106.7,29.16,6.59-10.4,13.13-20.76,19.7-31.11,21.67-34.13,43.29-68.29,65.09-102.34,2.23-3.49,1.64-5.31-1.72-7.05-1.86-.97-3.57-2.23-6.49-4.08Z"/><path class="g" d="M62.07,234.4c-5.38-3.49-10.78-7-16.44-10.67,6.94-10.82,13.73-21.39,20.51-31.98,23.14-36.15,46.27-72.3,69.4-108.45,11.12-17.37,22.05-34.87,33.5-52.02,2.66-3.99,1.83-5.72-1.65-7.68-1.85-1.04-3.62-2.21-6.49-3.98,13.86-6.8,26.83-13.17,39.95-19.61V45.01c-3.52-2.23-5.99-3.68-8.34-5.31-2.28-1.58-3.54-1.23-5.13,1.26-22.25,34.93-44.54,69.83-67,104.63-19.03,29.48-38.28,58.82-57.45,88.22-.16,.25-.53,.37-.86,.59Z"/></svg>