<svg xmlns="http://www.w3.org/2000/svg" xmlns:xlink="http://www.w3.org/1999/xlink" width="71.608" height="71.608" viewBox="0 0 71.608 71.608">
  <defs>
    <linearGradient id="linear-gradient" x1="0.709" y1="0.348" x2="0.245" y2="0.727" gradientUnits="objectBoundingBox">
      <stop offset="0" stop-color="#f90"/>
      <stop offset="1" stop-color="#00ccfe"/>
    </linearGradient>
  </defs>
  <path id="noun-growth-1081240" d="M138.03,57.285H87.546l15.4-20.05,17.9,12.531a3.824,3.824,0,0,0,5.729-2.507l3.58-33.656,5.012,6.8a3.851,3.851,0,0,0,5.012.716,3.851,3.851,0,0,0,.716-5.012L130.153,1.789A2.644,2.644,0,0,0,128.005,0,5.174,5.174,0,0,0,125.5.715L111.177,11.456a3.851,3.851,0,0,0-.716,5.012,3.851,3.851,0,0,0,5.012.716l7.877-5.729L120.128,40.1,104.375,29.358a3.786,3.786,0,0,0-5.012.716L84.325,49.766V3.579a3.58,3.58,0,1,0-7.161,0V57.285h-3.58a3.58,3.58,0,0,0,0,7.161h3.58v3.58a3.58,3.58,0,1,0,7.161,0v-3.58H138.03a3.58,3.58,0,1,0,0-7.161Z" transform="translate(-70.003 0.002)" fill="url(#linear-gradient)"/>
</svg>
