<svg xmlns="http://www.w3.org/2000/svg" width="80.936" height="58.895" viewBox="0 0 80.936 58.895">
  <g id="internet" transform="translate(-250.944 -548.64)">
    <g id="Group_2207" data-name="Group 2207" transform="translate(250.944 548.64)">
      <g id="Group_2206" data-name="Group 2206" transform="translate(0)">
        <path id="Path_5452" data-name="Path 5452" d="M20.562,970.362a1.907,1.907,0,0,0-1.669,1.841v34.422L6.285,1026.409a1.941,1.941,0,0,0,1.554,2.847H85.211a1.942,1.942,0,0,0,1.554-2.847l-12.606-19.785V972.2a1.914,1.914,0,0,0-1.842-1.841H20.562Zm2.016,3.681h47.9v31.288h-47.9Zm12.694,4.573a1.907,1.907,0,0,0-1.64,1.872v16.563H30.694a1.843,1.843,0,1,0,.173,3.681H62.183a1.841,1.841,0,1,0,0-3.681H59.421v-9.207a1.842,1.842,0,0,0-3.684,0v9.2h-7.37V984.162a1.842,1.842,0,0,0-3.684,0v12.883H37.315V980.483a1.923,1.923,0,0,0-2.044-1.872Zm-13.528,30.389H71.309l10.564,16.563H11.179Zm18.163,10.122a1.843,1.843,0,1,0,.173,3.681h12.9a1.841,1.841,0,1,0,0-3.681H39.9Z" transform="translate(-6.057 -970.362)" fill="#2279f5"/>
      </g>
    </g>
  </g>
</svg>
