<?xml version="1.0" encoding="utf-8"?>
<!-- Generator: Adobe Illustrator 27.6.1, SVG Export Plug-In . SVG Version: 6.00 Build 0)  -->
<svg version="1.1" id="Layer_1" xmlns="http://www.w3.org/2000/svg" xmlns:xlink="http://www.w3.org/1999/xlink" x="0px" y="0px"
	 viewBox="0 0 30.7 30.7" style="enable-background:new 0 0 30.7 30.7;" xml:space="preserve">
<style type="text/css">
	.st0{fill:#C1C2CC;stroke:#C1C2CC;stroke-width:0.2;}
</style>
<g id="Group_40123" transform="translate(0.036 0.1)">
	<g id="Group_3803" transform="translate(0 0)">
		<g id="Group_3798" transform="translate(0 5.214)">
			<path id="Path_6843" class="st0" d="M19.1,25.3c-3.6,0-8-2.2-12-6c-4-3.8-6.6-8.3-7-12.2C-0.2,4.6,0,4.2,1.6,2.3
				c0.9-1,2-2.3,3.3-2.3c0.6,0,1.2,0.3,1.7,0.7c0,0,0,0,0,0C7.9,2,9.1,3.3,10.3,4.6c0,0,0,0,0.1,0.1c0.9,1.6-0.7,3-1.8,4
				C8.3,8.8,8.1,9.1,7.9,9.3C7.8,9.3,7.8,9.6,8,10.1c1,1.8,2.2,3.3,3.7,4.7c1.8,1.7,3.4,2.7,4.1,2.7c0.1,0,0.1,0,0.2,0
				c0.3-0.3,0.6-0.6,0.9-0.9c0.3-0.4,0.7-0.7,1-1c0.5-0.4,1.1-0.7,1.7-0.7c1.7,0,3.1,1.7,4.4,3.3c0.3,0.4,0.7,0.8,1,1.1
				c0.4,0.4,0.5,1.1,0.3,1.6c-0.8,1.9-2.2,3.4-4.1,4.2C20.5,25.2,19.8,25.3,19.1,25.3z M4.9,0.7c-0.9,0-1.8,0.9-2.7,2
				C0.7,4.5,0.6,4.7,0.8,7c0.4,3.7,2.9,8.1,6.8,11.7c3.8,3.6,8.1,5.8,11.5,5.8c0.6,0,1.3-0.1,1.9-0.3c1.6-0.8,2.8-2.1,3.6-3.7
				c0.1-0.3,0.1-0.7-0.1-0.9c-0.3-0.3-0.6-0.7-1-1.1c-1.2-1.4-2.5-3-3.8-3c-0.5,0-0.9,0.2-1.2,0.5c-0.3,0.3-0.7,0.6-1,1
				c-0.3,0.3-0.6,0.7-0.9,0.9c-0.2,0.2-0.4,0.2-0.7,0.2c-1.4,0-3.7-2.1-4.6-3c-1.6-1.4-2.9-3.1-3.9-4.9C7,9.6,7,9.1,7.3,8.7
				C7.6,8.5,7.8,8.3,8.1,8C9.3,6.9,10.2,6,9.7,5C8.5,3.8,7.3,2.5,6.1,1.2C5.8,0.9,5.4,0.8,4.9,0.7z"/>
		</g>
		<g id="Group_3799" transform="translate(13.716)">
			<path id="Path_6844" class="st0" d="M16.5,16.9c-0.2,0-0.4-0.2-0.4-0.4c0-8.7-7.1-15.8-15.8-15.8C0.2,0.7,0,0.6,0,0.4
				C0,0.2,0.2,0,0.4,0c9.1,0,16.5,7.4,16.5,16.5C16.9,16.7,16.7,16.9,16.5,16.9z"/>
		</g>
		<g id="Group_3800" transform="translate(13.722 3.42)">
			<path id="Path_6845" class="st0" d="M13.1,13.5c-0.2,0-0.4-0.2-0.4-0.4c0-6.8-5.5-12.3-12.3-12.3C0.2,0.7,0,0.6,0,0.4
				S0.2,0,0.4,0l0,0c7.2,0,13.1,5.9,13.1,13.1C13.5,13.3,13.3,13.5,13.1,13.5z"/>
		</g>
		<g id="Group_3801" transform="translate(13.722 6.84)">
			<path id="Path_6846" class="st0" d="M9.7,10c-0.2,0-0.4-0.2-0.4-0.4c0-4.9-4-8.9-8.9-8.9C0.2,0.7,0,0.6,0,0.4S0.2,0,0.4,0
				C5.7,0,10,4.3,10,9.7C10,9.9,9.9,10,9.7,10z"/>
		</g>
		<g id="Group_3802" transform="translate(13.716 10.254)">
			<path id="Path_6847" class="st0" d="M6.2,6.6C6,6.6,5.9,6.5,5.9,6.3c0-3-2.5-5.5-5.5-5.5C0.2,0.7,0,0.6,0,0.4C0,0.2,0.2,0,0.4,0
				c3.5,0,6.2,2.8,6.2,6.3C6.6,6.5,6.5,6.6,6.2,6.6z"/>
		</g>
	</g>
</g>
</svg>
