<?xml version="1.0" encoding="utf-8"?>
<!-- Generator: Adobe Illustrator 27.6.1, SVG Export Plug-In . SVG Version: 6.00 Build 0)  -->
<svg version="1.1" id="Group_40121" xmlns="http://www.w3.org/2000/svg" xmlns:xlink="http://www.w3.org/1999/xlink" x="0px"
	 y="0px" viewBox="0 0 27.3 27.3" style="enable-background:new 0 0 27.3 27.3;" xml:space="preserve">
<style type="text/css">
	.st0{fill:#C1C2CC;}
</style>
<path id="Path_6848" class="st0" d="M26.2,14.2h-5.8c0,1.9-0.3,3.8-0.7,5.7c1.3,0.4,2.6,0.9,3.8,1.6C25.2,19.3,26.1,16.8,26.2,14.2z
	 M24.4,21.9L24.4,21.9l-0.2,0.3c-0.3,0.4-0.6,0.7-0.9,1h-0.1l-0.1,0.1h-0.1l-0.1,0.1L23,23.5l0,0L23,23.5l-0.2,0.2h-0.1v0.1
	l-0.1,0.1l-0.1,0.1l-0.1,0.1l0,0L22.5,24L22.4,24l0,0l-0.1,0.1l-0.1,0.1h-0.1l-0.1,0.1l-0.1,0.1L22,24.4l0,0l0,0.1
	c-0.3,0.2-0.6,0.4-0.9,0.6V25h-0.1L21,25.1c-1.2,0.8-2.6,1.4-4,1.7l-0.1,0.1h-0.1l-0.1,0.1h-0.1L16.4,27L16.3,27h-0.2L16,27.1h-0.2
	l-0.2,0.1h-0.3l-0.1,0.1h-0.4l-0.1,0.1h-0.9l-0.1,0.1h-0.4v-0.1h-0.9l-0.1-0.1H12l-0.1-0.1h-0.3l-0.3-0.1h-0.1
	C8.5,26.6,6,25.3,4,23.3c-0.3-0.3-0.6-0.7-0.9-1l-0.3-0.3h0.1C1,19.6,0,16.7,0,13.6c0-3,1-6,2.9-8.4H2.8L3.1,5l0.1-0.2l0,0l0.1-0.1
	l0.1-0.1l0,0l0.1-0.1l0.2-0.1V4.5l0.1-0.1l0.1-0.1l0,0l0.1-0.1l0.1-0.1h0.1l0.1-0.1l0.1-0.1l0,0l0-0.1H4c2-2,4.5-3.3,7.3-3.8h0.1
	l0.3-0.1h0.1l0.1-0.1h0.3l0.1-0.1h0.6L12.9,0h1.5l0.1,0.1H15l0.1,0.1h0.3l0.1,0.1h0.3l0.1,0.1H16l0.1,0.1h0.2l0.3,0.1l0.1,0.1h0.1
	l0.1,0.1H17c1.4,0.4,2.8,0.9,4,1.7l0.1,0.1l0.1,0.1l0,0c0.3,0.2,0.6,0.4,0.9,0.6L22,2.9l0,0L22.1,3L22.2,3l0.1,0.1l0.1,0.1h0.1
	l0.1,0.1l0,0l0.1,0.1l0.1,0.1l0,0l0.1,0.1l0.1,0.1l0.1,0.1v0.1l0.1,0.1l0,0l0.2,0.1L23,3.7l0,0L23,3.8l0.1,0.1h0.1l0.1,0.1L23.3,4
	l0,0l0.1,0.1h0.1l0.1,0.1l0.1,0.1l0,0l0.1,0.1l0.1,0.1l0,0l0.1,0.1v0.1l0.1,0.1l0.1,0.1l0.1,0.1h0.1L24,4.8l0.1,0.1l0,0L24.2,5
	l0.3,0.3l0,0c1.9,2.4,2.9,5.3,2.9,8.4C27.3,16.7,26.3,19.6,24.4,21.9L24.4,21.9z M3.7,21.4c1.2-0.7,2.5-1.2,3.8-1.6
	c-0.5-1.9-0.7-3.8-0.7-5.7H1C1.1,16.8,2.1,19.3,3.7,21.4z M1,13.1h5.8c0-1.9,0.2-3.8,0.7-5.7C6.2,7.1,5,6.5,3.7,5.8
	C2.1,7.9,1.1,10.5,1,13.1z M23.5,5.8c-1.2,0.7-2.5,1.2-3.8,1.6c0.4,1.9,0.7,3.8,0.7,5.7h5.8C26.1,10.5,25.2,7.9,23.5,5.8L23.5,5.8z
	 M16.7,1.4L16.7,1.4c0.8,0.8,1.4,1.8,1.8,2.8c0.4,0.7,0.7,1.5,0.9,2.3c1.2-0.3,2.4-0.8,3.5-1.4c-0.7-0.7-1.4-1.4-2.3-1.9l-0.1-0.1
	l0,0L20.5,3h-0.1L20.4,3l-0.1-0.1h-0.1l-0.1,0h-0.1V2.8h0L20,2.8h0l-0.1-0.1h0V2.7l-0.1-0.1h-0.1l-0.1-0.1h-0.1V2.5h-0.1l-0.1-0.1
	l0,0l-0.1-0.1h-0.1l-0.1-0.1h-0.1V2.3h-0.1l-0.1-0.1l0,0L19,2.2h-0.1l-0.2-0.1l0,0L18.7,2h-0.1l-0.1,0h-0.1l-0.1-0.1h-0.1l-0.1-0.1
	l0,0l-0.1-0.1h-0.1V1.8H18l-0.1-0.1h-0.1l-0.1-0.1h-0.1l-0.1-0.1h-0.1l-0.1-0.1h-0.1l-0.1-0.1h-0.1l-0.1-0.1h-0.2V1.4h-0.2L16.7,1.4
	z M10.6,1.4C9.6,1.6,8.7,2,7.8,2.5H7.7C7.5,2.6,7.3,2.7,7.1,2.8L7.1,2.9L6.9,3H6.8L6.7,3.1l0,0C6.6,3.2,6.4,3.3,6.2,3.4l0,0L6.2,3.5
	L6.1,3.5l0,0L6,3.6L5.9,3.6h0L5.8,3.7l0,0L5.7,3.8l0,0L5.7,3.8L5.6,3.9l0,0L5.5,3.9L5.5,4l0,0L5.4,4.1l-0.1,0l0,0L5.3,4.2l-0.1,0
	L5.2,4.3L5.2,4.3l0,0L5.1,4.4L5,4.4l0,0L5,4.5L4.9,4.5l0,0L4.9,4.6L4.8,4.6l0,0L4.8,4.7L4.7,4.7L4.4,5c1.1,0.6,2.2,1.1,3.4,1.4
	c0.2-0.8,0.5-1.5,0.9-2.3C9.2,3.1,9.8,2.2,10.6,1.4z M6.2,23.8c0.2,0.1,0.4,0.2,0.5,0.3l0,0l0.1,0.1l0.1,0.1h0.1l0.2,0.2h0.1
	c0.2,0.1,0.4,0.3,0.6,0.4h0.1c0.9,0.5,1.8,0.9,2.8,1.1c-0.8-0.8-1.4-1.7-1.9-2.7c-0.3-0.8-0.6-1.5-0.9-2.3c-1.2,0.3-2.3,0.8-3.4,1.4
	l0,0l0.1,0.1l0.1,0.1l0,0l0.1,0.1l0.1,0.1l0,0l0.1,0.1l0.1,0.1v0.1l0.1,0.1l0.1,0.1l0,0l0.1,0.1l0.1,0.1l0,0L5,22.8L5,22.9l0,0
	l0.1,0.1L5.2,23l0,0L5.2,23l0.1,0.1l0.1,0.1l0.1,0.1l0,0l0.1,0.1l0.1,0.1h0.1l0.1,0.1l0,0l0.1,0.1l0.1,0.1l0,0l0.1,0.1l0,0l0.1,0.1
	l0.1,0.1l0,0L6,23.7l0.1,0.1l0,0L6.2,23.8L6.2,23.8L6.2,23.8z M16.7,25.8h0.2v-0.1H17l0.1-0.1h0.1l0.1-0.1h0.1l0.1-0.1h0.2l0.1-0.1
	h0.1v-0.1h0.1l0.1-0.1h0.1l0.1-0.1h0.1l0.1-0.1h0.1v-0.1l0,0l0.1-0.1h0.1l0.1-0.1h0.1v-0.1h0.1l0.2-0.1H19L19,25l0.1-0.1h0.1
	l0.1-0.1h0.1l0.1-0.1h0.1l0.1-0.1l0.1-0.1h0.1l0.1-0.1l0,0l0.1-0.1h0.1l0.1-0.1l0.1-0.1l0,0l0.1-0.1H20l0.1-0.1h0l0.1-0.1l0,0
	l0.1-0.1h0.1l0.1-0.1h0.1l0.1-0.1l0,0l0.1-0.1l0.1-0.1h0.1c0.7-0.5,1.3-1,1.9-1.6v-0.1l0.1-0.1l0.1-0.1l0,0l0.1-0.1l0.1-0.1l0,0
	l0.1-0.1l0.1-0.1l0,0c-1.1-0.6-2.3-1.1-3.5-1.4c-0.2,0.8-0.5,1.6-0.9,2.3C18.1,24.1,17.4,25.1,16.7,25.8L16.7,25.8z M18.7,7.6
	c-1.6,0.4-3.3,0.6-5,0.6c-1.7,0-3.4-0.2-5.1-0.6c-0.4,1.8-0.7,3.6-0.7,5.5h11.5C19.3,11.3,19.1,9.4,18.7,7.6L18.7,7.6z M8.8,6.7
	C10.4,7,12,7.2,13.6,7.2c1.6,0,3.2-0.2,4.8-0.5c-0.2-0.7-0.5-1.4-0.8-2.1c-1-2.2-2.5-3.5-3.9-3.5c-1.5,0-2.9,1.3-4,3.5
	C9.3,5.2,9.1,6,8.8,6.7z M8.6,19.6c1.7-0.4,3.4-0.5,5.1-0.5c1.7,0,3.4,0.2,5,0.5c0.4-1.8,0.7-3.6,0.7-5.4H7.9
	C7.9,16,8.1,17.8,8.6,19.6z M18.4,20.6c-1.6-0.3-3.2-0.5-4.8-0.5c-1.6,0-3.2,0.1-4.8,0.5C9,21.3,9.3,22,9.6,22.7
	c1.1,2.2,2.5,3.6,4,3.6c1.5,0,2.9-1.4,3.9-3.6C17.9,22,18.2,21.3,18.4,20.6L18.4,20.6z"/>
</svg>
