<svg id="Government" xmlns="http://www.w3.org/2000/svg" width="77.83" height="67.217" viewBox="0 0 77.83 67.217">
  <path id="Path_5490" data-name="Path 5490" d="M44.832,12a1.769,1.769,0,0,0-.857.276L11.251,32.564a1.769,1.769,0,0,0-.829,1.52v4.45A1.769,1.769,0,0,0,12.191,40.3H17.5V65.066H12.191q-.083,0-.166,0a1.769,1.769,0,0,0-1.078.525L6.525,70.013A1.769,1.769,0,0,0,6,71.257v6.191a1.769,1.769,0,0,0,1.769,1.769H82.061a1.769,1.769,0,0,0,1.769-1.769V71.257a1.769,1.769,0,0,0-.525-1.244l-4.422-4.422a1.769,1.769,0,0,0-1.244-.525H72.333V40.3h5.307a1.769,1.769,0,0,0,1.769-1.769v-4.45a1.769,1.769,0,0,0-.829-1.52L45.855,12.278A1.769,1.769,0,0,0,44.832,12Zm.083,3.842L75.87,35.052v1.714H13.96V35.052ZM21.035,40.3H34.3V65.066H21.035Zm16.8,0H51.991V65.066H37.84Zm17.689,0H68.795V65.066H55.528ZM12.91,68.6H76.921l3.372,3.372v3.7H9.538v-3.7L12.91,68.6Z" transform="translate(-6 -12)" fill="#ba0cdf"/>
</svg>
