<svg xmlns="http://www.w3.org/2000/svg" width="55" height="55" viewBox="0 0 55 55">
  <path id="Path_72798" data-name="Path 72798" d="M95.21,55a25.208,25.208,0,0,0,25.208-25.208,1.145,1.145,0,0,0-1.146-1.146H96.356V5.729A1.145,1.145,0,0,0,95.21,4.583,25.208,25.208,0,0,0,95.21,55ZM94.064,6.875V29.791a1.146,1.146,0,0,0,1.146,1.146h22.916A22.917,22.917,0,1,1,94.064,6.875ZM99.793,0a1.146,1.146,0,0,0-1.146,1.146V25.208a1.163,1.163,0,0,0,1.146,1.146h24.063A1.146,1.146,0,0,0,125,25.208,25.208,25.208,0,0,0,99.794,0Zm1.146,2.292a23.371,23.371,0,0,1,6.3,1.215l-6.3,6.336Zm0,10.759,8.594-8.594a23.031,23.031,0,0,1,5.615,3.758L100.939,22.447Zm21.771,11.012H115.16l6.314-6.3h0A23.371,23.371,0,0,1,122.711,24.063Zm-10.759,0h-9.4L116.764,9.854a23.031,23.031,0,0,1,3.758,5.615Z" transform="translate(-70.002)" fill="#fff"/>
</svg>
