<svg xmlns="http://www.w3.org/2000/svg" xmlns:xlink="http://www.w3.org/1999/xlink" width="191.867" height="98.888" viewBox="0 0 191.867 98.888">
  <defs>
    <clipPath id="clip-path">
      <path id="Path_5138" data-name="Path 5138" d="M0,0H79.319V98.888H0Z" fill="#fff"/>
    </clipPath>
  </defs>
  <g id="gooleads" transform="translate(-117.393 -13122.328)" opacity="0.43">
    <g id="Group_2144" data-name="Group 2144" transform="translate(117.393 13122.328)" clip-path="url(#clip-path)">
      <path id="Path_5133" data-name="Path 5133" d="M15.511,9.037a14.186,14.186,0,0,1,3.351-5.311A13.126,13.126,0,0,1,39.506,6.792c3.161,5.754,6.512,11.381,9.769,17.071L65.587,52.253A13.069,13.069,0,1,1,42.73,64.93L28.377,40.018a2.865,2.865,0,0,0-.348-.506,5.143,5.143,0,0,1-1.043-1.549l-10.559-18.3A13.091,13.091,0,0,1,14.689,12.7a9.692,9.692,0,0,1,.822-3.667" transform="translate(11.646 0.005)" fill="#fff"/>
      <path id="Path_5134" data-name="Path 5134" d="M25.562,5.042a18.184,18.184,0,0,0-.6,3.478,13.657,13.657,0,0,0,1.9,7.429l10.4,17.988c.316.537.569,1.075.885,1.581L32.422,45.35l-8,13.784c-.126,0-.158-.063-.19-.158a1.96,1.96,0,0,1,.126-.727A12.724,12.724,0,0,0,21.326,45.7,12.048,12.048,0,0,0,13.9,41.873,12.83,12.83,0,0,0,3.749,44.686c-.537.411-.885,1.012-1.517,1.328a.211.211,0,0,1-.221-.158l4.521-7.872L25.341,5.39c.063-.126.158-.221.221-.348" transform="translate(1.594 3.999)" fill="#fff"/>
      <path id="Path_5135" data-name="Path 5135" d="M3.534,29.8l1.8-1.612a13.067,13.067,0,0,1,20.9,7.935,13.9,13.9,0,0,1-.506,6.734,3.307,3.307,0,0,1-.126.537c-.285.506-.537,1.043-.854,1.549-2.814,4.647-6.955,6.955-12.393,6.607A12.977,12.977,0,0,1,.373,40.234a12.649,12.649,0,0,1,1.739-8.409c.316-.569.7-1.075,1.043-1.644.158-.126.095-.379.379-.379" transform="translate(0.196 20.148)" fill="#fff"/>
      <path id="Path_5136" data-name="Path 5136" d="M2.236,27.913c-.126.126-.126.348-.348.379-.032-.221.095-.348.221-.506Z" transform="translate(1.494 22.037)" fill="#fff"/>
      <path id="Path_5137" data-name="Path 5137" d="M14.41,35.676c-.126-.221,0-.379.126-.537l.126.126Z" transform="translate(11.387 27.868)" fill="#fff"/>
    </g>
    <path id="Path_5139" data-name="Path 5139" d="M14.868,104.311a14.549,14.549,0,1,0,0,29.09,13.405,13.405,0,0,0,10.2-4.094,14.287,14.287,0,0,0,3.232-11.78H14.868v3.951h9.553a8.365,8.365,0,0,1-2.155,5.028,9.9,9.9,0,0,1-7.4,2.945,10.559,10.559,0,0,1,0-21.117,9.868,9.868,0,0,1,7.183,2.873l2.8-2.8a13.787,13.787,0,0,0-9.984-4.094Zm24.349,10.415a9.482,9.482,0,1,0,9.338,9.481,9.262,9.262,0,0,0-9.338-9.481m0,15.227a5.77,5.77,0,0,1,0-11.492c2.8,0,5.243,2.3,5.243,5.746a5.446,5.446,0,0,1-5.243,5.746m20.255-15.227a9.482,9.482,0,1,0,9.338,9.481,9.219,9.219,0,0,0-9.338-9.481m0,15.227a5.77,5.77,0,0,1,0-11.492c2.8,0,5.243,2.3,5.243,5.746,0,3.376-2.37,5.746-5.243,5.746m20.183-15.227a9.386,9.386,0,0,0,0,18.747,6.277,6.277,0,0,0,4.884-2.155h.144v1.365c0,3.591-1.868,5.531-4.956,5.531a5.125,5.125,0,0,1-4.669-3.3l-3.591,1.508a8.809,8.809,0,0,0,8.26,5.531c4.812,0,8.835-2.873,8.835-9.768V115.372H84.684v1.508h-.144a6.277,6.277,0,0,0-4.884-2.155m.359,15.084a5.37,5.37,0,0,1-5.172-5.674c0-3.3,2.37-5.746,5.172-5.746s4.956,2.442,4.956,5.746-2.155,5.674-4.956,5.674M91.58,105.46h4.094v27.725H91.58Zm15.084,9.266c-4.884,0-8.978,3.807-8.978,9.481a9.278,9.278,0,0,0,9.409,9.481,9.391,9.391,0,0,0,7.9-4.166l-3.232-2.155a5.428,5.428,0,0,1-4.669,2.586,4.7,4.7,0,0,1-4.6-2.873l12.713-5.243-.431-1.077c-.79-2.083-3.232-6.033-8.116-6.033m-4.884,9.194a5.2,5.2,0,0,1,4.956-5.531,3.581,3.581,0,0,1,3.52,2.011Z" transform="translate(194.05 13024.441)" fill="#fff"/>
    <path id="Path_5141" data-name="Path 5141" d="M68.259,131.325l9.481-25.211H81.4l9.481,25.211H87.293L84.851,124.5H74.292l-2.442,6.824Zm7.111-9.84h8.4l-4.094-11.349h-.144Zm18.819,7.757a9.507,9.507,0,0,1-2.37-6.536,9.765,9.765,0,0,1,2.37-6.536,7.525,7.525,0,0,1,5.818-2.658,7.619,7.619,0,0,1,3.448.79,5.981,5.981,0,0,1,2.442,2.155h.144l-.144-2.37v-7.973h3.232v25.211H106.04v-2.37H105.9a6.542,6.542,0,0,1-2.442,2.155,7.153,7.153,0,0,1-3.448.79,7.421,7.421,0,0,1-5.818-2.658m10.2-2.011a7.166,7.166,0,0,0,0-8.978,5.225,5.225,0,0,0-7.757,0,7.065,7.065,0,0,0,0,8.907,5.13,5.13,0,0,0,3.879,1.724,4.646,4.646,0,0,0,3.879-1.652m19.681,3.089a8.5,8.5,0,0,1-9.553.215,7.69,7.69,0,0,1-2.8-3.591l2.873-1.221a5.326,5.326,0,0,0,1.868,2.442,4.514,4.514,0,0,0,2.658.862,4.935,4.935,0,0,0,2.586-.646,1.824,1.824,0,0,0,1.006-1.58c0-1.077-.862-1.939-2.514-2.442l-2.945-.718c-3.376-.862-5.028-2.442-5.028-4.884a4.571,4.571,0,0,1,1.939-3.807,8.194,8.194,0,0,1,4.884-1.437,8.375,8.375,0,0,1,4.166,1.077,6.036,6.036,0,0,1,2.586,2.945l-2.873,1.221a4.058,4.058,0,0,0-1.58-1.724,4.852,4.852,0,0,0-2.514-.646,4.273,4.273,0,0,0-2.3.646,1.886,1.886,0,0,0-1.006,1.58c0,1.006.934,1.724,2.8,2.083l2.586.646c3.448.862,5.1,2.586,5.1,5.172a4.48,4.48,0,0,1-1.939,3.807" transform="translate(152.806 13059.61)" fill="#fff"/>
  </g>
</svg>
