<svg version="1.2" xmlns="http://www.w3.org/2000/svg" viewBox="0 0 57 35" width="57" height="35">
	<title>left-arrow-svg</title>
	<style>
		.s0 { fill: #000950;stroke: #ffffff } 
	</style>
	<path id="Path_34596" class="s0" d="m1.2 18.1q0-0.3 0.2-0.5 0.1-0.3 0.3-0.5 0.2-0.2 0.4-0.3 0.3-0.2 0.6-0.2h49l-12.7-12.6c-0.3-0.3-0.4-0.7-0.4-1.1 0-0.4 0.1-0.7 0.4-1 0.3-0.3 0.7-0.4 1-0.4 0.4 0 0.8 0.1 1.1 0.4l15 15q0.2 0.2 0.3 0.5 0.1 0.2 0.1 0.5 0 0.3-0.1 0.6-0.1 0.3-0.3 0.5l-15 14.9c-0.3 0.3-0.7 0.5-1.1 0.5-0.3 0-0.7-0.2-1-0.5-0.3-0.2-0.4-0.6-0.4-1 0-0.4 0.1-0.8 0.4-1l12.3-12.3h-48.6q-0.3 0-0.6-0.1-0.2-0.1-0.4-0.3-0.2-0.2-0.4-0.5-0.1-0.3-0.1-0.6z"/>
</svg>