<svg xmlns="http://www.w3.org/2000/svg" width="47.885" height="60" viewBox="0 0 47.885 60">
  <path id="Path_72795" data-name="Path 72795" d="M209.763,99.636,207.33,82.823h0a13.48,13.48,0,0,0-13.335-11.546h-16.26A13.477,13.477,0,0,0,164.4,82.823l-2.435,16.813a4.1,4.1,0,0,0,4.061,4.687h39.682a4.1,4.1,0,0,0,4.058-4.687ZM187.137,74.79l3.011,14.163L185.862,93l-4.285-4.045,3.014-14.163ZM206.15,100.6h0a.574.574,0,0,1-.446.206H166.022a.572.572,0,0,1-.444-.206.565.565,0,0,1-.135-.467l2.436-16.808h0a9.958,9.958,0,0,1,9.854-8.538H181l-2.925,13.76a2.956,2.956,0,0,0,.855,2.741l4.929,4.648h0a2.936,2.936,0,0,0,4.018,0l4.926-4.648a.006.006,0,0,0,0-.005,2.935,2.935,0,0,0,.85-2.736L190.73,74.79h3.263a9.966,9.966,0,0,1,9.857,8.538l2.435,16.808h0a.59.59,0,0,1-.134.467ZM178.114,59.444l-.824,4.812a2.923,2.923,0,0,0,4.25,3.089l4.322-2.273,4.323,2.273a2.927,2.927,0,0,0,4.248-3.089l-.821-4.812,3.5-3.41h0a2.93,2.93,0,0,0-1.626-4.993l-4.834-.7-2.161-4.378h0a2.927,2.927,0,0,0-5.253,0l-2.161,4.378-4.833.7h0a2.923,2.923,0,0,0-1.622,4.993l3.493,3.41Zm4.381-5.762h0a1.748,1.748,0,0,0,1.322-.962l2.044-4.144,2.048,4.144a1.751,1.751,0,0,0,1.324.962l4.573.665L190.5,57.572h0a1.763,1.763,0,0,0-.505,1.554l.78,4.553-4.086-2.148a1.757,1.757,0,0,0-1.638,0l-4.089,2.148.781-4.553h0a1.765,1.765,0,0,0-.506-1.554l-3.309-3.224Z" transform="translate(-161.921 -44.323)" fill="#fff" fill-rule="evenodd"/>
</svg>
