<svg xmlns="http://www.w3.org/2000/svg" width="61.712" height="68.086" viewBox="0 0 61.712 68.086">
  <g id="Group_40324" data-name="Group 40324" transform="translate(-1197.47 -9009.955)">
    <g id="entertainment-icon" transform="translate(3756.586 23821.955)">
      <path id="Path_27927" data-name="Path 27927" d="M127.413,56.717V65.4h0a1.2,1.2,0,0,0,1.2,1.2h.528v32a1.2,1.2,0,0,0,1.2,1.2h53.457a1.2,1.2,0,0,0,1.2-1.2V66.545h.575a1.2,1.2,0,0,0,1.2-1.2V56.6a1.2,1.2,0,0,0-1.2-1.2h-48.71L183.747,42.43a1.2,1.2,0,0,0,.8-1.427l-2.313-8.462a1.2,1.2,0,0,0-1.414-.8L125.9,46.96a1.2,1.2,0,0,0-.7.551,1.117,1.117,0,0,0-.108.875ZM140.49,57.76l4.063,6.472H138.56L134.5,57.76Zm8.774,0,4.063,6.472h-5.993L143.27,57.76Zm8.774,0,4.063,6.472h-5.993l-4.063-6.472Zm8.774,0,4.063,6.472h-5.993l-4.075-6.472Zm8.774,0,4.063,6.472H173.6l-4.063-6.472Zm-39.805,6.472h-6.053V57.76h1.989Zm46.853,33.2h-51.18V66.547h51.179Zm1.738-33.2h-2L178.3,57.76h6.065ZM141.928,44.924l-2.182,7.323-5.825,1.618,2.181-7.323Zm8.45-2.4L148.2,49.9l-5.825,1.618,2.181-7.371Zm8.39-2.4-2.182,7.323-5.825,1.618,2.182-7.323Zm8.45-2.4L165.1,45.212l-5.825,1.618,2.193-7.335Zm8.462-2.4-2.193,7.335-5.753,1.81,2.182-7.335Zm6.341,5.214-5.777,1.582,2.182-7.323,1.918-.539Zm-48.543,6.712L131.284,54.6l-1.918.528-1.726-6.185Z" transform="translate(-2684.171 -14843.707)" fill="#e21a6b"/>
      <path id="Path_27928" data-name="Path 27928" d="M290.787,319.9a10.788,10.788,0,1,0,7.628,3.16A10.786,10.786,0,0,0,290.787,319.9Zm0,19.3a8.51,8.51,0,1,1,6-2.488,8.5,8.5,0,0,1-6,2.488Z" transform="translate(-2817.891 -15092.423)" fill="#e21a6b"/>
      <path id="Path_27929" data-name="Path 27929" d="M337.505,355.341a1.151,1.151,0,0,0-1.858.911v9.673h0a1.161,1.161,0,0,0,1.151,1.163,1.114,1.114,0,0,0,.707-.251l6.184-4.794h0a1.2,1.2,0,0,0,.444-.911,1.128,1.128,0,0,0-.444-.911Zm.431,8.21v-4.926l3.14,2.469Z" transform="translate(-2865.916 -15122.807)" fill="#e21a6b"/>
    </g>
  </g>
</svg>
