<svg xmlns="http://www.w3.org/2000/svg" width="65.965" height="63.783" viewBox="0 0 65.965 63.783">
  <g id="healthcare-icon" transform="translate(-1.75 -2.75)">
    <path id="Path_5468" data-name="Path 5468" d="M66.374,27H65.033a31.482,31.482,0,0,0-30.3-24,31.482,31.482,0,0,0-30.3,24H3.091A1.091,1.091,0,0,0,2,28.095V33.55a32.733,32.733,0,0,0,65.465,0V28.095A1.091,1.091,0,0,0,66.374,27ZM34.733,5.182A29.284,29.284,0,0,1,62.78,27H6.685A29.284,29.284,0,0,1,34.733,5.182ZM65.283,33.55a30.55,30.55,0,1,1-61.1,0V29.186h61.1Z" fill="#f51212" stroke="#fff" stroke-width="0.5"/>
    <path id="Path_5469" data-name="Path 5469" d="M43.913,37.547H38.457V32.091A1.091,1.091,0,0,0,37.366,31H28.638a1.091,1.091,0,0,0-1.091,1.091v5.455H22.091A1.09,1.09,0,0,0,21,38.638v8.729a1.09,1.09,0,0,0,1.091,1.091h5.455v5.455A1.09,1.09,0,0,0,28.638,55h8.729a1.09,1.09,0,0,0,1.091-1.091V48.457h5.455A1.09,1.09,0,0,0,45,47.366V38.638A1.091,1.091,0,0,0,43.913,37.547Zm-1.091,8.729H37.366a1.09,1.09,0,0,0-1.091,1.091v5.455H29.729V47.366a1.09,1.09,0,0,0-1.091-1.091H23.182V39.729h5.455a1.09,1.09,0,0,0,1.091-1.091V33.182h6.546v5.455a1.09,1.09,0,0,0,1.091,1.091h5.455Z" transform="translate(1.731 2.55)" fill="#f51212" stroke="#fff" stroke-width="0.5"/>
  </g>
</svg>
