<svg xmlns="http://www.w3.org/2000/svg" width="43.624" height="43.623" viewBox="0 0 43.624 43.623">
  <g id="Group_40254" data-name="Group 40254" transform="translate(-12676.671 -2762.817)">
    <path id="Path_34389" data-name="Path 34389" d="M121.6,26l-4.137-2.072c-.157-.423-.334-.852-.532-1.275l1.465-4.389a.9.9,0,0,0-.218-.927l-4.928-4.928a.9.9,0,0,0-.927-.218l-4.389,1.465c-.423-.2-.845-.375-1.275-.532L104.59,8.991a.89.89,0,0,0-.811-.5H96.812a.89.89,0,0,0-.811.5l-2.072,4.137c-.423.157-.852.334-1.275.532l-4.389-1.465a.9.9,0,0,0-.927.218L82.41,17.341a.9.9,0,0,0-.218.927l1.465,4.389c-.191.416-.368.845-.532,1.275L78.988,26a.9.9,0,0,0-.5.811v6.966a.9.9,0,0,0,.5.811l4.137,2.072c.157.429.334.852.532,1.275l-1.465,4.389a.9.9,0,0,0,.218.927l4.928,4.928a.9.9,0,0,0,.927.218l4.389-1.465c.416.191.845.368,1.275.532L96,51.605a.918.918,0,0,0,.811.5h6.966a.9.9,0,0,0,.811-.5l2.072-4.137c.429-.157.852-.334,1.275-.532l4.389,1.465a.9.9,0,0,0,.927-.218l4.928-4.928a.9.9,0,0,0,.218-.927l-1.465-4.389c.191-.423.368-.845.532-1.275l4.137-2.072a.918.918,0,0,0,.5-.811V26.815a.9.9,0,0,0-.5-.811Zm-1.316,7.218-3.96,1.977a.9.9,0,0,0-.45.511,15.168,15.168,0,0,1-.736,1.765.907.907,0,0,0-.041.682l1.4,4.206-4.131,4.131-4.206-1.4a.878.878,0,0,0-.682.048,17.826,17.826,0,0,1-1.765.736.877.877,0,0,0-.511.45l-1.977,3.96H97.385l-1.977-3.96a.92.92,0,0,0-.511-.45,15.839,15.839,0,0,1-1.765-.736.908.908,0,0,0-.682-.048l-4.206,1.4-4.131-4.131,1.4-4.206a.878.878,0,0,0-.048-.682,17.825,17.825,0,0,1-.736-1.765.877.877,0,0,0-.45-.511l-3.96-1.977V27.381l3.96-1.977a.92.92,0,0,0,.45-.511,15.838,15.838,0,0,1,.736-1.765.908.908,0,0,0,.048-.682l-1.4-4.206,4.131-4.131,4.206,1.4a.878.878,0,0,0,.682-.048A16.374,16.374,0,0,1,94.9,14.73a.877.877,0,0,0,.511-.45l1.977-3.96h5.841l1.977,3.96a.92.92,0,0,0,.511.45,16.4,16.4,0,0,1,1.765.736.908.908,0,0,0,.682.048l4.206-1.4,4.131,4.131-1.4,4.206a.909.909,0,0,0,.041.682,17.631,17.631,0,0,1,.736,1.765.877.877,0,0,0,.45.511l3.96,1.977Z" transform="translate(12598.188 2754.331)" fill="#ffefef"/>
    <path id="Path_34390" data-name="Path 34390" d="M204.316,121.59a12.726,12.726,0,1,0,12.726,12.726A12.74,12.74,0,0,0,204.316,121.59Zm-7.273,20.83a7.236,7.236,0,0,1,3.211-5.937,6.491,6.491,0,0,0,8.139-.007,7.279,7.279,0,0,1,3.2,5.944,10.842,10.842,0,0,1-14.546,0Zm10.5-7.675a4.536,4.536,0,0,1-3.238,1.39,4.612,4.612,0,0,1-4.546-4.546,4.546,4.546,0,1,1,9.093,0A4.482,4.482,0,0,1,207.546,134.745Zm5.644,5.883a9.055,9.055,0,0,0-3.585-5.5,6.364,6.364,0,1,0-10.579.007,9.053,9.053,0,0,0-3.585,5.5,10.908,10.908,0,1,1,17.75-.007Z" transform="translate(12494.167 2650.314)" fill="#ffefef"/>
  </g>
</svg>
