<svg xmlns="http://www.w3.org/2000/svg" width="46.214" height="38.866" viewBox="0 0 46.214 38.866">
  <path id="noun-ad-5149675" d="M143.886,88.951a3.857,3.857,0,0,0-6.154-1.371l-13.3,12-5.04,2.126a4.286,4.286,0,0,0-2.314,5.588l1.954,4.8a4.3,4.3,0,0,0,3.977,2.64,4.256,4.256,0,0,0,1.714-.326l.137-.086,3.086,7.422a2.331,2.331,0,0,0,3.086,1.286l2.777-1.149h0a2.419,2.419,0,0,0,1.286-1.286,2.351,2.351,0,0,0,0-1.8l-2.743-6.6,15.257-.771a3.84,3.84,0,0,0,3.428-5.331Zm-23.245,22.474-1.989-4.783a2.571,2.571,0,0,1,1.389-3.428l4.389-1.749,1.971,4.765,1.971,4.783-3.428,1.389-.994.429a2.572,2.572,0,0,1-3.309-1.405Zm9.977,1.08,2.88,6.857a.633.633,0,0,1,0,.5.616.616,0,0,1-.343.343l-2.777,1.165h0a.668.668,0,0,1-.857-.36l-3.069-7.337,3.24-1.354h.892a.547.547,0,0,0,.034.189Zm18.617-3.789a2.109,2.109,0,0,1-1.714.994l-17.467.874-2.074-5.006-2.092-4.971,12.977-11.725a2.141,2.141,0,0,1,1.92-.514,2.108,2.108,0,0,1,1.509,1.286l7.1,17.142a2.126,2.126,0,0,1-.154,1.92Zm4.937-12.445h0a.874.874,0,1,1-.343-1.714l6.343-2.52a.861.861,0,0,1,.651,1.594L154.5,96.254h0a1.256,1.256,0,0,1-.326.017Zm8.28,5.365h0a.857.857,0,0,1-.857.823l-6.857-.292h0a.874.874,0,0,1-.823-.909.822.822,0,0,1,.892-.805l6.857.292h0a.84.84,0,0,1,.788.892ZM149.7,91.179a.875.875,0,0,1,0-1.217l4.851-4.783a.861.861,0,0,1,1.217,1.217l-4.851,4.783A.892.892,0,0,1,149.7,91.179Z" transform="translate(-116.488 -84.61)" fill="#fff" stroke="#fff" stroke-width="0.5"/>
</svg>
