<svg xmlns="http://www.w3.org/2000/svg" width="37.091" height="37.092" viewBox="0 0 37.091 37.092">
  <g id="Group_40277" data-name="Group 40277" transform="matrix(0.998, 0.07, -0.07, 0.998, -13247.956, -4878.675)">
    <path id="Path_34419" data-name="Path 34419" d="M299.621,484.712h5.352a.535.535,0,0,0,0-1.07h-5.352a.535.535,0,1,0,0,1.07Z" transform="translate(13273.501 3489.07)" fill="#fff" stroke="#fff" stroke-width="0.5"/>
    <path id="Path_34420" data-name="Path 34420" d="M110.06,8.484H81.16a2.676,2.676,0,0,0-2.676,2.676V32.568a2.676,2.676,0,0,0,2.676,2.676h9.4l-1.2,3.211h-.166a2.141,2.141,0,1,0,0,4.282h12.844a2.141,2.141,0,1,0,0-4.282h-.166l-1.2-3.211h9.4a2.676,2.676,0,0,0,2.676-2.676V11.16a2.676,2.676,0,0,0-2.676-2.676ZM79.554,25.9l6.1-3.805h0a2.649,2.649,0,0,0,4.282-.594L94,22.71v.225a2.676,2.676,0,1,0,5.352,0,2.621,2.621,0,0,0-.348-1.29l3.559-3.029a2.584,2.584,0,0,0,2.89.241l6.208,7.482v4.624H79.554Zm6.422-5.646a1.605,1.605,0,1,1,.47,1.135A1.606,1.606,0,0,1,85.977,20.258Zm12.309,2.676h0a1.606,1.606,0,1,1-.47-1.135,1.605,1.605,0,0,1,.47,1.135Zm5.887-4.817h0a1.605,1.605,0,1,1,1.135-.47,1.606,1.606,0,0,1-1.135.47ZM81.16,9.555h28.9a1.606,1.606,0,0,1,1.606,1.606V24.669l-5.411-6.5a2.67,2.67,0,1,0-4.758-1.659,2.624,2.624,0,0,0,.348,1.29l-3.532,3.029a2.633,2.633,0,0,0-3.982.856l-4.073-1.2v-.225a2.676,2.676,0,1,0-5.175.931l-5.528,3.457V11.161A1.606,1.606,0,0,1,81.16,9.555Zm19.834,29.623a.535.535,0,0,0,.5.348h.535a1.07,1.07,0,1,1,0,2.141H89.188a1.07,1.07,0,1,1,0-2.141h.535a.535.535,0,0,0,.5-.348L91.7,35.244h7.825Zm9.066-5H81.16a1.606,1.606,0,0,1-1.606-1.605v-.535h32.111v.535a1.606,1.606,0,0,1-1.606,1.605Z" transform="translate(13480.188 3934.256)" fill="#fff" stroke="#fff" stroke-width="0.5"/>
  </g>
</svg>
