<svg xmlns="http://www.w3.org/2000/svg" xmlns:xlink="http://www.w3.org/1999/xlink" width="60" zoomAndPan="magnify" viewBox="0 0 45 36.000001" height="48" preserveAspectRatio="xMidYMid meet" version="1.0"><defs><clipPath id="13e69ca018"><path d="M 17.605469 30.609375 L 18.570312 30.609375 L 18.570312 33.128906 L 17.605469 33.128906 Z M 17.605469 30.609375 " clip-rule="nonzero"/></clipPath><clipPath id="8218408962"><path d="M 14.59375 15.875 L 32.582031 15.875 L 32.582031 33.128906 L 14.59375 33.128906 Z M 14.59375 15.875 " clip-rule="nonzero"/></clipPath><clipPath id="2979cdd65e"><path d="M 17 1.75 L 28 1.75 L 28 11 L 17 11 Z M 17 1.75 " clip-rule="nonzero"/></clipPath><clipPath id="2428a55adc"><path d="M 33.722656 12.25 L 42.925781 12.25 L 42.925781 21.09375 L 33.722656 21.09375 Z M 33.722656 12.25 " clip-rule="nonzero"/></clipPath><clipPath id="7cf5d79a46"><path d="M 2.0625 12 L 12 12 L 12 22 L 2.0625 22 Z M 2.0625 12 " clip-rule="nonzero"/></clipPath></defs><path fill="#f51f1f" d="M 22.277344 22.164062 C 20.386719 22.164062 18.847656 20.621094 18.847656 18.730469 C 18.847656 16.835938 20.386719 15.296875 22.277344 15.296875 C 24.171875 15.296875 25.710938 16.835938 25.710938 18.730469 C 25.710938 20.621094 24.171875 22.164062 22.277344 22.164062 Z M 22.277344 14.433594 C 19.910156 14.433594 17.984375 16.363281 17.984375 18.730469 C 17.984375 21.097656 19.910156 23.023438 22.277344 23.023438 C 24.644531 23.023438 26.574219 21.097656 26.574219 18.730469 C 26.574219 16.363281 24.644531 14.433594 22.277344 14.433594 " fill-opacity="1" fill-rule="nonzero"/><g clip-path="url(#13e69ca018)"><path fill="#f51f1f" d="M 18.265625 30.640625 C 18.039062 30.578125 17.789062 30.707031 17.734375 30.9375 C 17.527344 31.796875 17.648438 32.757812 17.65625 32.871094 C 17.675781 33.105469 17.875 33.28125 18.109375 33.265625 C 18.113281 33.265625 18.117188 33.265625 18.121094 33.265625 C 18.355469 33.246094 18.535156 33.039062 18.515625 32.804688 C 18.515625 32.777344 18.445312 32.007812 18.5625 31.175781 C 18.59375 30.941406 18.496094 30.707031 18.265625 30.640625 " fill-opacity="1" fill-rule="nonzero"/></g><g clip-path="url(#8218408962)"><path fill="#f51f1f" d="M 32.546875 17.796875 C 32.4375 16.726562 31.527344 15.886719 30.425781 15.886719 C 29.253906 15.886719 28.296875 16.84375 28.296875 18.019531 C 28.296875 20.414062 26.695312 23.96875 23.257812 23.980469 C 23.257812 23.980469 23.257812 23.980469 23.253906 23.980469 C 23.253906 23.980469 23.25 23.980469 23.25 23.980469 C 22.113281 23.980469 19.984375 24.078125 19.148438 24.191406 C 18.164062 24.320312 17.421875 24.582031 16.820312 25.015625 C 16.132812 25.503906 15.628906 26.214844 15.273438 27.191406 C 14.914062 28.179688 14.699219 29.460938 14.621094 31.117188 C 14.574219 32.066406 14.617188 32.832031 14.621094 32.863281 C 14.632812 33.089844 14.824219 33.265625 15.050781 33.265625 C 15.058594 33.265625 15.066406 33.265625 15.074219 33.265625 C 15.3125 33.253906 15.492188 33.046875 15.480469 32.808594 C 15.480469 32.804688 15.4375 32.058594 15.480469 31.160156 C 15.558594 29.59375 15.753906 28.390625 16.082031 27.484375 C 16.378906 26.679688 16.78125 26.101562 17.320312 25.714844 C 18.359375 24.972656 21.117188 24.847656 22.945312 24.84375 C 22.949219 24.84375 22.957031 24.84375 22.960938 24.84375 C 22.964844 24.84375 22.96875 24.84375 22.972656 24.84375 C 22.972656 24.84375 22.976562 24.84375 22.976562 24.84375 L 23.253906 24.84375 C 23.257812 24.84375 23.257812 24.84375 23.257812 24.84375 C 24.246094 24.839844 25.152344 24.597656 25.960938 24.117188 C 26.667969 23.699219 27.285156 23.109375 27.796875 22.359375 C 28.234375 21.71875 28.589844 20.957031 28.828125 20.15625 C 29.042969 19.429688 29.15625 18.691406 29.15625 18.019531 C 29.15625 17.320312 29.726562 16.75 30.425781 16.75 C 31.125 16.75 31.695312 17.320312 31.695312 18.019531 C 31.695312 20.941406 30.46875 24.796875 27.777344 26.378906 C 27.265625 26.585938 26.839844 27.070312 26.515625 27.820312 C 26.273438 28.378906 26.082031 29.09375 25.945312 29.945312 C 25.714844 31.375 25.710938 32.691406 25.710938 32.75 C 25.710938 32.984375 25.902344 33.179688 26.140625 33.179688 C 26.378906 33.179688 26.574219 32.984375 26.574219 32.75 C 26.574219 32.734375 26.574219 31.433594 26.796875 30.074219 C 26.921875 29.292969 27.097656 28.648438 27.308594 28.160156 C 27.539062 27.625 27.816406 27.285156 28.113281 27.171875 C 28.136719 27.164062 28.160156 27.152344 28.183594 27.140625 C 28.941406 26.699219 29.628906 26.089844 30.21875 25.335938 C 30.21875 25.335938 31.507812 23.859375 32.140625 21.285156 C 32.609375 19.378906 32.566406 18.105469 32.566406 18.105469 C 32.566406 18.003906 32.558594 17.898438 32.546875 17.796875 " fill-opacity="1" fill-rule="nonzero"/></g><g clip-path="url(#2979cdd65e)"><path fill="#f51f1f" d="M 21.289062 5.386719 C 21.449219 5.378906 21.59375 5.28125 21.660156 5.136719 L 22.53125 3.230469 L 23.355469 5.054688 C 23.417969 5.195312 23.550781 5.292969 23.707031 5.308594 L 25.664062 5.492188 L 24.164062 6.871094 C 24.046875 6.976562 23.996094 7.136719 24.035156 7.289062 L 24.503906 9.277344 L 22.75 8.265625 C 22.617188 8.1875 22.453125 8.1875 22.320312 8.265625 L 20.511719 9.292969 L 20.972656 7.234375 C 21.007812 7.082031 20.960938 6.925781 20.847656 6.820312 L 19.398438 5.484375 Z M 18.058594 5.421875 L 20.074219 7.285156 L 19.453125 10.058594 C 19.417969 10.226562 19.480469 10.398438 19.617188 10.5 C 19.757812 10.601562 19.941406 10.613281 20.089844 10.527344 L 22.53125 9.140625 L 24.941406 10.527344 C 25.007812 10.566406 25.082031 10.585938 25.15625 10.585938 C 25.246094 10.585938 25.339844 10.554688 25.414062 10.5 C 25.554688 10.394531 25.617188 10.222656 25.578125 10.054688 L 24.933594 7.335938 L 26.964844 5.476562 C 27.089844 5.359375 27.136719 5.179688 27.082031 5.019531 C 27.027344 4.855469 26.882812 4.742188 26.714844 4.726562 L 24.039062 4.46875 L 22.925781 2.007812 C 22.855469 1.851562 22.703125 1.75 22.535156 1.75 C 22.53125 1.75 22.53125 1.75 22.53125 1.75 C 22.363281 1.75 22.210938 1.851562 22.140625 2.003906 L 20.984375 4.539062 L 18.328125 4.671875 C 18.15625 4.679688 18.003906 4.792969 17.945312 4.957031 C 17.882812 5.121094 17.929688 5.304688 18.058594 5.421875 " fill-opacity="1" fill-rule="nonzero"/></g><path fill="#f51f1f" d="M 31.273438 7.925781 C 31.433594 7.917969 31.578125 7.820312 31.644531 7.671875 L 32.515625 5.769531 L 33.339844 7.59375 C 33.402344 7.734375 33.539062 7.828125 33.691406 7.84375 L 35.648438 8.03125 L 34.148438 9.40625 C 34.03125 9.511719 33.984375 9.671875 34.019531 9.824219 L 34.488281 11.816406 L 32.734375 10.804688 C 32.601562 10.726562 32.4375 10.726562 32.304688 10.800781 L 30.496094 11.832031 L 30.960938 9.769531 C 30.992188 9.621094 30.945312 9.460938 30.832031 9.359375 L 29.382812 8.023438 Z M 28.042969 7.960938 L 30.0625 9.824219 L 29.4375 12.59375 C 29.402344 12.761719 29.464844 12.9375 29.605469 13.039062 C 29.742188 13.140625 29.925781 13.152344 30.074219 13.066406 L 32.515625 11.675781 L 34.925781 13.066406 C 34.992188 13.101562 35.066406 13.121094 35.140625 13.121094 C 35.230469 13.121094 35.324219 13.09375 35.398438 13.035156 C 35.539062 12.933594 35.601562 12.757812 35.5625 12.589844 L 34.917969 9.875 L 36.949219 8.011719 C 37.074219 7.898438 37.121094 7.71875 37.066406 7.554688 C 37.011719 7.394531 36.867188 7.277344 36.699219 7.261719 L 34.023438 7.007812 L 32.910156 4.542969 C 32.839844 4.390625 32.6875 4.289062 32.519531 4.289062 C 32.519531 4.289062 32.515625 4.289062 32.515625 4.289062 C 32.347656 4.289062 32.195312 4.386719 32.125 4.542969 L 30.96875 7.074219 L 28.3125 7.210938 C 28.140625 7.21875 27.988281 7.332031 27.929688 7.496094 C 27.867188 7.660156 27.914062 7.839844 28.042969 7.960938 " fill-opacity="1" fill-rule="nonzero"/><g clip-path="url(#2428a55adc)"><path fill="#f51f1f" d="M 39.984375 17.375 C 39.867188 17.480469 39.820312 17.640625 39.855469 17.792969 L 40.328125 19.785156 L 38.570312 18.773438 C 38.4375 18.695312 38.273438 18.695312 38.140625 18.769531 L 36.335938 19.796875 L 36.796875 17.738281 C 36.832031 17.589844 36.78125 17.429688 36.667969 17.328125 L 35.222656 15.988281 L 37.109375 15.894531 C 37.273438 15.886719 37.414062 15.789062 37.480469 15.640625 L 38.351562 13.734375 L 39.175781 15.558594 C 39.238281 15.703125 39.375 15.796875 39.527344 15.8125 L 41.484375 16 Z M 42.90625 15.523438 C 42.851562 15.363281 42.707031 15.246094 42.535156 15.230469 L 39.863281 14.976562 L 38.75 12.511719 C 38.679688 12.355469 38.523438 12.257812 38.355469 12.257812 C 38.183594 12.257812 38.03125 12.355469 37.960938 12.511719 L 36.804688 15.042969 L 34.148438 15.179688 C 33.976562 15.1875 33.824219 15.300781 33.765625 15.464844 C 33.707031 15.625 33.75 15.808594 33.878906 15.929688 L 35.898438 17.792969 L 35.277344 20.5625 C 35.238281 20.730469 35.304688 20.902344 35.441406 21.007812 C 35.578125 21.109375 35.761719 21.117188 35.914062 21.035156 L 38.351562 19.644531 L 40.761719 21.03125 C 40.828125 21.070312 40.902344 21.089844 40.976562 21.089844 C 41.070312 21.089844 41.160156 21.0625 41.238281 21.003906 C 41.375 20.902344 41.4375 20.726562 41.398438 20.558594 L 40.757812 17.839844 L 42.785156 15.980469 C 42.914062 15.863281 42.960938 15.6875 42.90625 15.523438 " fill-opacity="1" fill-rule="nonzero"/></g><path fill="#f51f1f" d="M 12.71875 10.800781 C 12.652344 10.765625 12.578125 10.746094 12.507812 10.746094 C 12.429688 10.746094 12.355469 10.765625 12.289062 10.804688 L 10.535156 11.816406 L 11.003906 9.824219 C 11.039062 9.671875 10.992188 9.511719 10.875 9.40625 L 9.375 8.03125 L 11.332031 7.84375 C 11.484375 7.828125 11.621094 7.734375 11.683594 7.59375 L 12.507812 5.769531 L 13.378906 7.671875 C 13.445312 7.820312 13.589844 7.917969 13.75 7.925781 L 15.640625 8.023438 L 14.191406 9.359375 C 14.078125 9.464844 14.03125 9.621094 14.0625 9.769531 L 14.527344 11.832031 Z M 15.417969 13.039062 C 15.558594 12.9375 15.621094 12.761719 15.585938 12.59375 L 14.960938 9.824219 L 16.980469 7.960938 C 17.109375 7.839844 17.152344 7.660156 17.09375 7.496094 C 17.035156 7.332031 16.882812 7.21875 16.710938 7.210938 L 14.054688 7.074219 L 12.898438 4.542969 C 12.828125 4.386719 12.675781 4.289062 12.507812 4.289062 C 12.503906 4.289062 12.503906 4.289062 12.503906 4.289062 C 12.335938 4.289062 12.179688 4.390625 12.113281 4.542969 L 11 7.007812 L 8.324219 7.261719 C 8.152344 7.277344 8.007812 7.394531 7.957031 7.554688 C 7.902344 7.71875 7.945312 7.898438 8.074219 8.011719 L 10.105469 9.875 L 9.460938 12.589844 C 9.421875 12.757812 9.484375 12.933594 9.625 13.035156 C 9.699219 13.09375 9.789062 13.121094 9.882812 13.121094 C 9.957031 13.121094 10.03125 13.105469 10.097656 13.066406 L 12.507812 11.675781 L 14.949219 13.066406 C 15.097656 13.152344 15.28125 13.140625 15.417969 13.039062 " fill-opacity="1" fill-rule="nonzero"/><g clip-path="url(#7cf5d79a46)"><path fill="#f51f1f" d="M 8.355469 17.328125 C 8.242188 17.429688 8.191406 17.589844 8.226562 17.738281 L 8.6875 19.796875 L 6.882812 18.769531 C 6.816406 18.734375 6.742188 18.714844 6.667969 18.714844 C 6.59375 18.714844 6.519531 18.734375 6.453125 18.773438 L 4.695312 19.785156 L 5.167969 17.792969 C 5.203125 17.640625 5.152344 17.480469 5.039062 17.375 L 3.539062 16 L 5.492188 15.8125 C 5.648438 15.796875 5.78125 15.703125 5.847656 15.558594 L 6.671875 13.734375 L 7.539062 15.640625 C 7.609375 15.789062 7.75 15.886719 7.914062 15.894531 L 9.800781 15.988281 Z M 10.871094 15.179688 L 8.21875 15.042969 L 7.0625 12.511719 C 6.992188 12.355469 6.835938 12.257812 6.667969 12.257812 C 6.5 12.257812 6.34375 12.355469 6.273438 12.511719 L 5.160156 14.976562 L 2.488281 15.230469 C 2.316406 15.246094 2.171875 15.363281 2.117188 15.523438 C 2.0625 15.6875 2.109375 15.863281 2.234375 15.980469 L 4.265625 17.839844 L 3.625 20.558594 C 3.585938 20.726562 3.648438 20.902344 3.785156 21.003906 C 3.863281 21.0625 3.953125 21.089844 4.046875 21.089844 C 4.121094 21.089844 4.195312 21.070312 4.261719 21.03125 L 6.671875 19.644531 L 9.109375 21.035156 C 9.257812 21.117188 9.445312 21.109375 9.582031 21.007812 C 9.71875 20.902344 9.785156 20.730469 9.746094 20.5625 L 9.125 17.792969 L 11.144531 15.929688 C 11.273438 15.808594 11.316406 15.625 11.257812 15.464844 C 11.199219 15.300781 11.046875 15.1875 10.871094 15.179688 " fill-opacity="1" fill-rule="nonzero"/></g></svg>