<svg xmlns="http://www.w3.org/2000/svg" xmlns:xlink="http://www.w3.org/1999/xlink" width="60" zoomAndPan="magnify" viewBox="0 0 45 36.000001" height="48" preserveAspectRatio="xMidYMid meet" version="1.0"><defs><clipPath id="9ef7f49aeb"><path d="M 3.359375 0 L 27 0 L 27 32 L 3.359375 32 Z M 3.359375 0 " clip-rule="nonzero"/></clipPath><clipPath id="2736709468"><path d="M 12 6 L 41.304688 6 L 41.304688 35.027344 L 12 35.027344 Z M 12 6 " clip-rule="nonzero"/></clipPath></defs><g clip-path="url(#9ef7f49aeb)"><path fill="#ba0cdf" d="M 5.148438 31.492188 L 24.753906 31.492188 C 25.734375 31.492188 26.539062 30.691406 26.539062 29.710938 L 26.539062 27.242188 C 26.152344 27.390625 25.765625 27.511719 25.351562 27.601562 L 25.351562 29.710938 C 25.351562 30.035156 25.082031 30.304688 24.753906 30.304688 L 5.148438 30.304688 C 4.820312 30.304688 4.554688 30.035156 4.554688 29.710938 L 4.554688 1.78125 C 4.554688 1.457031 4.820312 1.1875 5.148438 1.1875 L 24.753906 1.1875 C 25.082031 1.1875 25.351562 1.457031 25.351562 1.78125 L 25.351562 5.675781 C 25.765625 5.761719 26.152344 5.882812 26.539062 6.03125 L 26.539062 1.78125 C 26.539062 0.800781 25.734375 0 24.753906 0 L 5.148438 0 C 4.167969 0 3.363281 0.800781 3.363281 1.78125 L 3.363281 29.710938 C 3.363281 30.691406 4.167969 31.492188 5.148438 31.492188 Z M 5.148438 31.492188 " fill-opacity="1" fill-rule="nonzero"/></g><g clip-path="url(#2736709468)"><path fill="#ba0cdf" d="M 34.203125 24.480469 C 33.757812 24.035156 33.132812 23.765625 32.511719 23.765625 C 32.0625 23.765625 31.648438 23.886719 31.292969 24.09375 L 30.371094 23.171875 C 33.757812 19.222656 33.578125 13.25 29.804688 9.507812 C 27.90625 7.605469 25.351562 6.535156 22.675781 6.535156 C 19.972656 6.535156 17.449219 7.574219 15.546875 9.507812 C 11.59375 13.429688 11.59375 19.84375 15.546875 23.765625 C 17.449219 25.667969 20.003906 26.738281 22.675781 26.738281 C 25.230469 26.738281 27.667969 25.789062 29.539062 24.035156 L 30.429688 24.925781 C 30.222656 25.28125 30.101562 25.726562 30.101562 26.144531 C 30.101562 26.796875 30.339844 27.390625 30.816406 27.835938 L 37.292969 34.3125 C 37.738281 34.757812 38.363281 35.027344 38.988281 35.027344 C 39.609375 35.027344 40.234375 34.789062 40.679688 34.3125 C 41.628906 33.363281 41.628906 31.847656 40.679688 30.898438 Z M 28.972656 22.933594 C 27.25 24.6875 24.964844 25.550781 22.675781 25.550781 C 20.386719 25.550781 18.101562 24.6875 16.378906 22.933594 C 12.902344 19.460938 12.902344 13.816406 16.378906 10.339844 C 18.101562 8.585938 20.386719 7.722656 22.675781 7.722656 C 24.964844 7.722656 27.25 8.585938 28.972656 10.339844 C 32.449219 13.816406 32.449219 19.460938 28.972656 22.933594 Z M 39.847656 33.511719 C 39.609375 33.75 39.285156 33.867188 38.988281 33.867188 C 38.660156 33.867188 38.363281 33.75 38.125 33.511719 L 31.648438 27.035156 C 31.171875 26.558594 31.171875 25.789062 31.648438 25.3125 C 31.886719 25.074219 32.210938 24.957031 32.511719 24.957031 C 32.835938 24.957031 33.132812 25.074219 33.371094 25.3125 L 39.847656 31.789062 C 40.324219 32.265625 40.324219 33.035156 39.847656 33.511719 Z M 39.847656 33.511719 " fill-opacity="1" fill-rule="nonzero"/></g><path fill="#ba0cdf" d="M 25.351562 10.101562 L 18.546875 10.101562 C 18.070312 10.398438 17.625 10.753906 17.210938 11.171875 C 17.179688 11.199219 17.148438 11.257812 17.089844 11.289062 L 25.351562 11.289062 L 25.351562 12.476562 L 16.167969 12.476562 C 15.933594 12.863281 15.722656 13.25 15.546875 13.667969 L 25.351562 13.667969 L 25.351562 14.855469 L 15.160156 14.855469 C 15.070312 15.242188 15.011719 15.628906 14.980469 16.042969 L 25.351562 16.042969 L 25.351562 17.230469 L 14.980469 17.230469 C 15.011719 17.648438 15.070312 18.035156 15.160156 18.417969 L 25.351562 18.417969 L 25.351562 19.609375 L 15.546875 19.609375 C 15.722656 20.023438 15.933594 20.410156 16.167969 20.796875 L 25.351562 20.796875 L 25.351562 21.984375 L 17.121094 21.984375 C 17.148438 22.015625 17.179688 22.074219 17.238281 22.105469 C 17.65625 22.519531 18.101562 22.875 18.578125 23.171875 L 25.351562 23.171875 L 25.351562 23.886719 C 25.765625 23.738281 26.152344 23.558594 26.539062 23.320312 L 26.539062 9.953125 C 26.152344 9.746094 25.765625 9.535156 25.351562 9.386719 Z M 25.351562 10.101562 " fill-opacity="1" fill-rule="nonzero"/></svg>