<svg xmlns="http://www.w3.org/2000/svg" xmlns:xlink="http://www.w3.org/1999/xlink" width="60" zoomAndPan="magnify" viewBox="0 0 45 36.000001" height="48" preserveAspectRatio="xMidYMid meet" version="1.0"><defs><clipPath id="9454b449d9"><path d="M 4.988281 0.0390625 L 40.011719 0.0390625 L 40.011719 34.96875 L 4.988281 34.96875 Z M 4.988281 0.0390625 " clip-rule="nonzero"/></clipPath></defs><g clip-path="url(#9454b449d9)"><path fill="#ffc529" d="M 38.445312 31.800781 L 36.84375 33.40625 C 36.566406 33.671875 36.128906 33.671875 35.851562 33.40625 L 29.160156 26.710938 C 28.890625 26.4375 28.890625 25.996094 29.160156 25.722656 L 30.769531 24.117188 C 31.039062 23.84375 31.484375 23.84375 31.757812 24.117188 L 38.445312 30.8125 C 38.71875 31.085938 38.71875 31.527344 38.445312 31.800781 Z M 28.355469 22.441406 L 29.4375 23.519531 L 28.570312 24.390625 L 27.492188 23.316406 C 27.796875 23.039062 28.085938 22.746094 28.355469 22.441406 Z M 6.375 13.496094 C 6.375 10.304688 7.640625 7.242188 9.898438 4.988281 C 12.15625 2.730469 15.214844 1.464844 18.40625 1.464844 C 21.597656 1.464844 24.65625 2.730469 26.914062 4.988281 C 29.171875 7.246094 30.4375 10.304688 30.4375 13.496094 C 30.4375 16.6875 29.171875 19.746094 26.914062 22 C 24.65625 24.257812 21.597656 25.527344 18.40625 25.527344 C 15.214844 25.527344 12.152344 24.257812 9.898438 22 C 7.640625 19.746094 6.375 16.6875 6.375 13.496094 Z M 39.410156 29.847656 L 32.722656 23.152344 C 32.441406 22.871094 32.082031 22.679688 31.695312 22.59375 C 31.304688 22.511719 30.898438 22.542969 30.53125 22.691406 L 29.21875 21.375 C 31.21875 18.640625 32.113281 15.253906 31.71875 11.894531 C 31.324219 8.53125 29.675781 5.441406 27.097656 3.246094 C 24.519531 1.050781 21.210938 -0.0898438 17.828125 0.0546875 C 14.441406 0.199219 11.238281 1.617188 8.859375 4.023438 C 6.480469 6.433594 5.097656 9.652344 4.992188 13.035156 C 4.886719 16.417969 6.066406 19.71875 8.292969 22.265625 C 10.515625 24.820312 13.625 26.433594 16.992188 26.789062 C 20.359375 27.144531 23.734375 26.214844 26.441406 24.183594 L 27.722656 25.484375 C 27.582031 25.855469 27.550781 26.261719 27.632812 26.648438 C 27.714844 27.039062 27.90625 27.390625 28.1875 27.675781 L 34.890625 34.363281 C 35.273438 34.753906 35.804688 34.96875 36.351562 34.96875 C 36.898438 34.96875 37.421875 34.753906 37.808594 34.363281 L 39.414062 32.757812 C 39.800781 32.375 40.011719 31.847656 40.011719 31.300781 C 40.011719 30.753906 39.796875 30.230469 39.40625 29.847656 L 39.410156 29.847656 " fill-opacity="1" fill-rule="nonzero"/></g><path fill="#ffc529" d="M 18.371094 19.394531 C 14.046875 19.394531 10.292969 14.933594 9.25 13.578125 C 10.292969 12.222656 14.035156 7.765625 18.371094 7.765625 C 22.707031 7.765625 26.453125 12.222656 27.492188 13.578125 C 26.453125 14.957031 22.707031 19.394531 18.371094 19.394531 Z M 28.902344 13.195312 C 28.710938 12.917969 24.167969 6.398438 18.371094 6.398438 C 12.570312 6.398438 8.03125 12.917969 7.84375 13.195312 C 7.683594 13.425781 7.683594 13.730469 7.84375 13.964844 C 8.03125 14.246094 12.578125 20.757812 18.371094 20.757812 C 24.167969 20.757812 28.710938 14.246094 28.902344 13.964844 C 29.0625 13.730469 29.0625 13.425781 28.902344 13.195312 " fill-opacity="1" fill-rule="nonzero"/><path fill="#ffc529" d="M 18.371094 16.015625 C 17.726562 16.015625 17.105469 15.757812 16.652344 15.296875 C 16.195312 14.84375 15.933594 14.226562 15.933594 13.578125 C 15.933594 12.933594 16.195312 12.3125 16.652344 11.855469 C 17.105469 11.402344 17.726562 11.144531 18.371094 11.144531 C 19.015625 11.144531 19.636719 11.402344 20.09375 11.855469 C 20.546875 12.3125 20.804688 12.933594 20.804688 13.578125 C 20.804688 14.226562 20.546875 14.84375 20.09375 15.296875 C 19.636719 15.757812 19.015625 16.015625 18.371094 16.015625 Z M 18.371094 9.785156 C 17.363281 9.785156 16.398438 10.1875 15.683594 10.898438 C 14.972656 11.609375 14.574219 12.578125 14.574219 13.585938 C 14.574219 14.59375 14.976562 15.558594 15.6875 16.269531 C 16.398438 16.980469 17.367188 17.382812 18.375 17.378906 C 19.382812 17.378906 20.347656 16.976562 21.058594 16.265625 C 21.773438 15.554688 22.171875 14.585938 22.171875 13.578125 C 22.167969 12.570312 21.765625 11.609375 21.054688 10.894531 C 20.34375 10.183594 19.378906 9.785156 18.371094 9.785156 " fill-opacity="1" fill-rule="nonzero"/></svg>