<svg xmlns="http://www.w3.org/2000/svg" width="64.533" height="64.533" viewBox="0 0 64.533 64.533">
  <path id="all-category-backlinks" d="M35.395,12.163V30.232a5.163,5.163,0,0,1-5.163,5.163H12.163A5.163,5.163,0,0,1,7,30.232V12.163A5.163,5.163,0,0,1,12.163,7H30.232A5.163,5.163,0,0,1,35.395,12.163ZM66.371,7H48.3a5.163,5.163,0,0,0-5.163,5.163V30.232A5.163,5.163,0,0,0,48.3,35.395H66.371a5.163,5.163,0,0,0,5.163-5.163V12.163A5.163,5.163,0,0,0,66.371,7ZM30.232,43.139H12.163A5.163,5.163,0,0,0,7,48.3V66.371a5.163,5.163,0,0,0,5.163,5.163H30.232a5.163,5.163,0,0,0,5.163-5.163V48.3A5.163,5.163,0,0,0,30.232,43.139Zm27.1,0a14.2,14.2,0,1,0,14.2,14.2,14.2,14.2,0,0,0-14.2-14.2Z" transform="translate(-7 -7)" fill="#fff"/>
</svg>
