<svg xmlns="http://www.w3.org/2000/svg" xmlns:xlink="http://www.w3.org/1999/xlink" width="121" height="122" viewBox="0 0 121 122">
  <defs>
    <filter id="Ellipse_1620" x="0" y="0" width="121" height="122" filterUnits="userSpaceOnUse">
      <feOffset dy="3" input="SourceAlpha"/>
      <feGaussianBlur stdDeviation="3" result="blur"/>
      <feFlood flood-opacity="0.161"/>
      <feComposite operator="in" in2="blur"/>
      <feComposite in="SourceGraphic"/>
    </filter>
  </defs>
  <g id="brand-awareness" transform="translate(-836 -15814.479)">
    <g transform="matrix(1, 0, 0, 1, 836, 15814.48)" filter="url(#Ellipse_1620)">
      <ellipse id="Ellipse_1620-2" data-name="Ellipse 1620" cx="51.5" cy="52" rx="51.5" ry="52" transform="translate(9 6)" fill="#eef8f7"/>
    </g>
    <g id="Support_Queries" data-name="Support Queries" transform="translate(871.138 15840.158)">
      <path id="Path_392" data-name="Path 392" d="M76.681,25.836A2.421,2.421,0,0,0,74.19,23.5a4.3,4.3,0,0,0-4.15,4.427l.128,3.947-.667,2.7h-.018a3.11,3.11,0,0,0-2.212.908l-4.388,4.392-1.521.262a4.889,4.889,0,0,0-2.617,1.353l-3.023,3.023A4.85,4.85,0,0,0,54.3,47.842l-.113,5.01a3.579,3.579,0,0,0-2.451,3.354l-.07,6.561a3.58,3.58,0,0,0,3.54,3.612l10.884.116h.039A3.583,3.583,0,0,0,69.7,62.955l.07-6.56a3.576,3.576,0,0,0-2.343-3.39l.023-.153a5.179,5.179,0,0,1,1.47-2.92l5.1-5.1a8.071,8.071,0,0,0,2.319-4.851l.545-5.148a3.23,3.23,0,0,0,.06-.567v-.05a.6.6,0,0,0,0-.091ZM67.958,56.385l-.07,6.56a1.758,1.758,0,0,1-.535,1.244A1.787,1.787,0,0,1,66.1,64.7L55.214,64.58a1.772,1.772,0,0,1-1.751-1.789l.07-6.561a1.773,1.773,0,0,1,1.77-1.751h.019l10.885.117A1.779,1.779,0,0,1,67.958,56.385Zm4.783-12.822-5.106,5.106A6.978,6.978,0,0,0,65.657,52.6l-.027.187-9.636-.1.108-4.793A3.054,3.054,0,0,1,57,45.8l3.023-3.023a3.075,3.075,0,0,1,1.646-.85l1.8-.312a.856.856,0,0,0,.182-.053l.013-.006a.9.9,0,0,0,.286-.19h0l4.592-4.594a1.362,1.362,0,0,1,1.874,0,1.332,1.332,0,0,1,0,1.874l-5.274,5.274a.9.9,0,1,0,1.276,1.276l5.274-5.275a3.128,3.128,0,0,0-.467-4.809l.721-2.916v-.03a.774.774,0,0,0,.014-.091.842.842,0,0,0,.006-.091c0-.01,0-.019,0-.029l-.133-4.071a2.5,2.5,0,0,1,2.4-2.566.645.645,0,0,1,.454.182.606.606,0,0,1,.182.411l.262,8.223-.062.583c0,.019-.005.039-.006.058l-.531,5.034A6.273,6.273,0,0,1,72.741,43.563Z" transform="translate(-24.377 -12.376)" fill="#011150"/>
      <ellipse id="Ellipse_26" data-name="Ellipse 26" cx="1.544" cy="1.544" rx="1.544" ry="1.544" transform="translate(39.877 43.292)" fill="#011150"/>
      <path id="Path_393" data-name="Path 393" d="M29.057,52.857l-.113-5.011a4.851,4.851,0,0,0-1.426-3.329l-3.023-3.023a4.891,4.891,0,0,0-2.615-1.352l-1.523-.263-4.388-4.4a3.108,3.108,0,0,0-2.212-.908h-.018l-.667-2.7.128-3.949A4.3,4.3,0,0,0,9.039,23.5a2.446,2.446,0,0,0-1.772.708,2.417,2.417,0,0,0-.708,1.634l-.264,8.295a.79.79,0,0,0,0,.1v.016a3.261,3.261,0,0,0,.062.582l.545,5.145a8.072,8.072,0,0,0,2.317,4.85l5.106,5.107A5.175,5.175,0,0,1,15.8,52.859l.023.155a3.576,3.576,0,0,0-2.343,3.39l.07,6.56A3.583,3.583,0,0,0,17.12,66.5h.038l10.885-.116a3.58,3.58,0,0,0,3.536-3.612l-.07-6.561a3.579,3.579,0,0,0-2.452-3.358ZM15.6,48.666l-5.106-5.1A6.258,6.258,0,0,1,8.7,39.8l-.53-5.041a.184.184,0,0,0-.006-.058L8.1,34.121,8.362,25.9a.608.608,0,0,1,.182-.416.624.624,0,0,1,.447-.182A2.5,2.5,0,0,1,11.4,27.872l-.133,4.071v.029a.841.841,0,0,0,.006.091.77.77,0,0,0,.014.091q0,.015,0,.03l.721,2.916a3.128,3.128,0,0,0-.467,4.809l5.274,5.274a.9.9,0,1,0,1.276-1.276l-5.274-5.274a1.331,1.331,0,0,1,0-1.874,1.362,1.362,0,0,1,1.874,0l4.594,4.6h0a.892.892,0,0,0,.286.19l.013.006a.957.957,0,0,0,.182.053l1.807.312a3.067,3.067,0,0,1,1.643.849l3.023,3.023a3.049,3.049,0,0,1,.9,2.094l.108,4.794-9.636.1-.027-.19A6.966,6.966,0,0,0,15.6,48.666ZM28.025,64.579,17.141,64.7a1.778,1.778,0,0,1-1.789-1.75l-.07-6.561a1.778,1.778,0,0,1,1.75-1.789l10.885-.117h.019a1.773,1.773,0,0,1,1.77,1.751l.07,6.561a1.771,1.771,0,0,1-1.75,1.788Z" transform="translate(-6.295 -12.375)" fill="#011150"/>
      <ellipse id="Ellipse_27" data-name="Ellipse 27" cx="1.544" cy="1.544" rx="1.544" ry="1.544" transform="translate(9.602 43.292)" fill="#011150"/>
      <path id="Path_394" data-name="Path 394" d="M28.562,22.125h1.695a10.581,10.581,0,0,0,.872,2.108l-1.2,1.2a1.906,1.906,0,0,0,0,2.686L31.614,29.8a1.906,1.906,0,0,0,2.685,0l1.2-1.2a10.584,10.584,0,0,0,2.108.872v1.695a1.906,1.906,0,0,0,1.9,1.9h2.372a1.906,1.906,0,0,0,1.9-1.9V29.476a10.635,10.635,0,0,0,2.107-.872l1.2,1.2a1.906,1.906,0,0,0,2.686,0l1.685-1.685a1.906,1.906,0,0,0,0-2.686l-1.2-1.2a10.636,10.636,0,0,0,.872-2.108h1.695a1.906,1.906,0,0,0,1.9-1.9V17.848a1.906,1.906,0,0,0-1.9-1.9H51.137a10.58,10.58,0,0,0-.872-2.108l1.2-1.2a1.906,1.906,0,0,0,0-2.686L49.78,8.268a1.947,1.947,0,0,0-2.686,0l-1.2,1.2a10.6,10.6,0,0,0-2.108-.872V6.9a1.906,1.906,0,0,0-1.9-1.9H39.509a1.906,1.906,0,0,0-1.9,1.9V8.6a10.6,10.6,0,0,0-2.108.872l-1.2-1.2a1.946,1.946,0,0,0-2.687,0L29.928,9.953a1.906,1.906,0,0,0,0,2.686l1.2,1.2a10.638,10.638,0,0,0-.872,2.108H28.562a1.906,1.906,0,0,0-1.9,1.9v2.376A1.906,1.906,0,0,0,28.562,22.125Zm-.1-4.277a.091.091,0,0,1,.1-.1h2.392a.891.891,0,0,0,.266-.045l.044-.014a.879.879,0,0,0,.227-.125l.036-.03a.908.908,0,0,0,.182-.2c.005-.008.009-.017.015-.026a.891.891,0,0,0,.106-.258.019.019,0,0,1,0-.012,8.819,8.819,0,0,1,1.187-2.866.877.877,0,0,0,.068-.134c0-.006.007-.013.01-.019a.892.892,0,0,0,.062-.319v-.021a.9.9,0,0,0-.062-.318.028.028,0,0,0-.006-.021.891.891,0,0,0-.19-.286v-.006l-.007-.007h0L31.2,11.364a.1.1,0,0,1,0-.135l1.685-1.685a.108.108,0,0,1,.135,0l1.69,1.69a.014.014,0,0,1,.012.008.9.9,0,0,0,.261.173.553.553,0,0,0,.064.025.9.9,0,0,0,.3.058h0a.894.894,0,0,0,.3-.059.744.744,0,0,0,.083-.037.86.86,0,0,0,.1-.047A8.806,8.806,0,0,1,38.7,10.168c.021,0,.04-.014.06-.02a.9.9,0,0,0,.105-.034c.026-.012.051-.027.075-.041a.866.866,0,0,0,.076-.044c.025-.018.049-.04.073-.06a.727.727,0,0,0,.06-.052c.018-.019.039-.047.058-.071a.8.8,0,0,0,.051-.065.875.875,0,0,0,.042-.077.831.831,0,0,0,.039-.076q.017-.045.029-.091c.007-.025.016-.049.022-.075a.875.875,0,0,0,.012-.12c0-.018.005-.035.005-.054V6.9a.091.091,0,0,1,.1-.1h2.375a.091.091,0,0,1,.1.1V9.289a.179.179,0,0,0,.005.054.887.887,0,0,0,.012.12.682.682,0,0,0,.021.074.867.867,0,0,0,.029.091c.012.027.025.051.038.075s.027.053.042.078.033.043.051.064a.838.838,0,0,0,.059.071c.019.019.04.034.06.052a.884.884,0,0,0,.074.06.734.734,0,0,0,.076.044c.025.014.049.029.076.042a.888.888,0,0,0,.1.034c.021.006.039.015.06.02a8.806,8.806,0,0,1,2.866,1.188.917.917,0,0,0,.1.046.853.853,0,0,0,.083.037.894.894,0,0,0,.3.059h0a.9.9,0,0,0,.3-.058l.064-.025a.876.876,0,0,0,.261-.173.014.014,0,0,0,.012-.008l1.691-1.69a.108.108,0,0,1,.134,0l1.685,1.685a.1.1,0,0,1,0,.134l-1.681,1.681h0l-.007.007v.006a.891.891,0,0,0-.19.286.028.028,0,0,1-.006.021.9.9,0,0,0-.062.318V13.7a.908.908,0,0,0,.062.319c0,.006.006.013.01.019a.879.879,0,0,0,.068.134,8.819,8.819,0,0,1,1.187,2.866.019.019,0,0,0,0,.012.893.893,0,0,0,.106.257c.005.009.009.018.015.026a.884.884,0,0,0,.177.2c.013.01.024.021.037.031a.883.883,0,0,0,.226.125l.044.014a.888.888,0,0,0,.266.045h2.388a.091.091,0,0,1,.1.1V20.22a.091.091,0,0,1-.1.1H50.411a.86.86,0,0,0-.143.015.181.181,0,0,0-.036.01.888.888,0,0,0-.133.041c-.014.005-.025.014-.038.019a.93.93,0,0,0-.115.063c-.014.009-.025.02-.037.029a.817.817,0,0,0-.1.079c-.014.014-.025.029-.037.044a.861.861,0,0,0-.073.091c-.015.022-.026.046-.04.07a.558.558,0,0,0-.078.183c-.006.021-.015.041-.021.064a8.819,8.819,0,0,1-1.187,2.866.877.877,0,0,0-.068.134c0,.006-.007.013-.01.019a.891.891,0,0,0-.062.319v.021a.9.9,0,0,0,.062.318.028.028,0,0,0,.006.021.891.891,0,0,0,.19.286v.006l.007.007h0L50.184,26.7a.1.1,0,0,1,0,.134L48.5,28.52a.1.1,0,0,1-.136,0l-1.68-1.68h0l-.005-.005h0a.893.893,0,0,0-.287-.191l-.023-.007a.908.908,0,0,0-.314-.062h-.025a.888.888,0,0,0-.316.062l-.02.01a.879.879,0,0,0-.134.068A8.837,8.837,0,0,1,42.688,27.9a.188.188,0,0,0-.053.017.867.867,0,0,0-.112.036.683.683,0,0,0-.072.039c-.024.014-.054.028-.08.045a.809.809,0,0,0-.07.058c-.021.018-.044.034-.063.054s-.038.045-.056.068a.808.808,0,0,0-.053.067.832.832,0,0,0-.041.075.733.733,0,0,0-.04.078.945.945,0,0,0-.028.091.784.784,0,0,0-.022.075.876.876,0,0,0-.012.12c0,.018-.005.035-.005.054v2.387a.091.091,0,0,1-.1.1H39.511a.091.091,0,0,1-.1-.1V28.785a.182.182,0,0,0-.005-.054.859.859,0,0,0-.012-.119c-.005-.026-.015-.051-.023-.077a.922.922,0,0,0-.028-.091c-.012-.027-.026-.053-.04-.079s-.025-.051-.041-.075a.758.758,0,0,0-.053-.068,1.181,1.181,0,0,0-.19-.18c-.025-.017-.054-.031-.081-.046s-.046-.027-.072-.039a1.028,1.028,0,0,0-.113-.037c-.018-.005-.035-.014-.053-.017a8.838,8.838,0,0,1-2.867-1.187.866.866,0,0,0-.135-.069l-.017-.009a.882.882,0,0,0-.32-.062h-.021a.919.919,0,0,0-.316.062l-.023.007a.9.9,0,0,0-.286.19h-.006l-.006.006h0l-1.681,1.681a.1.1,0,0,1-.135,0l-1.685-1.685a.1.1,0,0,1,0-.134l1.681-1.681h0l.007-.007v-.006a.891.891,0,0,0,.19-.286.028.028,0,0,1,.006-.021.9.9,0,0,0,.062-.318v-.021a.908.908,0,0,0-.062-.319c0-.006-.006-.013-.01-.019a.878.878,0,0,0-.068-.134,8.819,8.819,0,0,1-1.187-2.866c-.005-.024-.015-.044-.023-.067a.858.858,0,0,0-.032-.1.933.933,0,0,0-.053-.1c-.01-.018-.019-.036-.031-.054A.889.889,0,0,0,31.6,20.6c-.007-.008-.014-.017-.021-.025a.908.908,0,0,0-.115-.091c-.006,0-.012-.01-.018-.015a.9.9,0,0,0-.134-.073l-.019-.01a.941.941,0,0,0-.145-.045l-.025-.007a.908.908,0,0,0-.147-.015H28.562a.091.091,0,0,1-.1-.1Z" transform="translate(-14.414 -5)" fill="#011150"/>
      <path id="Path_395" data-name="Path 395" d="M47.409,29.657A3.909,3.909,0,1,0,43.5,25.748,3.909,3.909,0,0,0,47.409,29.657Zm0-6.014A2.105,2.105,0,1,1,45.3,25.748,2.105,2.105,0,0,1,47.409,23.643Z" transform="translate(-21.126 -11.712)" fill="#011150"/>
      <path id="Path_396" data-name="Path 396" d="M45.018,30.873A7.518,7.518,0,1,0,37.5,23.356a7.518,7.518,0,0,0,7.518,7.517Zm0-13.231A5.713,5.713,0,1,1,39.3,23.356,5.713,5.713,0,0,1,45.018,17.643Z" transform="translate(-18.734 -9.32)" fill="#011150"/>
    </g>
  </g>
</svg>
