<svg xmlns="http://www.w3.org/2000/svg" width="69" height="66.895" viewBox="0 0 69 66.895">
  <g id="country-backlinks" transform="translate(0 -7.801)">
    <path id="Path_72907" data-name="Path 72907" d="M42.144,313.773a23.615,23.615,0,0,0,7.117-6.555,5.62,5.62,0,0,0,1.035-3.025,2.879,2.879,0,0,0-1.191-2.2,9.931,9.931,0,0,0-4.073-1.685c-.737.974-1.5,1.955-2.257,2.923l-.046.054-.015.019-.027.038-.046.054-.027.038-.015.019-.042.054-.046.058-.042.054-.042.058-.015.019-.031.034-.042.058-.031.035-.015.019-.042.054-.042.058-.038.046-.019.023v0l-.019.023-.019.023-.019.023-.015.027h0l-.015.023-.019.023-.019.023-.019.027-.019.023-.019.023,0,.008-.035.042-.038.046v0l-.019.023-.019.023-.038.05-.019.023-.019.027-.019.023-.019.027-.019.023-.019.027h0l-.019.023v0l-.019.023-.019.027-.019.023-.019.027h0l-.019.027-.019.023-.019.027-.019.027h0l-.019.027-.019.023v0l-.023.023v0l-.019.023v0l-.019.023,0,0-.019.023v0l-.019.023,0,0-.019.023v0l-.023.027-.019.027-.023.027-.023.027v0l-.019.027h0l-.019.027-.023.027v0l-.046.054v0l-.019.027h0l-.019.031h0l-.019.027,0,0-.019.027h0l-.023.031-.046.061-.023.031-.023.031-.027.031-.023.031a2.979,2.979,0,0,1-4.714,0c-.519-.664-.912-1.168-1.314-1.676a87.268,87.268,0,0,1-5.971-8.2c-.729,1.05-1.414,2.136-2.063,3.251-.966,1.662-1.845,3.361-2.655,5.1a1.129,1.129,0,0,1-.558.55,33.608,33.608,0,0,0,13.688,14.811,17.031,17.031,0,0,1,1.949-3.221,8.916,8.916,0,0,1,2.877-2.473Z" transform="translate(-20.446 -249.154)" fill="#fff"/>
    <path id="Path_72908" data-name="Path 72908" d="M8.5,35.45a16.744,16.744,0,0,0,3.034.031c.119-.333.252-.658.4-.978.129-.283.267-.558.416-.829a11.586,11.586,0,0,1,1.391-2.005c.054-.065.111-.129.168-.2l.011-.011.011-.015.027-.027.011-.015,0,0,.008-.008.015-.015L14,31.368v0l.027-.027.023-.027.011-.011a10.566,10.566,0,0,1,2.2-1.8,11.051,11.051,0,0,1,2.486-1.127,18.425,18.425,0,0,1,3.03-3,23.122,23.122,0,0,1,5.2-3.03A35.671,35.671,0,0,0,36.794,16.3a55.593,55.593,0,0,0,7.082-7.9,33.08,33.08,0,0,0-6.308-.6A33.464,33.464,0,0,0,4.76,34.694a.563.563,0,0,1,.119.027A19.87,19.87,0,0,0,8.5,35.45Z" transform="translate(-4.119)" fill="#fff"/>
    <path id="Path_72909" data-name="Path 72909" d="M169.419,65.893a70.637,70.637,0,0,1-1.524-8.233,19.906,19.906,0,0,0-.543-3.519,9.091,9.091,0,0,0-1.57,2.044c-.879,1.3-1.768,2.624-2.838,3.025-1.765.658-6.184-1.41-9.295-4.225a15.114,15.114,0,0,1-2.509-2.853,6.313,6.313,0,0,1-1.146-3.24,4.13,4.13,0,0,1,2.486-3.825,6.211,6.211,0,0,1,1.051-.416c1.031-.34,2.521-.833,2.5-3.021-.027-2.644,1.685-4.358,4.1-5.57a29.687,29.687,0,0,1,6.017-2.009,13.391,13.391,0,0,1-.741-5.7,12.557,12.557,0,0,1,3.09-7.292c.146-.16.294-.317.443-.466a33.389,33.389,0,0,0-9.872-4.458,1.166,1.166,0,0,1-.2.42,60.3,60.3,0,0,1-7.709,8.652,37.863,37.863,0,0,1-10.421,6.413,20.968,20.968,0,0,0-4.691,2.738c-.3.233-.577.466-.837.7a11.179,11.179,0,0,1,7.35,2.8,10.352,10.352,0,0,1,.825.825A12.584,12.584,0,0,1,146.471,46a13.017,13.017,0,0,1-1.749,7.812c-.5.829-1.077,1.7-1.707,2.594a11.054,11.054,0,0,1,4.046,1.891,5.042,5.042,0,0,1,2.032,3.9,7.8,7.8,0,0,1-1.379,4.29,26.029,26.029,0,0,1-7.873,7.288l-.081.046a6.915,6.915,0,0,0-2.193,1.883,14.7,14.7,0,0,0-1.712,2.842l-.015.027a33.479,33.479,0,0,0,36.1-4.489,1.153,1.153,0,0,1-.218-.379c-.863-2.535-1.645-5.132-2.3-7.81Z" transform="translate(-116.988 -7.216)" fill="#fff"/>
    <path id="Path_72910" data-name="Path 72910" d="M7.361,231.246a13.323,13.323,0,0,1-.664-5.474c.031-.336.073-.664.127-1a18.589,18.589,0,0,1-2.663-.081,21.473,21.473,0,0,1-3.885-.764A34.39,34.39,0,0,0,0,228.252a33.361,33.361,0,0,0,2.139,11.793c.718-1.482,1.478-2.93,2.3-4.329a48.644,48.644,0,0,1,2.926-4.47Z" transform="translate(0 -187.003)" fill="#fff"/>
    <path id="Path_72911" data-name="Path 72911" d="M290.748,171.741l-.042.05-.038.054-.023.027-.019.027-.042.05-.038.054h0l-.038.05-.042.054-.019.027-.019.023-.042.054-.042.054-.038.05-.042.054-.019.027-.023.023-.038.054-.042.05-.038.054-.042.05-.019.027-.019.023-.042.054-.042.05-.019.027-.015.023-.019.023-.038.05-.019.023-.019.023-.019.023-.019.027-.019.023-.019.023-.019.023-.019.027-.019.023-.015.023h0l-.015.027h0l-.015.023h0l-.015.023h0l-.015.027h0l-.015.023h0l-.031.042,0,.008h-.015l-.019.023v0l-.019.023-.019.023-.019.027-.019.023v0l-.038.046v0l-.019.023h0l-.019.027-.019.023v0l-.019.023-.019.027h0l-.019.027-.019.023v0l-.019.023,0,0-.019.023-.019.027-.023.027-.019.027-.023.027-.019.027-.023.027-.019.027v0l-.023.023v0l-.019.027h0l-.019.027-.023.027v0l-.023.027-.019.027h0l-.019.031-.023.027-.023.031-.023.027v0l-.023.027-.046.061-.023.027v0l-.023.027h0l-.023.031-.023.031-.023.031-.027.034a2.994,2.994,0,0,1-2.357,1.154h-.019l-.019,0h-.111l-.008,0h-.058l-.019,0h-.027c-.019,0-.038,0-.061-.008h-.011l-.019,0H285.9l-.012,0h-.008l-.015,0h-.023l-.019,0-.019,0-.019,0h-.019l0,0h-.015l-.008,0h-.011l-.008,0h-.011l-.011,0-.038-.008h-.008l-.015,0-.019,0-.019,0h0l-.015,0,0,0-.015,0h0l-.015,0h-.008l-.011,0-.008,0H285.5l-.008,0-.023-.008h0l-.015,0h0l-.015-.008h0l-.019,0-.019-.008-.015,0h0l-.015-.008h0l-.015,0-.008,0-.012,0h-.008l-.011,0-.015-.008-.011,0-.008,0-.011,0h-.008l-.015-.008h0l-.015-.008-.019-.008-.019-.008-.015,0,0,0-.015,0,0,0-.015,0,0,0-.012,0-.011,0-.008,0-.011,0-.008,0-.106-.046a3.009,3.009,0,0,1-1.047-.856c-.519-.668-.912-1.168-1.31-1.676a87.075,87.075,0,0,1-5.971-8.2l-.031-.046a29.668,29.668,0,0,0-5.994,1.941c-1.681.841-2.873,1.951-2.857,3.538.038,3.839-2.376,4.633-4.046,5.184a5.245,5.245,0,0,0-.681.248,2.05,2.05,0,0,0-1.31,1.8,4.123,4.123,0,0,0,.783,2.051,12.922,12.922,0,0,0,2.128,2.411c2.586,2.342,5.922,4.187,7,3.786a7.984,7.984,0,0,0,1.753-2.178c.974-1.447,1.937-2.873,3.167-3.025,1.414-.172,2.525,1.154,3.06,5.493a68.776,68.776,0,0,0,1.474,7.973c.592,2.414,1.3,4.791,2.086,7.136a33.487,33.487,0,0,0,9.363-31.439c-.589.76-1.189,1.527-1.784,2.291Z" transform="translate(-226.447 -135.608)" fill="#fff"/>
    <path id="Path_72912" data-name="Path 72912" d="M68.655,176.162a10.305,10.305,0,0,0-2.513,5.986,10.811,10.811,0,0,0,1.437,6.475,85.528,85.528,0,0,0,5.81,7.965c.5.631.989,1.253,1.322,1.685a.788.788,0,0,0,.248.214.848.848,0,0,0,.65,0,.774.774,0,0,0,.248-.214c.333-.431.825-1.054,1.322-1.689a85.826,85.826,0,0,0,5.81-7.961,10.782,10.782,0,0,0,1.433-6.459,10.35,10.35,0,0,0-2.513-6,7.984,7.984,0,0,0-.65-.65,9.139,9.139,0,0,0-11.95,0c-.225.2-.442.419-.652.648Zm6.628.2a5.986,5.986,0,1,1-4.233,1.753,5.951,5.951,0,0,1,4.233-1.753Z" transform="translate(-57.191 -143.188)" fill="#fff"/>
    <path id="Path_72913" data-name="Path 72913" d="M110.361,220.322a3.718,3.718,0,1,0-2.632-1.089A3.7,3.7,0,0,0,110.361,220.322Z" transform="translate(-92.269 -177.442)" fill="#fff"/>
    <path id="Path_72914" data-name="Path 72914" d="M419.961,82.09a3.718,3.718,0,1,0,2.632,1.089A3.718,3.718,0,0,0,419.961,82.09Z" transform="translate(-360.145 -64.278)" fill="#fff"/>
    <path id="Path_72915" data-name="Path 72915" d="M394.021,51.36a10.361,10.361,0,0,0-2.513-6,8.689,8.689,0,0,0-.65-.65,9.144,9.144,0,0,0-11.954,0,8.7,8.7,0,0,0-.65.65,10.31,10.31,0,0,0-2.517,5.986,10.838,10.838,0,0,0,1.437,6.475,86.142,86.142,0,0,0,5.814,7.961c.5.635.989,1.26,1.322,1.685a.723.723,0,0,0,.248.214h0l0,0a.889.889,0,0,0,.646,0,.674.674,0,0,0,.248-.218l1.322-1.685a86.505,86.505,0,0,0,5.814-7.961A10.788,10.788,0,0,0,394.021,51.36Zm-4.908,4.416a5.991,5.991,0,1,1,1.749-4.229,5.961,5.961,0,0,1-1.749,4.229Z" transform="translate(-325.064 -30.015)" fill="#fff"/>
  </g>
</svg>
