<svg xmlns="http://www.w3.org/2000/svg" xmlns:xlink="http://www.w3.org/1999/xlink" width="122" height="121" viewBox="0 0 122 121">
  <defs>
    <filter id="Ellipse_1624" x="0" y="0" width="122" height="121" filterUnits="userSpaceOnUse">
      <feOffset dy="5" input="SourceAlpha"/>
      <feGaussianBlur stdDeviation="3" result="blur"/>
      <feFlood flood-opacity="0.161"/>
      <feComposite operator="in" in2="blur"/>
      <feComposite in="SourceGraphic"/>
    </filter>
  </defs>
  <g id="credibility" transform="translate(-1311 -15994)">
    <g transform="matrix(1, 0, 0, 1, 1311, 15994)" filter="url(#Ellipse_1624)">
      <ellipse id="Ellipse_1624-2" data-name="Ellipse 1624" cx="52" cy="51.5" rx="52" ry="51.5" transform="translate(9 4)" fill="#eef8f7"/>
    </g>
    <path id="Path_72879" data-name="Path 72879" d="M10.13,34.99a.748.748,0,0,0-.095.142c-.014.022-.037.035-.049.058L2.08,51.128a.761.761,0,0,0,1.02,1.02l15.938-7.906c.025-.013.04-.038.063-.053a.725.725,0,0,0,.137-.091l8.5-8.5,2.532,2.532A11.177,11.177,0,0,0,45.636,51.237a.761.761,0,0,0,.225-1.232l-4.116-4.117a2.927,2.927,0,0,1-.85-2.342,2.934,2.934,0,0,1,5-1.806l4.116,4.116a.761.761,0,0,0,1.232-.225,11.169,11.169,0,0,0-13.12-15.362l-2.527-2.528,7.35-7.35,7.521-7.521a3.3,3.3,0,0,0,.3-4.628l-4.78-4.78a3.3,3.3,0,0,0-4.628.3l-7.521,7.521-7.35,7.35-2.53-2.53A11.166,11.166,0,0,0,8.588,2.99a.761.761,0,0,0-.225,1.232l4.116,4.117a2.933,2.933,0,1,1-4.148,4.148L4.215,8.37A.761.761,0,0,0,2.983,8.6,11.145,11.145,0,0,0,16.088,23.957l2.537,2.538Zm16.88-14.727c.005-.005.013-.007.018-.012s.007-.013.012-.018l3.93-3.93,2.94,2.94L14.683,38.468l-2.94-2.94Zm10.915,3L33.98,27.2h0L27.2,33.982h0v0l-8.5,8.5-2.94-2.94L34.985,20.319ZM11.966,46.051a8.358,8.358,0,0,0-3.789-3.788l2.7-5.447,3.267,3.267,3.267,3.267ZM7.5,43.626a6.847,6.847,0,0,1,3.1,3.1L4.447,49.78ZM37.358,31.658a.708.708,0,0,0,.09.059.741.741,0,0,0,.136.09,1.531,1.531,0,0,0,.283.067c.01,0,.019.006.029.006A.77.77,0,0,0,38,31.86a.71.71,0,0,0,.124-.014,9.652,9.652,0,0,1,12.127,12.1L46.97,40.665a4.455,4.455,0,1,0-6.3,6.3l3.287,3.287a9.647,9.647,0,0,1-12.11-12.111c.007-.022,0-.045.007-.067a.748.748,0,0,0,.023-.212.772.772,0,0,0-.017-.085.737.737,0,0,0-.058-.2.752.752,0,0,0-.051-.076.726.726,0,0,0-.089-.134l-2.848-2.848,5.7-5.7ZM39,22.183l-3.476-3.476v0h0l-3.476-3.476L34.374,12.9l3.478,3.478,3.478,3.478ZM42.433,4.84a1.792,1.792,0,0,1,2.475-.3l4.78,4.78a1.792,1.792,0,0,1-.3,2.475l-6.983,6.983L38.928,15.3,35.45,11.822ZM16.853,22.569a.7.7,0,0,0-.073-.049.742.742,0,0,0-.154-.1,1.522,1.522,0,0,0-.28-.066.745.745,0,0,0-.141.015.718.718,0,0,0-.119.013,9.649,9.649,0,0,1-12.116-12.1l3.286,3.286a4.455,4.455,0,1,0,6.3-6.3L10.268,3.975A9.65,9.65,0,0,1,22.379,16.1a.714.714,0,0,0-.009.086.746.746,0,0,0-.02.184.722.722,0,0,0,.024.122.735.735,0,0,0,.046.157.748.748,0,0,0,.08.12.72.72,0,0,0,.065.1L25.41,19.71,19.7,25.418Z" transform="translate(1342.873 16023.578)" fill="#010e51"/>
  </g>
</svg>
