<svg xmlns="http://www.w3.org/2000/svg" xmlns:xlink="http://www.w3.org/1999/xlink" width="121" height="122" viewBox="0 0 121 122">
  <defs>
    <filter id="link-building" x="0" y="0" width="121" height="122" filterUnits="userSpaceOnUse">
      <feOffset dy="3" input="SourceAlpha"/>
      <feGaussianBlur stdDeviation="3" result="blur"/>
      <feFlood flood-opacity="0.161"/>
      <feComposite operator="in" in2="blur"/>
      <feComposite in="SourceGraphic"/>
    </filter>
  </defs>
  <g id="link-building-2" data-name="link-building" transform="translate(-827 -15996.896)">
    <g transform="matrix(1, 0, 0, 1, 827, 15996.9)" filter="url(#link-building)">
      <ellipse id="link-building-3" data-name="link-building" cx="51.5" cy="52" rx="51.5" ry="52" transform="translate(9 6)" fill="#eef8f7"/>
    </g>
    <path id="Path_72878" data-name="Path 72878" d="M84.824,44.284a10.534,10.534,0,0,0-14.869-.431L59.764,53.468a15.235,15.235,0,0,0-11.3,4.127l-9.153,8.636a15.271,15.271,0,0,0,20.96,22.215l9.155-8.637A15.172,15.172,0,0,0,74.21,69.144c0-.127-.008-.251-.007-.378l10.188-9.612A10.532,10.532,0,0,0,84.824,44.284Zm-16.6,34.248-9.154,8.636A13.514,13.514,0,0,1,40.517,67.51l9.153-8.637a13.536,13.536,0,0,1,8.2-3.62l-3.985,3.76a10.469,10.469,0,0,0-3.2,8.64l-4.868,4.592a6.435,6.435,0,0,0,8.832,9.361l8.277-7.811a6.388,6.388,0,0,0-2.189-10.69l5.851-5.522a13.485,13.485,0,0,1,1.635,20.948ZM53.455,73.883a10.468,10.468,0,0,0,4.006,2.651l-4.02,3.793a4.678,4.678,0,1,1-6.421-6.8l4.059-3.829A10.381,10.381,0,0,0,53.455,73.883Zm5.953-9.339a4.6,4.6,0,0,1,3.723,3.937A2.8,2.8,0,0,1,59.7,67.99a2.828,2.828,0,0,1-.774-2.034A2.78,2.78,0,0,1,59.408,64.544Zm10.645-6.323a15.265,15.265,0,0,0-2.168-1.864l6.577-6.206a2.843,2.843,0,0,1,3.9,4.136l-6.557,6.187A15.444,15.444,0,0,0,70.053,58.221ZM74.048,66.5a15.083,15.083,0,0,0-1.353-4.444l6.877-6.488a4.6,4.6,0,0,0-6.315-6.693L58.611,62.694c-.067.063-.116.139-.179.205a.881.881,0,0,0-.16.184,4.555,4.555,0,0,0,.15,6.113,4.351,4.351,0,0,0,4.552,1.253,4.624,4.624,0,0,1-1.255,2.068l-2.772,2.615a8.673,8.673,0,0,1-4.213-2.455,8.774,8.774,0,0,1,.359-12.386L71.16,45.131A8.761,8.761,0,1,1,83.186,57.876Z" transform="translate(824.724 15984.096)" fill="#010e51"/>
  </g>
</svg>
