<svg xmlns="http://www.w3.org/2000/svg" xmlns:xlink="http://www.w3.org/1999/xlink" width="122" height="121" viewBox="0 0 122 121">
  <defs>
    <filter id="Ellipse_1622" x="0" y="0" width="122" height="121" filterUnits="userSpaceOnUse">
      <feOffset dy="5" input="SourceAlpha"/>
      <feGaussianBlur stdDeviation="3" result="blur"/>
      <feFlood flood-opacity="0.161"/>
      <feComposite operator="in" in2="blur"/>
      <feComposite in="SourceGraphic"/>
    </filter>
  </defs>
  <g id="domain-search-engine-authority" transform="translate(-1311 -15634)">
    <g transform="matrix(1, 0, 0, 1, 1311, 15634)" filter="url(#Ellipse_1622)">
      <ellipse id="Ellipse_1622-2" data-name="Ellipse 1622" cx="52" cy="51.5" rx="52" ry="51.5" transform="translate(9 4)" fill="#eef8f7"/>
    </g>
    <g id="Group_41190" data-name="Group 41190" transform="translate(1344.685 15660.934)">
      <path id="Path_6617" data-name="Path 6617" d="M21.386,53h0l3.782-.011a.557.557,0,0,0,.554-.557L25.7,46.721a.555.555,0,0,0-.555-.553h0l-3.783.012a.556.556,0,0,0-.554.558l.023,5.706A.555.555,0,0,0,21.386,53Zm3.207-5.716.017,4.6-2.672.007-.019-4.6Z" transform="translate(-4.782 -20.779)" fill="#010e51"/>
      <path id="Path_6618" data-name="Path 6618" d="M50.253,33.507a.554.554,0,0,0-.162.393l.045,13.564a.555.555,0,0,0,.555.553h0l3.782-.01a.556.556,0,0,0,.554-.557l-.046-13.568a.554.554,0,0,0-.554-.553h0l-3.782.012A.555.555,0,0,0,50.253,33.507Zm3.623.936L53.917,46.9l-2.672.007L51.2,34.452Z" transform="translate(-16.006 -15.859)" fill="#010e51"/>
      <path id="Path_6619" data-name="Path 6619" d="M45.153,42.27a.555.555,0,0,0-.392-.162h0l-3.782.013a.555.555,0,0,0-.553.556l.023,8.176a.557.557,0,0,0,.556.554h0l3.782-.013a.555.555,0,0,0,.553-.556l-.023-8.176A.557.557,0,0,0,45.153,42.27Zm-3.6,8.025-.02-7.066,2.672-.009.02,7.065Z" transform="translate(-12.302 -19.222)" fill="#010e51"/>
      <path id="Path_6620" data-name="Path 6620" d="M34.908,37.611h0l-3.783.011a.556.556,0,0,0-.554.557l.035,10.974a.556.556,0,0,0,.556.554h0l3.783-.012a.555.555,0,0,0,.553-.557l-.035-10.972A.555.555,0,0,0,34.908,37.611ZM31.715,48.594l-.032-9.864,2.672-.007.032,9.862Z" transform="translate(-8.524 -17.499)" fill="#010e51"/>
      <path id="Path_6621" data-name="Path 6621" d="M22.14,30.82a.555.555,0,0,0,.382-.152l6.795-6.425,5.074,3.848a.556.556,0,0,0,.717-.039L41.4,22.082,41.309,25.5a.556.556,0,0,0,.541.569h.014a.555.555,0,0,0,.554-.541l.123-4.759c0-.012-.006-.022-.006-.034a.559.559,0,0,0-.032-.179.549.549,0,0,0-.109-.174s0-.006-.006-.009a.545.545,0,0,0-.178-.125.536.536,0,0,0-.177-.041c-.012,0-.022-.007-.034-.008l-4.757-.124a.556.556,0,0,0-.03,1.111l3.418.089-5.948,5.645-5.073-3.848a.555.555,0,0,0-.717.039l-7.134,6.748a.556.556,0,0,0,.381.959Z" transform="translate(-5.081 -10.778)" fill="#010e51"/>
      <path id="Path_6622" data-name="Path 6622" d="M26.672,48.343A21.672,21.672,0,1,0,11.348,42,21.7,21.7,0,0,0,26.672,48.343Zm0-41.57a19.9,19.9,0,1,1-19.9,19.9A19.921,19.921,0,0,1,26.672,6.773Z" transform="translate(1.277 -4.999)" fill="#010e51"/>
      <path id="Path_6623" data-name="Path 6623" d="M5.757,0,4.709,1.43,17.18,10.57a4.675,4.675,0,0,1-6.611,6.611L1.431,4.71,0,5.758,9.181,18.287l.089.1a6.449,6.449,0,0,0,9.119-9.12Z" transform="matrix(0.259, 0.966, -0.966, 0.259, 19.583, 35.913)" fill="#010e51"/>
    </g>
  </g>
</svg>
