<svg xmlns="http://www.w3.org/2000/svg" width="84" height="99.973" viewBox="0 0 84 99.973">
  <g id="edu-backlinks" transform="translate(-41 0.027)">
    <ellipse id="Ellipse_1634" data-name="Ellipse 1634" cx="17" cy="16.5" rx="17" ry="16.5" transform="translate(66 -0.028)" fill="#fff"/>
    <path id="Path_72920" data-name="Path 72920" d="M174.187,181.515a22.419,22.419,0,0,1-24.4,0A34.153,34.153,0,0,0,139.161,188l22.824,8.559L184.81,188A34.149,34.149,0,0,0,174.187,181.515Z" transform="translate(-78.985 -146.131)" fill="#fff"/>
    <path id="Path_72921" data-name="Path 72921" d="M415.884,310H413.93a2.93,2.93,0,0,0-2.93,2.93v7.814a2.93,2.93,0,0,0,2.93,2.93h1.953a6.837,6.837,0,0,0,0-13.674Z" transform="translate(-297.721 -249.516)" fill="#fff"/>
    <path id="Path_72922" data-name="Path 72922" d="M82.261,232.126A2.93,2.93,0,0,0,81,234.534v6.524h.977a8.8,8.8,0,0,1,8.791,8.791v7.814a8.8,8.8,0,0,1-8.791,8.791H81v6.174a2.93,2.93,0,0,0,1.9,2.744l29.354,11.008V242.027l-27.3-10.236a2.928,2.928,0,0,0-2.7.335Z" transform="translate(-32.186 -186.434)" fill="#fff"/>
    <path id="Path_72923" data-name="Path 72923" d="M292.488,257.662v-7.814a8.8,8.8,0,0,1,8.791-8.791h.977v-6.524a2.93,2.93,0,0,0-3.959-2.744L271,242.027v44.352l29.354-11.008a2.93,2.93,0,0,0,1.9-2.744v-6.174h-.977A8.8,8.8,0,0,1,292.488,257.662Z" transform="translate(-185.07 -186.434)" fill="#fff"/>
    <path id="Path_72924" data-name="Path 72924" d="M52.721,320.744V312.93a2.93,2.93,0,0,0-2.93-2.93H47.837a6.837,6.837,0,0,0,0,13.674h1.953A2.93,2.93,0,0,0,52.721,320.744Z" transform="translate(0 -249.516)" fill="#fff"/>
  </g>
</svg>
