<svg xmlns="http://www.w3.org/2000/svg" xmlns:xlink="http://www.w3.org/1999/xlink" width="1284.333" height="725" viewBox="0 0 1284.333 725">
  <defs>
    <clipPath id="clip-path">
      <rect width="1117.835" height="724.4" fill="none"/>
    </clipPath>
    <clipPath id="clip-path-2">
      <rect width="1284.333" height="593.233" fill="none"/>
    </clipPath>
  </defs>
  <g id="Group_40349" data-name="Group 40349" transform="translate(-372 -4349)" opacity="0.45">
    <g id="Rectangle_17506" data-name="Rectangle 17506" transform="translate(372 4349)" fill="none" stroke="#fff" stroke-width="1" opacity="0.28">
      <rect width="1283" height="725" stroke="none"/>
      <rect x="0.5" y="0.5" width="1282" height="724" fill="none"/>
    </g>
    <g id="Repeat_Grid_7" data-name="Repeat Grid 7" transform="translate(481.165 4349)" opacity="0.28" clip-path="url(#clip-path)">
      <g transform="translate(-481.165 -4349)">
        <path id="Path_34579" data-name="Path 34579" d="M13817.665,1246v761" transform="translate(-13336 3103)" fill="none" stroke="#fff" stroke-width="1"/>
      </g>
      <g transform="translate(-367.165 -4349)">
        <path id="Path_34579-2" data-name="Path 34579" d="M13817.665,1246v761" transform="translate(-13336 3103)" fill="none" stroke="#fff" stroke-width="1"/>
      </g>
      <g transform="translate(-253.165 -4349)">
        <path id="Path_34579-3" data-name="Path 34579" d="M13817.665,1246v761" transform="translate(-13336 3103)" fill="none" stroke="#fff" stroke-width="1"/>
      </g>
      <g transform="translate(-139.165 -4349)">
        <path id="Path_34579-4" data-name="Path 34579" d="M13817.665,1246v761" transform="translate(-13336 3103)" fill="none" stroke="#fff" stroke-width="1"/>
      </g>
      <g transform="translate(-25.165 -4349)">
        <path id="Path_34579-5" data-name="Path 34579" d="M13817.665,1246v761" transform="translate(-13336 3103)" fill="none" stroke="#fff" stroke-width="1"/>
      </g>
      <g transform="translate(88.835 -4349)">
        <path id="Path_34579-6" data-name="Path 34579" d="M13817.665,1246v761" transform="translate(-13336 3103)" fill="none" stroke="#fff" stroke-width="1"/>
      </g>
      <g transform="translate(202.835 -4349)">
        <path id="Path_34579-7" data-name="Path 34579" d="M13817.665,1246v761" transform="translate(-13336 3103)" fill="none" stroke="#fff" stroke-width="1"/>
      </g>
      <g transform="translate(316.835 -4349)">
        <path id="Path_34579-8" data-name="Path 34579" d="M13817.665,1246v761" transform="translate(-13336 3103)" fill="none" stroke="#fff" stroke-width="1"/>
      </g>
      <g transform="translate(430.835 -4349)">
        <path id="Path_34579-9" data-name="Path 34579" d="M13817.665,1246v761" transform="translate(-13336 3103)" fill="none" stroke="#fff" stroke-width="1"/>
      </g>
      <g transform="translate(544.835 -4349)">
        <path id="Path_34579-10" data-name="Path 34579" d="M13817.665,1246v761" transform="translate(-13336 3103)" fill="none" stroke="#fff" stroke-width="1"/>
      </g>
    </g>
    <g id="Repeat_Grid_8" data-name="Repeat Grid 8" transform="translate(372 4440.167)" opacity="0.28" clip-path="url(#clip-path-2)">
      <g transform="translate(-372 -4440.167)">
        <path id="Path_34580" data-name="Path 34580" d="M13708,1337.667h1284.333" transform="translate(-13336 3103)" fill="none" stroke="#fff" stroke-width="1"/>
      </g>
      <g transform="translate(-372 -4308.167)">
        <path id="Path_34580-2" data-name="Path 34580" d="M13708,1337.667h1284.333" transform="translate(-13336 3103)" fill="none" stroke="#fff" stroke-width="1"/>
      </g>
      <g transform="translate(-372 -4176.167)">
        <path id="Path_34580-3" data-name="Path 34580" d="M13708,1337.667h1284.333" transform="translate(-13336 3103)" fill="none" stroke="#fff" stroke-width="1"/>
      </g>
      <g transform="translate(-372 -4044.167)">
        <path id="Path_34580-4" data-name="Path 34580" d="M13708,1337.667h1284.333" transform="translate(-13336 3103)" fill="none" stroke="#fff" stroke-width="1"/>
      </g>
      <g transform="translate(-372 -3912.167)">
        <path id="Path_34580-5" data-name="Path 34580" d="M13708,1337.667h1284.333" transform="translate(-13336 3103)" fill="none" stroke="#fff" stroke-width="1"/>
      </g>
    </g>
  </g>
</svg>
