<svg xmlns="http://www.w3.org/2000/svg" width="89.426" height="71.703" viewBox="0 0 89.426 71.703">
  <g id="pr-news-backlinks" transform="matrix(0.999, -0.035, 0.035, 0.999, -0.105, -0.578)">
    <path id="Path_72916" data-name="Path 72916" d="M65.574,3.2,20.454,21.244H8.21A8.222,8.222,0,0,0,0,29.453V39.487c0,4.3,3.375,7.3,8.21,7.3h3.1l3.313,23.191a2.735,2.735,0,0,0,2.707,2.35H28.277A2.735,2.735,0,0,0,31,69.282L28.846,50.141,65.57,64.831a2.735,2.735,0,0,0,3.754-2.539V5.737A2.733,2.733,0,0,0,65.574,3.2Z" transform="translate(0 0)" fill="#fff"/>
    <path id="Path_72917" data-name="Path 72917" d="M24.449,18.17l9.122-7.3A2.739,2.739,0,0,0,30.148,6.6l-9.122,7.3a2.739,2.739,0,0,0,3.422,4.276Z" transform="translate(52.973 7.948)" fill="#fff"/>
    <path id="Path_72918" data-name="Path 72918" d="M24.449,15.1a2.739,2.739,0,1,0-3.422,4.276l9.122,7.3a2.739,2.739,0,0,0,3.422-4.276Z" transform="translate(52.973 30.462)" fill="#fff"/>
    <path id="Path_72919" data-name="Path 72919" d="M31.858,11.25H22.737a2.737,2.737,0,1,0,0,5.473h9.122a2.737,2.737,0,1,0,0-5.473Z" transform="translate(52.974 21.852)" fill="#fff"/>
  </g>
</svg>
