<svg xmlns="http://www.w3.org/2000/svg" xmlns:xlink="http://www.w3.org/1999/xlink" width="122" height="121" viewBox="0 0 122 121">
  <defs>
    <filter id="Ellipse_1623" x="0" y="0" width="122" height="121" filterUnits="userSpaceOnUse">
      <feOffset dy="5" input="SourceAlpha"/>
      <feGaussianBlur stdDeviation="3" result="blur"/>
      <feFlood flood-opacity="0.161"/>
      <feComposite operator="in" in2="blur"/>
      <feComposite in="SourceGraphic"/>
    </filter>
  </defs>
  <g id="quality-traffic" transform="translate(-1311 -15814)">
    <g transform="matrix(1, 0, 0, 1, 1311, 15814)" filter="url(#Ellipse_1623)">
      <ellipse id="Ellipse_1623-2" data-name="Ellipse 1623" cx="52" cy="51.5" rx="52" ry="51.5" transform="translate(9 4)" fill="#eef8f7"/>
    </g>
    <g id="Group_41191" data-name="Group 41191" transform="translate(1347.874 15847.353)">
      <path id="Path_6608" data-name="Path 6608" d="M9.771,49.25a.771.771,0,0,0,.545-.226l7.709-7.709a.771.771,0,1,0-1.09-1.09L9.226,47.935a.771.771,0,0,0,.545,1.316Z" transform="translate(-3.604 -10.707)" fill="#011150"/>
      <path id="Path_6609" data-name="Path 6609" d="M22.935,46.226l-7.709,7.709a.771.771,0,1,0,1.09,1.09l7.709-7.709a.771.771,0,1,0-1.09-1.09Z" transform="translate(-4.979 -12.082)" fill="#011150"/>
      <path id="Path_6610" data-name="Path 6610" d="M9.771,54.1a.771.771,0,0,0,.545-.226L21.879,42.316a.771.771,0,1,0-1.09-1.09L9.226,52.789A.771.771,0,0,0,9.771,54.1Z" transform="translate(-3.604 -10.936)" fill="#011150"/>
      <path id="Path_6611" data-name="Path 6611" d="M16.476,31.984a.771.771,0,0,0,.84-.167,7.081,7.081,0,0,1,5.017-2.087A2.307,2.307,0,0,0,23,31.272l3.8,3.794a2.308,2.308,0,0,0,1.538.672,7.075,7.075,0,0,1-2.085,5.011.771.771,0,0,0,.543,1.315,8.49,8.49,0,0,0,8.48-8.48V32.72A24.074,24.074,0,0,0,46.064,12.771.771.771,0,0,0,45.293,12,24.074,24.074,0,0,0,25.345,22.792H24.48A8.49,8.49,0,0,0,16,31.272.771.771,0,0,0,16.476,31.984Zm7.619-1.805a.771.771,0,0,1-.2-.747c.116-.385.255-.754.391-1.127l5.481,5.482c-.373.135-.744.274-1.127.39a.765.765,0,0,1-.745-.2ZM28.57,40.291a8.616,8.616,0,0,0,1.306-4.581v-.335a23.445,23.445,0,0,0,3.854-1.714A6.95,6.95,0,0,1,28.57,40.291ZM43.88,17.977l-3.793-3.793a22.029,22.029,0,0,1,4.42-.628A21.97,21.97,0,0,1,43.88,17.977Zm-5.488-3.309,5,5A22.564,22.564,0,0,1,31.309,33.156l-6.4-6.4a22.57,22.57,0,0,1,13.482-12.09ZM24.4,24.334a23.445,23.445,0,0,0-1.714,3.854h-.335a8.615,8.615,0,0,0-4.581,1.306,6.949,6.949,0,0,1,6.63-5.16Z" transform="translate(-5.208 -4.291)" fill="#011150"/>
      <path id="Path_6612" data-name="Path 6612" d="M43.083,25.167A3.083,3.083,0,1,0,40,22.083,3.083,3.083,0,0,0,43.083,25.167Zm0-4.625a1.542,1.542,0,1,1-1.542,1.542A1.542,1.542,0,0,1,43.083,20.542Z" transform="translate(-10.707 -5.895)" fill="#011150"/>
      <path id="Path_6613" data-name="Path 6613" d="M47.482,2H2.771A.771.771,0,0,0,2,2.771V47.482a.771.771,0,0,0,.771.771H47.482a.771.771,0,0,0,.771-.771V2.771A.771.771,0,0,0,47.482,2ZM3.542,3.542H46.711V6.625H3.542ZM46.711,46.711H3.542V8.167H46.711Z" transform="translate(-2 -2)" fill="#011150"/>
      <path id="Path_6614" data-name="Path 6614" d="M55.195,5.132a.438.438,0,0,0-.131-.069.469.469,0,0,0-.147-.046.79.79,0,0,0-.694.208A.807.807,0,0,0,54,5.771a.771.771,0,0,0,.062.293.89.89,0,0,0,.162.254.809.809,0,0,0,.547.224.925.925,0,0,0,.146-.015.47.47,0,0,0,.147-.046.438.438,0,0,0,.131-.069c.045-.031.085-.062.123-.093a.891.891,0,0,0,.162-.254.771.771,0,0,0,.062-.293.811.811,0,0,0-.224-.547C55.28,5.193,55.24,5.162,55.195,5.132Z" transform="translate(-13.915 -2.688)" fill="#011150"/>
      <path id="Path_6615" data-name="Path 6615" d="M58.318,5.226a.807.807,0,0,0-1.095,0,.891.891,0,0,0-.162.254A.646.646,0,0,0,57,5.774a1.044,1.044,0,0,0,.015.154.49.49,0,0,0,.046.139.429.429,0,0,0,.069.131.736.736,0,0,0,.092.123.769.769,0,0,0,1.257-.84A.89.89,0,0,0,58.318,5.226Z" transform="translate(-14.602 -2.69)" fill="#011150"/>
      <path id="Path_6616" data-name="Path 6616" d="M51.224,5.222A.807.807,0,0,0,51,5.77a.771.771,0,0,0,.062.293.89.89,0,0,0,.162.254.782.782,0,0,0,1.095,0,.891.891,0,0,0,.162-.254.77.77,0,0,0-1.257-.84Z" transform="translate(-13.227 -2.686)" fill="#011150"/>
    </g>
  </g>
</svg>
