<svg xmlns="http://www.w3.org/2000/svg" width="80.88" height="67.285" viewBox="0 0 80.88 67.285">
  <g id="scholarship-backlinks" transform="translate(-3.06 -7)">
    <g id="Group_41200" data-name="Group 41200" transform="translate(27.506 7.001)">
      <g id="Group_41199" data-name="Group 41199">
        <g id="Group_41196" data-name="Group 41196" transform="translate(7.971 21.127)">
          <g id="Group_41195" data-name="Group 41195">
            <path id="Path_72898" data-name="Path 72898" d="M40.051,27.562a5.163,5.163,0,0,1-2.208-.5L21.85,19.47V31.789a3.218,3.218,0,0,0,2.778,3.192,126.021,126.021,0,0,0,32.038,0,3.218,3.218,0,0,0,2.778-3.192V19.246L42.173,27.1a5,5,0,0,1-2.122.466Z" transform="translate(-21.85 -19.246)" fill="#fff"/>
          </g>
        </g>
        <g id="Group_41198" data-name="Group 41198">
          <g id="Group_41197" data-name="Group 41197">
            <path id="Path_72899" data-name="Path 72899" d="M69.215,34.44V23.233a3.376,3.376,0,0,0-.532-5.96l-23.7-10a3.411,3.411,0,0,0-2.7.017L19.272,17.379a3.411,3.411,0,0,0-.094,6.205l22.764,10.8a3.4,3.4,0,0,0,2.871.024L67.49,24.1V34.356a2.257,2.257,0,1,0,1.725.084Z" transform="translate(-17.229 -7.001)" fill="#fff"/>
          </g>
        </g>
      </g>
    </g>
    <g id="Group_41210" data-name="Group 41210" transform="translate(3.06 40.678)">
      <g id="Group_41203" data-name="Group 41203" transform="translate(20.785 3.871)">
        <g id="Group_41202" data-name="Group 41202" transform="translate(0)">
          <g id="Group_41201" data-name="Group 41201">
            <path id="Path_72900" data-name="Path 72900" d="M73.346,43.455C66.01,47.682,47.336,58,38.6,58.5h-.41c-5.66,0-17.352-4.562-23.087-7V28.809c2.476-.056,6.33-.074,10.5.037a14.212,14.212,0,0,1,2.607.261,25.082,25.082,0,0,1,12.828,5.5h9.942a3.705,3.705,0,0,1,0,7.41H41.322a.934.934,0,0,0-.931.931.946.946,0,0,0,.931.931h9.44c3.128-.261,13.815-4.748,19.233-7.094a3.737,3.737,0,0,1,3.351,6.665Z" transform="translate(-15.107 -28.764)" fill="#fff"/>
          </g>
        </g>
      </g>
      <g id="Group_41209" data-name="Group 41209">
        <g id="Group_41208" data-name="Group 41208">
          <g id="Group_41205" data-name="Group 41205" transform="translate(9.632 21.058)">
            <g id="Group_41204" data-name="Group 41204">
              <path id="Path_72901" data-name="Path 72901" d="M12.367,40.607A1.862,1.862,0,1,1,10.5,38.726,1.867,1.867,0,0,1,12.367,40.607Z" transform="translate(-8.643 -38.726)" fill="#fff"/>
            </g>
          </g>
          <g id="Group_41207" data-name="Group 41207">
            <g id="Group_41206" data-name="Group 41206">
              <path id="Path_72902" data-name="Path 72902" d="M19.339,26.521H5.7A2.654,2.654,0,0,0,3.06,29.165V54.244A2.654,2.654,0,0,0,5.7,56.888H19.339a2.642,2.642,0,0,0,2.644-2.644V29.165a2.642,2.642,0,0,0-2.644-2.644ZM14.554,53.183a3.733,3.733,0,1,1,3.724-3.724A3.735,3.735,0,0,1,14.554,53.183Z" transform="translate(-3.06 -26.521)" fill="#fff"/>
            </g>
          </g>
        </g>
      </g>
    </g>
  </g>
</svg>
