<svg xmlns="http://www.w3.org/2000/svg" xmlns:xlink="http://www.w3.org/1999/xlink" width="76.612" height="63.085" viewBox="0 0 76.612 63.085">
  <defs>
    <linearGradient id="linear-gradient" x1="0.749" y1="0.125" x2="0.275" y2="0.978" gradientUnits="objectBoundingBox">
      <stop offset="0" stop-color="#f90"/>
      <stop offset="1" stop-color="#00ccfe"/>
    </linearGradient>
  </defs>
  <path id="noun-audience-4200542" d="M150.352,84.055a12.136,12.136,0,0,0-7.672,21.586,18.306,18.306,0,0,0-3.733,2.3,15,15,0,0,0-5.128-4.446,10.1,10.1,0,1,0-13.751,0,15.138,15.138,0,0,0-8.029,13.39v18.148a2.254,2.254,0,0,0,2.245,2.245h17.77v7.606a2.254,2.254,0,0,0,2.245,2.263h32.092a2.253,2.253,0,0,0,2.262-2.262v-7.606H186.4a2.254,2.254,0,0,0,2.25-2.245V116.878a15.144,15.144,0,0,0-8.029-13.39,10.1,10.1,0,1,0-13.747.009,14.971,14.971,0,0,0-5.119,4.441,18.309,18.309,0,0,0-3.737-2.3,12.138,12.138,0,0,0-7.668-21.581Zm0,4.507a7.685,7.685,0,1,1-7.685,7.685A7.637,7.637,0,0,1,150.352,88.562Zm-23.407,1.8a5.708,5.708,0,1,1-5.59,5.709A5.617,5.617,0,0,1,126.945,90.358Zm46.8,0a5.708,5.708,0,1,1-5.59,5.709,5.617,5.617,0,0,1,5.59-5.709Zm-46.8,15.921a10.344,10.344,0,0,1,8.83,4.934,18.189,18.189,0,0,0-3.719,11.022v10.529H116.548V116.878a10.424,10.424,0,0,1,10.4-10.6Zm46.8,0a10.438,10.438,0,0,1,10.414,10.6v15.886h-15.5V122.235a18.191,18.191,0,0,0-3.733-11.031,10.336,10.336,0,0,1,8.821-4.926Zm-23.39,2.166a13.712,13.712,0,0,1,13.79,13.79v20.392h-27.6V122.235a13.727,13.727,0,0,1,13.808-13.79Z" transform="translate(-112.04 -84.055)" fill="url(#linear-gradient)"/>
</svg>
