<svg xmlns="http://www.w3.org/2000/svg" width="59" height="59" viewBox="0 0 59 59">
  <g id="explore-more" transform="translate(-554 -1994)">
    <g id="Ellipse_1" data-name="Ellipse 1" transform="translate(554 1994)" fill="none" stroke="#fff" stroke-width="1.5">
      <circle cx="29.5" cy="29.5" r="29.5" stroke="none"/>
      <circle cx="29.5" cy="29.5" r="28.75" fill="none"/>
    </g>
    <path id="Path_24599" data-name="Path 24599" d="M225.714,191.769,214.1,179.428a.745.745,0,0,0-1.033-.034.764.764,0,0,0-.034,1.033l10.458,11.116-23.122-1.728a.726.726,0,0,0,0,1.452L223.491,193l-10.458,11.116a.759.759,0,0,0,.034,1.032.738.738,0,0,0,1.033-.034l11.615-12.341a.779.779,0,0,0,0-1Z" transform="matrix(0.788, -0.616, 0.616, 0.788, 297.462, 2004.326)" fill="#fff" stroke="#fff" stroke-width="1"/>
  </g>
</svg>
