<?xml version="1.0" encoding="utf-8"?>
<!-- Generator: Adobe Illustrator 26.5.0, SVG Export Plug-In . SVG Version: 6.00 Build 0)  -->
<svg version="1.1" id="Layer_1" xmlns="http://www.w3.org/2000/svg" xmlns:xlink="http://www.w3.org/1999/xlink" x="0px" y="0px"
	 viewBox="0 0 514.2 80" style="enable-background:new 0 0 514.2 80;" xml:space="preserve">
<style type="text/css">
	.st0{fill-rule:evenodd;clip-rule:evenodd;fill:#201F1F;}
	.st1{fill:#201F1F;}
</style>
<g id="google-console" transform="translate(-0.108 -4)">
	<path id="Path_24617" class="st0" d="M20.2,36.7v5.4h12.9c-0.2,2.5-1.2,4.9-2.9,6.8c-2.6,2.7-6.3,4.1-10,4C12.4,52.9,6,46.5,6,38.7
		c0-0.1,0-0.1,0-0.2c-0.1-7.8,6.2-14.3,14-14.4c0.1,0,0.1,0,0.2,0c3.6,0,7.1,1.3,9.8,3.9l3.8-3.8c-3.6-3.6-8.5-5.5-13.6-5.5
		c-11,0-19.9,8.8-20.1,19.8c0.2,11,9.1,19.8,20.1,19.8c5.9,0,10.3-1.9,13.8-5.6c3.6-3.6,4.7-8.6,4.7-12.7c0-1.1-0.1-2.3-0.3-3.4
		L20.2,36.7z"/>
	<path id="Path_24618" class="st0" d="M54.9,52.8c-4.1-0.1-7.3-3.5-7.2-7.6c0-0.1,0-0.1,0-0.2c0-4.6,3.3-7.7,7.2-7.7
		s7.2,3.1,7.2,7.7C62.1,49.6,58.7,52.8,54.9,52.8z M54.9,32.3c-7-0.1-12.7,5.4-12.8,12.4c0,0.1,0,0.3,0,0.4
		c-0.1,7,5.5,12.7,12.5,12.8c0.1,0,0.2,0,0.4,0c7,0.1,12.7-5.5,12.8-12.4c0-0.1,0-0.2,0-0.4c0.1-7-5.5-12.7-12.4-12.8
		C55.1,32.3,55,32.3,54.9,32.3z"/>
	<path id="Path_24619" class="st0" d="M111.3,52.8c-3.9,0-6.8-3.3-6.8-7.7c0-4.5,3-7.7,6.8-7.7c3.8,0,6.8,3.3,6.8,7.8
		C118.1,49.6,115.1,52.8,111.3,52.8z M117.7,35.2h-0.2c-1.7-1.9-4.2-2.9-6.7-2.9c-6.4,0-12,5.6-12,12.8c0,7.2,5.6,12.8,12,12.8
		c2.6,0.1,5-1,6.7-2.9h0.2v1.8c0,4.9-2.6,7.5-6.8,7.5c-2.9-0.1-5.4-1.9-6.4-4.5l-4.9,2c1.9,4.6,6.4,7.6,11.3,7.6
		c6.6,0,12.1-3.9,12.1-13.3V33h-5.3V35.2z"/>
	<path id="Path_24620" class="st0" d="M83.5,52.8c-3.9,0-7.2-3.2-7.2-7.7c0-4.6,3.3-7.7,7.2-7.7c3.9,0,7.2,3.1,7.2,7.7
		C90.7,49.6,87.3,52.8,83.5,52.8z M83.5,32.3c-7-0.1-12.7,5.4-12.8,12.4c0,0.1,0,0.3,0,0.4c0.1,7.1,5.9,12.8,12.9,12.7
		c7-0.1,12.7-5.7,12.7-12.7c0.1-7-5.5-12.7-12.4-12.8C83.7,32.3,83.6,32.3,83.5,32.3z"/>
	<path id="Path_24621" class="st0" d="M127.5,57.9h5.5V19.2h-5.5V57.9z"/>
	<path id="Path_24622" class="st0" d="M149.6,37.1c2-0.1,3.9,1,4.8,2.8l-11.5,4.8C142.9,39.3,146.7,37.1,149.6,37.1z M150,52.8
		c-2.7,0.1-5.1-1.4-6.2-3.9l17.1-7.1l-0.6-1.5c-1.1-2.9-4.3-8.1-10.9-8.1c-6.6,0-12.1,5.2-12.1,12.8c-0.2,6.9,5.3,12.6,12.2,12.8
		c0.2,0,0.3,0,0.5,0c4.3,0,8.3-2.1,10.7-5.7l-4.4-2.9C155,51.5,152.6,52.9,150,52.8z"/>
	<path id="Path_24623" class="st1" d="M189.4,56.9c-3.6,0-7-1.6-9.3-4.2c-1.3-1.5-2.3-3.3-2.8-5.2l3.9-1.6c0.5,1.9,1.5,3.7,3,5
		c1.4,1.3,3.3,2.1,5.3,2c1.2,0,2.4-0.2,3.5-0.7c1-0.4,1.9-1.2,2.6-2.1c0.7-1,1.1-2.1,1-3.3c0.1-1.6-0.7-3.1-1.9-4.1
		c-1.7-1.3-3.6-2.2-5.6-2.9l-2.2-0.8c-1.3-0.5-2.6-1.1-3.9-1.8c-1.3-0.7-2.4-1.7-3.2-2.9c-0.9-1.4-1.3-3-1.3-4.6
		c0-1.6,0.5-3.2,1.4-4.6c0.9-1.4,2.2-2.6,3.7-3.3c1.7-0.9,3.6-1.3,5.5-1.3c1.9-0.1,3.7,0.4,5.4,1.2c1.4,0.7,2.5,1.6,3.5,2.8
		c0.8,0.9,1.3,1.9,1.7,3l-3.8,1.6c-0.6-1.7-1.8-3.1-3.3-3.9c-1.1-0.6-2.2-0.8-3.4-0.8c-1.1,0-2.2,0.2-3.2,0.7
		c-0.9,0.4-1.7,1.1-2.4,1.9c-0.6,0.8-0.9,1.7-0.9,2.7c0,1.4,0.6,2.7,1.7,3.4c1.4,1,3,1.7,4.7,2.3l2.3,0.8c1.1,0.4,2.1,0.8,3.1,1.3
		c1.1,0.5,2.1,1.2,3,2c2.1,1.8,3.2,4.5,3.1,7.2c0,1.6-0.3,3.2-1.1,4.6c-0.7,1.2-1.6,2.3-2.7,3.1c-1.1,0.8-2.4,1.4-3.7,1.7
		C192.1,56.7,190.7,56.9,189.4,56.9z M217.1,56.9c-4.5,0.1-8.7-2.3-10.7-6.3c-1.1-2.1-1.6-4.4-1.5-6.7c0-2.3,0.5-4.5,1.5-6.5
		c0.9-1.9,2.4-3.6,4.2-4.8c1.9-1.2,4.1-1.9,6.3-1.8c2.2-0.1,4.4,0.5,6.3,1.6c1.8,1.1,3.2,2.6,4.1,4.5c1,2,1.5,4.3,1.5,6.5
		c0,0.2,0,0.5,0,0.7c0,0.2,0,0.4,0,0.6h-19.6c0.1,1.7,0.5,3.4,1.4,4.8c1.5,2.4,4.1,3.8,6.9,3.8c1.6,0.1,3.1-0.4,4.5-1.3
		c1.2-0.8,2.1-1.9,2.9-3.2l3.5,1.7c-1,1.9-2.4,3.5-4.2,4.6C221.8,56.3,219.5,57,217.1,56.9L217.1,56.9z M216.7,34.4
		c-1.8-0.1-3.6,0.6-5,1.9c-1.4,1.3-2.3,3-2.6,4.9h15.1c-0.1-1-0.3-2-0.8-3c-0.5-1.1-1.3-2-2.3-2.7C219.8,34.7,218.3,34.3,216.7,34.4
		L216.7,34.4z M241.5,56.9c-1.7,0-3.3-0.3-4.8-1.1c-1.3-0.7-2.5-1.7-3.3-2.9c-0.8-1.3-1.2-2.8-1.2-4.3c-0.1-1.6,0.4-3.2,1.4-4.5
		c1-1.3,2.3-2.3,3.8-2.8c1.7-0.7,3.4-1,5.2-1c1.5,0,2.9,0.2,4.4,0.5c0.9,0.2,1.9,0.6,2.7,1.1v-1.5c0.1-1.7-0.7-3.4-2-4.5
		c-1.4-1.1-3.1-1.7-4.8-1.6c-1.3,0-2.6,0.3-3.8,0.9c-1.1,0.6-2.1,1.4-2.8,2.5l-3.1-2.3c1-1.5,2.4-2.7,4-3.4c1.8-0.9,3.7-1.3,5.7-1.3
		c3.4,0,6,0.9,7.9,2.7c1.9,1.9,3,4.5,2.9,7.2v15.6h-3.9v-3.5h-0.2c-0.8,1.2-1.8,2.2-3,3C244.9,56.5,243.2,56.9,241.5,56.9z
		 M241.9,53.2c1.4,0,2.7-0.4,3.9-1.1c1.2-0.7,2.2-1.7,2.9-2.9c0.7-1.2,1.1-2.5,1.1-3.9c-0.9-0.6-1.8-1-2.8-1.3
		c-1.2-0.3-2.4-0.5-3.6-0.5c-2.4,0-4.1,0.5-5.2,1.5c-1.1,0.9-1.7,2.2-1.6,3.6c0,1.3,0.5,2.5,1.6,3.3
		C239.1,52.9,240.5,53.3,241.9,53.2L241.9,53.2z M259.3,56.1V31.4h3.9v4h0.2c0.3-0.9,0.9-1.8,1.6-2.4c0.8-0.7,1.6-1.3,2.6-1.6
		c0.9-0.4,1.9-0.6,3-0.6c0.6,0,1.2,0,1.7,0.1c0.4,0.1,0.8,0.2,1.2,0.3v4.5c-1.1-0.5-2.3-0.8-3.5-0.8c-1.2,0-2.3,0.3-3.3,1
		c-1,0.7-1.8,1.6-2.4,2.7c-0.6,1.2-0.9,2.4-0.9,3.7v13.8L259.3,56.1z M287.2,56.9c-2.3,0-4.5-0.5-6.5-1.7c-1.9-1.1-3.4-2.8-4.4-4.7
		c-1.1-2.1-1.6-4.4-1.6-6.7c0-2.3,0.5-4.7,1.6-6.7c1-1.9,2.5-3.5,4.4-4.6c2-1.2,4.2-1.8,6.5-1.7c2.4-0.1,4.8,0.6,6.8,1.9
		c1.8,1.2,3.1,2.9,3.8,4.9l-3.7,1.5c-0.5-1.4-1.5-2.6-2.8-3.4c-2.6-1.6-5.8-1.6-8.4,0c-1.3,0.8-2.3,2-3,3.3
		c-0.8,1.5-1.2,3.2-1.2,4.9c0,1.7,0.4,3.4,1.2,4.9c0.7,1.3,1.7,2.5,3,3.3c1.2,0.8,2.6,1.2,4.1,1.2c1.6,0,3.1-0.4,4.5-1.2
		c1.3-0.8,2.3-2,2.8-3.4l3.7,1.5c-0.8,1.9-2.2,3.6-3.9,4.8C292,56.3,289.6,57,287.2,56.9L287.2,56.9z M302.4,56.1V21.4h4.1v10.2
		l-0.2,3.4h0.2c0.7-1.3,1.8-2.4,3.1-3.1c1.5-0.9,3.2-1.3,4.9-1.3c3.1,0,5.5,0.9,7,2.8c1.6,1.9,2.4,4.4,2.3,6.9v15.8h-4.1V40.9
		c0-2.4-0.6-4.1-1.8-5c-1.2-1-2.7-1.5-4.3-1.5c-1.3,0-2.6,0.4-3.6,1.2c-1.1,0.8-1.9,1.8-2.5,3c-0.6,1.2-0.9,2.5-0.9,3.8v13.7
		L302.4,56.1z M357.1,56.9c-4.8,0.1-9.4-1.8-12.8-5.2c-1.6-1.7-2.9-3.6-3.8-5.8c-0.9-2.3-1.4-4.7-1.4-7.2c0-2.5,0.4-4.9,1.4-7.2
		c0.9-2.1,2.1-4.1,3.8-5.7c1.6-1.6,3.6-2.9,5.7-3.8c2.3-0.9,4.7-1.4,7.1-1.4c2.5,0,4.9,0.5,7.2,1.5c2.1,1,4,2.4,5.5,4.2l-3,2.9
		c-2.3-3-5.9-4.7-9.7-4.6c-2.4,0-4.8,0.6-6.9,1.7c-2.1,1.2-3.8,2.9-5,4.9c-1.3,2.3-2,4.9-1.9,7.5c-0.1,2.6,0.6,5.2,1.9,7.5
		c1.2,2.1,2.9,3.8,5,4.9c2.1,1.2,4.5,1.8,6.9,1.7c2.1,0,4.1-0.4,6-1.4c1.8-0.9,3.4-2.2,4.7-3.8l3,2.9
		C367.4,54.7,362.4,56.9,357.1,56.9L357.1,56.9z M386.3,56.9c-2.3,0-4.6-0.6-6.6-1.7c-1.9-1.1-3.4-2.8-4.5-4.7
		c-1.1-2.1-1.6-4.4-1.6-6.7c0-2.3,0.5-4.6,1.6-6.6c2.2-4.1,6.5-6.6,11.1-6.5c4.6-0.1,8.9,2.4,11,6.5c1.1,2,1.7,4.3,1.6,6.6
		c0,2.3-0.5,4.6-1.6,6.7c-1,1.9-2.6,3.6-4.5,4.7C390.9,56.3,388.7,56.9,386.3,56.9L386.3,56.9z M386.3,53.1c1.5,0,2.9-0.4,4.2-1.1
		c1.3-0.8,2.4-1.9,3.2-3.2c0.8-1.6,1.3-3.3,1.2-5.1c0.1-1.8-0.4-3.5-1.2-5c-0.7-1.4-1.8-2.5-3.2-3.2c-1.3-0.7-2.7-1.1-4.2-1.1
		c-1.5,0-2.9,0.4-4.2,1.1c-1.3,0.8-2.5,1.9-3.2,3.2c-0.8,1.5-1.3,3.3-1.2,5c0,1.8,0.4,3.5,1.2,5.1C380.4,51.5,383.3,53.1,386.3,53.1
		L386.3,53.1z M403.3,56.1V31.4h3.9V35h0.2c0.7-1.3,1.8-2.4,3.1-3.1c1.5-0.9,3.1-1.3,4.8-1.3c3,0,5.3,0.9,6.8,2.7
		c1.6,1.9,2.5,4.4,2.3,7v15.8h-4.1V40.9c0-2.4-0.6-4.1-1.7-5c-1.2-1-2.8-1.6-4.4-1.5c-1.3,0-2.5,0.4-3.6,1.2c-1,0.7-1.9,1.7-2.4,2.9
		c-0.6,1.2-0.9,2.5-0.9,3.8v13.9L403.3,56.1z M438.8,56.9c-2.4,0.1-4.8-0.6-6.8-1.9c-1.6-1.2-2.9-2.8-3.6-4.7l3.7-1.6
		c0.6,1.4,1.6,2.6,2.8,3.4c1.3,0.8,2.7,1.2,4.2,1.2c1.3,0.1,2.6-0.3,3.8-0.9c1-0.5,1.6-1.6,1.5-2.7c0-1.1-0.5-2-1.5-2.6
		c-1.2-0.7-2.6-1.3-4-1.5l-3-0.8c-1.1-0.3-2.3-0.8-3.3-1.4c-1-0.5-1.9-1.3-2.5-2.2c-0.6-1-1-2.2-0.9-3.4c0-1.4,0.4-2.7,1.3-3.8
		c0.9-1.1,2.1-1.9,3.4-2.4c1.4-0.6,3-0.9,4.5-0.9c2,0,4,0.5,5.7,1.4c1.7,0.8,3,2.2,3.7,3.9l-3.6,1.6c-0.5-1.1-1.4-2-2.5-2.6
		c-1.1-0.5-2.3-0.7-3.4-0.7c-1.2,0-2.5,0.3-3.5,0.9c-0.9,0.5-1.5,1.4-1.5,2.4c0,0.9,0.4,1.8,1.2,2.3c1,0.6,2,1,3,1.3l3.6,0.9
		c4.9,1.3,7.3,3.6,7.3,7.2c0,1.4-0.4,2.9-1.3,4c-0.9,1.2-2.1,2.1-3.5,2.6C442.2,56.6,440.5,56.9,438.8,56.9L438.8,56.9z M464.7,56.9
		c-2.3,0-4.6-0.6-6.6-1.7c-1.9-1.1-3.4-2.8-4.5-4.7c-1.1-2.1-1.6-4.4-1.6-6.7c0-2.3,0.5-4.6,1.6-6.6c2.2-4.1,6.5-6.6,11.1-6.5
		c4.6-0.1,8.9,2.4,11,6.5c1.1,2,1.7,4.3,1.6,6.6c0,2.3-0.5,4.6-1.6,6.7c-1,1.9-2.6,3.6-4.5,4.7C469.3,56.3,467,56.9,464.7,56.9
		L464.7,56.9z M464.7,53.1c1.5,0,2.9-0.4,4.2-1.1c1.3-0.8,2.4-1.9,3.2-3.2c0.8-1.6,1.3-3.3,1.2-5.1c0.1-1.8-0.4-3.5-1.2-5
		c-0.7-1.4-1.8-2.5-3.2-3.2c-1.3-0.7-2.7-1.1-4.2-1.1c-1.5,0-2.9,0.4-4.2,1.1c-1.3,0.8-2.4,1.9-3.2,3.2c-0.8,1.5-1.3,3.3-1.2,5
		c0,1.8,0.4,3.5,1.2,5.1C458.8,51.5,461.6,53.1,464.7,53.1L464.7,53.1z M481.9,56.1V21.4h4.1v34.7L481.9,56.1z M502.9,56.9
		c-4.5,0.1-8.7-2.3-10.7-6.3c-1.1-2.1-1.6-4.4-1.5-6.7c0-2.3,0.5-4.5,1.5-6.5c0.9-1.9,2.4-3.6,4.2-4.8c1.9-1.2,4.1-1.9,6.3-1.8
		c2.2-0.1,4.4,0.5,6.3,1.6c1.8,1.1,3.2,2.6,4.1,4.5c1,2,1.5,4.3,1.5,6.5c0,0.2,0,0.5,0,0.7c0,0.2,0,0.4,0,0.6h-19.6
		c0.1,1.7,0.5,3.4,1.4,4.8c1.5,2.4,4.1,3.8,6.9,3.8c1.6,0.1,3.1-0.4,4.5-1.3c1.2-0.8,2.1-1.9,2.9-3.2l3.5,1.7
		c-1,1.9-2.4,3.5-4.2,4.6C507.6,56.3,505.3,57,502.9,56.9L502.9,56.9z M502.5,34.4c-1.8-0.1-3.6,0.6-5,1.9c-1.4,1.3-2.3,3-2.6,4.9
		H510c-0.1-1-0.3-2-0.8-3c-0.5-1.1-1.3-2-2.3-2.7C505.6,34.7,504.1,34.3,502.5,34.4L502.5,34.4z"/>
</g>
</svg>
