<svg id="google_analytics-ar21" xmlns="http://www.w3.org/2000/svg" width="217.605" height="80.731" viewBox="0 0 217.605 80.731">
  <g id="Group_2141" data-name="Group 2141" transform="translate(69.68 0)">
    <path id="Path_5126" data-name="Path 5126" d="M80.2,9.324l4.772,12.528H75.728L80.2,9.324Zm-1.79-4.2L67.973,32.563h3.876l2.684-7.453H86.162l2.684,7.453h3.876L82.284,5.128H78.407Zm56.348,27.459h3.6V5.148h-3.6V32.583ZM98.093,16.462a7.633,7.633,0,0,1,5.964-3.281c4.772,0,7.157,3.281,7.157,8.053V32.862h-3.6V21.829c0-3.876-2.088-5.369-4.772-5.369-2.983,0-5.069,2.983-5.069,5.667V32.565h-3.6V13.5h3.6l.3,2.983ZM114.2,26.92c0-4.2,3.876-6.562,8.352-6.562,2.684,0,4.476.6,5.069,1.193v-.6c0-2.983-2.386-4.476-4.772-4.476-2.088,0-3.876.9-4.476,2.684l-3.281-1.491c.6-1.79,2.983-4.476,7.753-4.476,4.476,0,8.352,2.684,8.352,8.053V32.579h-3.281V29.9h-.3a7.184,7.184,0,0,1-6.262,3.281c-3.876,0-7.157-2.386-7.157-6.262m13.42-2.386a7.5,7.5,0,0,0-4.476-1.193c-3.6,0-5.069,2.088-5.069,3.6,0,2.088,2.088,2.983,3.876,2.983,2.684,0,5.667-2.386,5.667-5.369" transform="translate(-67.973 39.792)" fill="#201f1f"/>
    <path id="Path_5127" data-name="Path 5127" d="M107.362,37.213l4.2-9.841-7.453-17.3h3.6L113.368,23.2l5.667-13.122h3.6L111,37.213h-3.6Zm52.491-20.881a5.66,5.66,0,0,0-5.069-3.876c-2.983,0-5.667,2.684-5.667,6.562s2.684,6.562,5.667,6.562a5.77,5.77,0,0,0,5.069-3.6l2.983,1.79a8.761,8.761,0,0,1-8.053,5.369c-5.069,0-9.245-4.476-9.245-10.141,0-5.964,4.2-10.141,9.245-10.141a8.741,8.741,0,0,1,8.053,5.369l-2.983,2.088Z" transform="translate(-31.908 43.519)" fill="#201f1f" fill-rule="evenodd"/>
    <path id="Path_5128" data-name="Path 5128" d="M155.405,29.307c4.772,0,7.157-2.684,7.157-5.964,0-7.157-10.438-4.476-10.438-8.648,0-1.491,1.193-2.386,3.281-2.386s4.2.9,5.069,2.386l2.088-2.088a11.1,11.1,0,0,0-7.453-3.6c-4.476,0-6.86,2.684-6.86,5.964,0,6.86,10.736,4.476,10.736,8.053,0,1.79-1.193,2.983-3.6,2.983s-3.6-1.491-4.772-2.983l-2.65,2.108c1.79,1.79,4.476,4.2,7.453,4.2Zm-34-.6H125V9.625h-3.6Z" transform="translate(-14.638 43.667)" fill="#201f1f"/>
    <path id="Path_5129" data-name="Path 5129" d="M130.363,4.7a2.386,2.386,0,1,1,0,4.772,2.566,2.566,0,0,1-2.386-2.386A2.566,2.566,0,0,1,130.363,4.7Zm-5.069,25.351.6,2.684h-3.6c-3.281,0-4.772-2.386-4.772-5.964V17.488h-3.6v-3.6h3.6V8.261h3.6v5.667h4.2v3.6h-4.2v9.841c0,2.684,2.088,2.684,4.2,2.684Z" transform="translate(-22.103 39.365)" fill="#201f1f" fill-rule="evenodd"/>
    <path id="Path_5130" data-name="Path 5130" d="M85.093-2.745V1.731H95.531A8.962,8.962,0,0,1,93.146,7.1a10.712,10.712,0,0,1-8.053,3.281A11.4,11.4,0,0,1,73.76-1.248,11.585,11.585,0,0,1,85.093-12.877a11.531,11.531,0,0,1,7.753,2.983l2.983-2.983c-2.684-2.386-5.964-4.476-10.736-4.476-8.648,0-16.105,7.157-16.105,15.785s7.453,15.785,16.105,15.785c4.772,0,8.352-1.491,11.034-4.476A14.086,14.086,0,0,0,100-.4a7.362,7.362,0,0,0-.3-2.684H85.091Zm26.539-3.6A9.889,9.889,0,0,0,101.492,3.8,9.89,9.89,0,0,0,111.632,13.94,10.051,10.051,0,0,0,121.773,3.8,9.878,9.878,0,0,0,111.632-6.341Zm0,16.385a6.007,6.007,0,0,1-5.667-6.262,5.988,5.988,0,0,1,5.667-6.242c2.983,0,5.669,2.4,5.669,6.254s-2.683,6.262-5.667,6.262Zm48.895-14.3a7.74,7.74,0,0,0-5.667-2.386c-5.069,0-9.543,4.476-9.543,10.141s4.476,10.141,9.543,10.141a7.024,7.024,0,0,0,5.369-2.386h.3v1.491c0,3.876-2.088,5.964-5.369,5.964a5.691,5.691,0,0,1-5.069-3.6L146.214,16.6a9.87,9.87,0,0,0,8.948,5.964c5.369,0,9.841-2.983,9.841-10.736V-6.657h-4.2v2.386ZM155.458,10.06c-2.983,0-5.369-2.684-5.369-6.262s2.386-6.262,5.369-6.262S160.827.219,160.827,3.8,158.441,10.06,155.458,10.06ZM133.684-6.325A9.889,9.889,0,0,0,123.543,3.815a9.89,9.89,0,0,0,10.141,10.141A10.051,10.051,0,0,0,143.825,3.815C144.124-2.149,139.349-6.325,133.684-6.325Zm0,16.385A6.007,6.007,0,0,1,128.017,3.8a6.007,6.007,0,0,1,5.667-6.262c2.983,0,5.667,2.386,5.667,6.262s-2.684,6.262-5.667,6.262ZM168.32-17.059H172.8V13.956H168.32Zm16.7,27.139A5.771,5.771,0,0,1,179.951,7.1L193.671,1.43l-.6-1.193c-.9-2.386-3.6-6.562-8.648-6.562-5.369,0-9.543,4.2-9.543,10.141a10.051,10.051,0,0,0,10.141,10.141,10.849,10.849,0,0,0,8.648-4.476l-3.6-2.386A5.771,5.771,0,0,1,185,10.078Zm-.3-12.528A3.994,3.994,0,0,1,188.6-.063l-9.245,3.876C179.352-.662,182.335-2.449,184.721-2.449Z" transform="translate(-66.96 17.353)" fill="#201f1f"/>
  </g>
  <g id="Group_2143" data-name="Group 2143" transform="translate(0 1.707)">
    <path id="Path_5131" data-name="Path 5131" d="M25.821,9.923V62.31c0,5.862,4.048,9.128,8.334,9.128,3.969,0,8.334-2.778,8.334-9.128V10.32a8.344,8.344,0,0,0-8.334-8.731A8.471,8.471,0,0,0,25.821,9.923Z" transform="translate(17.835 -1.589)" fill="#201f1f"/>
    <g id="Group_2142" data-name="Group 2142" transform="translate(0 26.59)">
      <path id="Path_5132" data-name="Path 5132" d="M14.9,23.231v25.8c0,5.862,4.048,9.128,8.334,9.128,3.969,0,8.334-2.778,8.334-9.128v-25.4A8.344,8.344,0,0,0,23.231,14.9,8.471,8.471,0,0,0,14.9,23.231Z" transform="translate(6.931 -14.896)" fill="#201f1f"/>
      <ellipse id="Ellipse_59" data-name="Ellipse 59" cx="8.334" cy="8.334" rx="8.334" ry="8.334" transform="translate(0 26.59)" fill="#201f1f"/>
    </g>
  </g>
</svg>
