<svg id="logo-icon-ani" xmlns="http://www.w3.org/2000/svg" width="109.667" height="121.956" viewBox="0 0 109.667 121.956">
  <g id="Group_39986" data-name="Group 39986" transform="translate(0 12.5)">
    <path id="Path_24593" data-name="Path 24593" d="M8.19,96.983c10.852-17.092,13.565-21.406,24.474-38.45,1.122-1.745.757-2.54-.863-3.528-1.122-.681-1.793-1.112-3.25-2.042L48.04,43.31V65.157c-1.371-.834-2.3-1.39-3.365-2.071-1.841-1.179-2.579-.518-3.509.959-4.745,7.544-9.548,15.06-14.322,22.585-6.116,9.634-6.039,9.529-12.146,19.163" transform="translate(-0.339 -14.292)" fill="#fff"/>
    <path id="Path_24594" data-name="Path 24594" d="M20.63,94.772a43.157,43.157,0,0,1-9.481-27.014c0-24.081,19.776-43.675,44.087-43.675A44.63,44.63,0,0,1,65.3,25.243l6.269-9.759A55.416,55.416,0,0,0,55.226,13.04C24.78,13.04,0,37.59,0,67.758a54.231,54.231,0,0,0,14.36,36.763Z" transform="translate(0 -13.04)" fill="#fff"/>
  </g>
  <path id="Path_24595" data-name="Path 24595" d="M31.662,116.3a45,45,0,0,1-8.532-5.272c3.47-5.416,6.231-9.7,9.625-15Q50.139,68.877,67.514,41.71c5.57-8.695,11.043-17.457,16.776-26.046,1.332-1.994.92-2.866-.824-3.844-.92-.518-1.812-1.112-3.25-1.994,6.94-3.4,13.44-6.6,20.007-9.826V22.537c-1.764-1.112-3-1.841-4.18-2.655-1.141-.786-1.773-.614-2.569.633q-16.709,26.242-33.552,52.4" transform="translate(-0.957 0)" fill="#fff"/>
  <g id="Group_39987" data-name="Group 39987" transform="translate(41.7 36.418)">
    <path id="Path_24596" data-name="Path 24596" d="M43.5,121.889C54.352,104.8,75.576,70.257,86.494,53.213c1.122-1.745.757-2.54-.863-3.528-1.122-.681-1.793-1.112-3.25-2.042l19.489-9.653V59.837c-1.371-.834-2.3-1.39-3.365-2.071-1.841-1.179-2.579-.518-3.509.959-4.745,7.544-9.548,15.06-14.322,22.585-6.116,9.634-20.131,32.574-26.247,42.218" transform="translate(-43.5 -37.99)" fill="#fff"/>
    <path id="Path_24597" data-name="Path 24597" d="M100.4,66.891c.048.834.077,1.678.077,2.531A43.674,43.674,0,0,1,56.9,113.1a44.468,44.468,0,0,1-6.538-.5l-6.346,9.989A54.67,54.67,0,0,0,109.034,53.24l-8.647,13.651Z" transform="translate(-43.522 -38.621)" fill="#fff"/>
  </g>
</svg>
