<svg xmlns="http://www.w3.org/2000/svg" xmlns:xlink="http://www.w3.org/1999/xlink" width="385.705" height="69.931" viewBox="0 0 385.705 69.931">
  <defs>
    <clipPath id="clip-path">
      <path id="Path_24592" data-name="Path 24592" d="M138.393,59.652a28.168,28.168,0,0,1-2.985-.319q-.2,3.694-.2,12.94a2.3,2.3,0,0,1-.638,1.649,2.089,2.089,0,0,1-1.589.671,2.169,2.169,0,0,1-1.616-.671,2.322,2.322,0,0,1-.638-1.649v-7.19q0-3.595.44-10.125.486-7.066.539-10.125V41.458A15.3,15.3,0,0,1,132,37.934c.374-1.435,1.176-2.056,2.4-1.858a10.9,10.9,0,0,1,2.226-.368q1.443-.124,3.545-.121a13.359,13.359,0,0,1,8.388,3.056,10.04,10.04,0,0,1,4.3,8.119,11.628,11.628,0,0,1-4.6,9.658,15.494,15.494,0,0,1-9.883,3.227Zm1.22-19.42c-.72,0-1.358.016-1.918.049a13.56,13.56,0,0,0-1.429.148l-.049,4.5-.511,9.735,2.688.319a11.326,11.326,0,0,0,6.921-2.078,7.236,7.236,0,0,0,3.084-6.14q0-2.737-2.935-4.722a10.358,10.358,0,0,0-5.843-1.808Zm41.034,34.042a2.459,2.459,0,0,1-1.737-.781,41.25,41.25,0,0,0-18-10.763l.2,4.793.121,4.821a2.466,2.466,0,0,1-.7,1.8,2.482,2.482,0,0,1-3.5,0,2.475,2.475,0,0,1-.7-1.8c0-1.286-.06-3.21-.181-5.761s-.181-4.469-.181-5.761q0-2.251.489-6.7t.489-6.679q0-1.245-.231-3.694t-.231-3.694a3.988,3.988,0,0,1,.781-2.446,2.725,2.725,0,0,1,2.567-1.176l5.893.467a16.274,16.274,0,0,1,5.651,1.638q9.9,5.261,9.905,12.841a8.465,8.465,0,0,1-3.375,6.58,18.334,18.334,0,0,1-6.772,3.5q7.6,4.081,11.373,8.608a2.606,2.606,0,0,1,.638,1.666,2.452,2.452,0,0,1-.748,1.786,2.384,2.384,0,0,1-1.748.759ZM165.069,41.941l-3.617-.291.242,2.957c.115,1.2.17,2.193.17,2.957a45.485,45.485,0,0,1-.319,4.865l-.511,4.865c.231,0,.583.005,1.066.022s.841.022,1.088.022q6.233,0,9.345-1.666a10.861,10.861,0,0,0,2.545-1.979,3.805,3.805,0,0,0,1.3-2.325q0-3.4-3.864-6.332a14.805,14.805,0,0,0-7.437-3.106Zm37.879,33.553a17.288,17.288,0,0,1-11.692-4.134,14.313,14.313,0,0,1-5.085-11.346,25.633,25.633,0,0,1,5.013-15.386q5.6-7.676,13.968-7.679c5.579,0,9.35,1.209,11.961,3.617q4.081,3.768,4.084,11.884a27.174,27.174,0,0,1-4.6,15.259q-5.285,7.775-13.649,7.778Zm2.2-33.531q-5.994,0-10.147,5.97a20.568,20.568,0,0,0-3.837,12.082,9.593,9.593,0,0,0,3.5,7.679,12.524,12.524,0,0,0,8.289,2.787q5.945,0,9.806-5.992A21.762,21.762,0,0,0,216.2,52.457q0-5.846-2.617-8.218-2.5-2.276-8.438-2.276Zm43.97-.1a2.479,2.479,0,0,1-.929-.2,23.615,23.615,0,0,0-8.02-1.127,36.117,36.117,0,0,0-3.776.231c-1.44.154-3.062.4-4.854.72l-.049,10.565a30.781,30.781,0,0,1,7.091-1.248,72.437,72.437,0,0,1,7.8.44,2.268,2.268,0,0,1,2.3,2.5,2.486,2.486,0,0,1-.709,1.819,2.359,2.359,0,0,1-1.759.72c-.847,0-2.122-.071-3.815-.22s-2.968-.22-3.815-.22a38.553,38.553,0,0,0-7.19,1.418l-.22,16.826a2.487,2.487,0,0,1-.687,1.775,2.277,2.277,0,0,1-1.737.72,2.329,2.329,0,0,1-1.748-.72,2.451,2.451,0,0,1-.7-1.775q0-4.815.181-14.468t.181-14.468c0-.715-.011-1.8-.038-3.243s-.038-2.523-.038-3.243a2.583,2.583,0,0,1,.671-1.808A2.266,2.266,0,0,1,229,36.126a2.507,2.507,0,0,1,1.446.44q3.034-.536,5.453-.8a41.268,41.268,0,0,1,4.255-.258,29.911,29.911,0,0,1,6.431.808q4.914,1.121,4.914,2.935a2.629,2.629,0,0,1-.638,1.737,2.2,2.2,0,0,1-1.759.858Zm25.505,1.666a30.162,30.162,0,0,1-3.936-.319L266.75,42.7q-.561,7.116-.561,13.6c0,1.143.033,2.551.1,4.233s.1,3.089.1,4.233c0,1.534-.055,2.924-.17,4.183l7.707-.1a2.315,2.315,0,0,1,1.726.72,2.442,2.442,0,0,1,.7,1.775,2.493,2.493,0,0,1-.7,1.8,2.315,2.315,0,0,1-1.726.72q-1.369,0-4.106.06t-4.112.06a37.8,37.8,0,0,0-4.832.451,37.817,37.817,0,0,1-4.854.451,2.315,2.315,0,0,1-1.726-.72,2.442,2.442,0,0,1-.7-1.775,2.485,2.485,0,0,1,.7-1.786,2.285,2.285,0,0,1,1.726-.731,43.59,43.59,0,0,0,5.26-.511,36.954,36.954,0,0,0,.242-4.524c0-1.127-.055-2.5-.159-4.123s-.159-2.985-.159-4.1q0-5.648.687-14.11l-3.177.1-3.177.071a2.383,2.383,0,0,1-1.759-.709,2.452,2.452,0,0,1-.709-1.808,2.252,2.252,0,0,1,2.3-2.5q1.979-.2,7.41-.2a89.361,89.361,0,0,1,12.2,1.05,2.338,2.338,0,0,1,2.177,2.617,2.249,2.249,0,0,1-.83,1.836,2.7,2.7,0,0,1-1.688.561Zm36.021-.418q-1.814,0-5.574-.291c-2.446-.181-4.3-.258-5.574-.242h-1.737q.074,3.372.66,10.955.536,7.066.539,10.983c0,.572.055,1.435.17,2.595s.17,2.028.17,2.617a6.988,6.988,0,0,1-.539,2.864,2.254,2.254,0,0,1-2.127,1.616,2.6,2.6,0,0,1-1.759-.687,2.23,2.23,0,0,1-.781-1.759,7.217,7.217,0,0,1,.121-1.1,7.214,7.214,0,0,0,.121-1.1q0-1.2-.159-3.595t-.159-3.617q0-3.5-.561-9.834-.585-6.852-.66-9.834l-2.226.022a35.5,35.5,0,0,1-8.416-.781,2.325,2.325,0,0,1-1.979-2.424,2.654,2.654,0,0,1,.638-1.759,2.165,2.165,0,0,1,1.885-.781q.857.049,3.914.44a34.207,34.207,0,0,0,3.963.291c1.011,0,2.463-.022,4.452-.06s3.474-.06,4.452-.06q1.88,0,5.59.269t5.59.269a2.38,2.38,0,0,1,1.759.72,2.471,2.471,0,0,1,.709,1.8,2.42,2.42,0,0,1-.709,1.775,2.359,2.359,0,0,1-1.759.72ZM331.174,69.6a31.44,31.44,0,0,1-11.291,1.726,2.195,2.195,0,0,1-1.6-.8,2.408,2.408,0,0,1-.759-1.638V63.176q0-2.812.352-8.009.4-5.615.434-8.13-.016-1.806.214-5.381a1.713,1.713,0,0,1,.649-1.3,20.566,20.566,0,0,1,6.069-.825,11.064,11.064,0,0,1,6.635,2.358,8.083,8.083,0,0,1,3.672,6.7,9.368,9.368,0,0,1-3.925,7.954,13.275,13.275,0,0,1,4.409,2.787,4.761,4.761,0,0,1,1.462,3.337q0,2.375-2.573,4.6A12.635,12.635,0,0,1,331.174,69.6Zm-3.732-10.329-2.083-.335c-.17,0-.429.011-.775.027s-.61.027-.8.027a15.814,15.814,0,0,1-2.259-.176q-.115,2.474-.115,4.419v4.062a25.674,25.674,0,0,0,8.383-1.451,8.611,8.611,0,0,0,2.633-1.649c.8-.682,1.2-1.193,1.2-1.534q0-.923-2.512-2.083a19.347,19.347,0,0,0-3.672-1.314Zm-2.2-15.727a21.846,21.846,0,0,0-3.007.137l-.038,3.436-.39,7.6q2.787.239,2.985.214a8.228,8.228,0,0,0,4.848-1.847,5.68,5.68,0,0,0,2.023-4.5,4.441,4.441,0,0,0-2.061-3.458,7.014,7.014,0,0,0-4.359-1.589Zm35.889,1.726q-.47.75-1.259,2.3L356.5,55.909q-1.962,4.692-3.694,8.207L350.347,68.5l-1.039,2.122a1.962,1.962,0,0,1-1.748,1.138,2.02,2.02,0,0,1-1.4-.572,1.823,1.823,0,0,1-.627-1.413,16.834,16.834,0,0,1,1.847-4.183l2.413-4.419a33.357,33.357,0,0,1-4.557-7.146,30.322,30.322,0,0,0-2.946-5.321q-2.828-4.238-3.32-5.123a2.156,2.156,0,0,1-.3-1.061,1.878,1.878,0,0,1,.621-1.424,2,2,0,0,1,1.4-.577,1.917,1.917,0,0,1,1.611.923l1.572,2.435q2.078,3.084,2.748,4.2a30.248,30.248,0,0,1,2.3,4.474,21.809,21.809,0,0,0,2.77,4.458l4.5-10.955c.511-.9,1.215-2.3,2.122-4.183a1.883,1.883,0,0,1,1.825-1.336,2.044,2.044,0,0,1,1.4.55,1.807,1.807,0,0,1,.621,1.413,6.806,6.806,0,0,1-1.039,2.77Zm14.484,14.374a28.168,28.168,0,0,1-2.985-.319q-.2,3.694-.2,12.94a2.3,2.3,0,0,1-.638,1.649,2.089,2.089,0,0,1-1.589.671,2.169,2.169,0,0,1-1.616-.671,2.322,2.322,0,0,1-.638-1.649v-7.19q0-3.595.44-10.125.487-7.066.539-10.125V41.447a15.294,15.294,0,0,1,.291-3.523c.374-1.435,1.176-2.056,2.4-1.858a10.9,10.9,0,0,1,2.226-.368q1.443-.124,3.546-.121a13.37,13.37,0,0,1,8.388,3.056,10.04,10.04,0,0,1,4.3,8.119,11.628,11.628,0,0,1-4.6,9.658,15.494,15.494,0,0,1-9.883,3.227Zm1.22-19.42c-.72,0-1.358.016-1.918.049a13.561,13.561,0,0,0-1.429.148l-.049,4.5-.511,9.735,2.688.319a11.326,11.326,0,0,0,6.921-2.078,7.236,7.236,0,0,0,3.084-6.14q0-2.737-2.935-4.722a10.358,10.358,0,0,0-5.843-1.808Zm23.6,19.42a28.167,28.167,0,0,1-2.985-.319q-.2,3.694-.2,12.94a2.3,2.3,0,0,1-.638,1.649,2.089,2.089,0,0,1-1.589.671,2.169,2.169,0,0,1-1.616-.671,2.322,2.322,0,0,1-.638-1.649v-7.19q0-3.595.44-10.125.487-7.066.539-10.125V41.447a15.294,15.294,0,0,1,.291-3.523c.374-1.435,1.176-2.056,2.4-1.858a10.9,10.9,0,0,1,2.226-.368q1.443-.124,3.545-.121a13.37,13.37,0,0,1,8.388,3.056,10.04,10.04,0,0,1,4.3,8.119,11.628,11.628,0,0,1-4.6,9.658,15.494,15.494,0,0,1-9.883,3.227Zm1.22-19.42c-.72,0-1.358.016-1.918.049a13.562,13.562,0,0,0-1.429.148l-.049,4.5-.511,9.735,2.688.319a11.326,11.326,0,0,0,6.921-2.078,7.236,7.236,0,0,0,3.084-6.14q0-2.737-2.935-4.722a10.358,10.358,0,0,0-5.843-1.808Zm40.5,6.332a2.527,2.527,0,0,1-2.347-1.836,4.262,4.262,0,0,0-1.27-1.907,7.039,7.039,0,0,0-2.545-.269q-3.545,0-7.877,5.431-5.871,7.289-5.871,13.819a7.883,7.883,0,0,0,2.028,5.431,6.457,6.457,0,0,0,5.013,2.347,11.089,11.089,0,0,0,5.063-1.3,38.2,38.2,0,0,0,4.353-2.886,4.244,4.244,0,0,1,2.105-1.028,2.249,2.249,0,0,1,1.759.8,2.607,2.607,0,0,1,.709,1.775,2.511,2.511,0,0,1-.929,1.929q-6.456,5.722-13.061,5.722a11.081,11.081,0,0,1-8.559-3.886,12.917,12.917,0,0,1-3.375-8.9q0-8.295,6.948-17,5.8-7.264,11.692-7.261a19.479,19.479,0,0,1,2.155.11A8.118,8.118,0,0,1,439.83,38a2.6,2.6,0,0,1,2.226-1.248q1.69,0,2.127,2.226a25.808,25.808,0,0,1,.39,4.865,2.965,2.965,0,0,1-.539,1.759,2.151,2.151,0,0,1-1.885.956Z" transform="translate(-130.73 -35.51)" fill="none"/>
    </clipPath>
  </defs>
  <g id="logo" transform="translate(0)">
    <g id="Group_39985" data-name="Group 39985" transform="translate(71.861 19.519)" clip-path="url(#clip-path)">
      <rect id="Rectangle_3910" data-name="Rectangle 3910" width="358.49" height="107.788" transform="translate(-37.923 -63.335)"/>
    </g>
    <g id="Group_39988" data-name="Group 39988" transform="translate(0 0)">
      <g id="Group_39986" data-name="Group 39986" transform="translate(0 7.168)">
        <path id="Path_24593" data-name="Path 24593" d="M8.19,74.087c6.222-9.8,7.778-12.275,14.034-22.048.643-1,.434-1.457-.495-2.023-.643-.39-1.028-.638-1.863-1.171L31.041,43.31V55.837c-.786-.478-1.319-.8-1.929-1.187-1.055-.676-1.479-.3-2.012.55-2.721,4.326-5.475,8.636-8.212,12.951-3.507,5.524-3.463,5.464-6.965,10.988" transform="translate(-3.688 -26.671)"/>
        <path id="Path_24594" data-name="Path 24594" d="M11.829,59.906a24.747,24.747,0,0,1-5.436-15.49,25.192,25.192,0,0,1,25.28-25.044,25.592,25.592,0,0,1,5.772.665l3.595-5.6A31.717,31.717,0,0,0,0,44.416,31.1,31.1,0,0,0,8.234,65.5Z" transform="translate(0 -13.04)"/>
      </g>
      <path id="Path_24595" data-name="Path 24595" d="M28.022,66.688a25.8,25.8,0,0,1-4.892-3.023c1.99-3.106,3.573-5.563,5.519-8.6Q38.617,39.5,48.581,23.917c3.194-4.986,6.332-10.01,9.62-14.935.764-1.143.528-1.644-.473-2.2-.528-.3-1.039-.638-1.863-1.143C59.844,3.683,63.571,1.852,67.336,0V12.923c-1.011-.638-1.721-1.055-2.4-1.523-.654-.451-1.017-.352-1.473.363Q53.885,26.811,44.227,41.809" transform="translate(-10.416 0)"/>
      <g id="Group_39987" data-name="Group 39987" transform="translate(23.911 20.883)">
        <path id="Path_24596" data-name="Path 24596" d="M43.5,86.1c6.222-9.8,18.393-29.606,24.653-39.38.643-1,.434-1.457-.495-2.023-.643-.39-1.028-.638-1.863-1.171L76.97,37.99V50.517c-.786-.478-1.319-.8-1.929-1.187-1.055-.676-1.479-.3-2.012.55-2.721,4.326-5.475,8.636-8.212,12.951-3.507,5.524-11.543,18.678-15.05,24.208" transform="translate(-43.5 -37.99)"/>
        <path id="Path_24597" data-name="Path 24597" d="M76.347,61.068c.027.478.044.962.044,1.451A25.043,25.043,0,0,1,51.408,87.563a25.5,25.5,0,0,1-3.749-.286L44.02,93A31.349,31.349,0,0,0,81.3,53.24l-4.958,7.828Z" transform="translate(-43.734 -44.857)"/>
      </g>
    </g>
  </g>
</svg>
