<svg id="Group_9330" data-name="Group 9330" xmlns="http://www.w3.org/2000/svg" width="58.766" height="58.775" viewBox="0 0 58.766 58.775">
  <path id="Path_6632" data-name="Path 6632" d="M31.37,2H31.3A29.388,29.388,0,1,0,52.219,52.111h0a29.221,29.221,0,0,0,8.551-20.741V31.3A29.405,29.405,0,0,0,31.37,2Zm17.8,29.338A17.778,17.778,0,0,1,31.658,49.164c-.076,0-.15.012-.225.012a17.786,17.786,0,0,1-.241-35.57c.048,0,.095-.007.143-.007h.051A17.8,17.8,0,0,1,49.172,31.338ZM31.3,3.837A27.559,27.559,0,0,1,50.15,11.224l-5.6,5.625a19.656,19.656,0,0,0-13.226-5.088h0c-.061,0-.12.009-.181.009a19.5,19.5,0,0,0-13.011,5.144l-5.619-5.589A27.263,27.263,0,0,1,31.3,3.837ZM11.22,12.632l5.619,5.587a19.624,19.624,0,0,0,.08,26.42l-5.6,5.625a27.539,27.539,0,0,1-.1-37.632ZM31.4,58.938A27.346,27.346,0,0,1,12.627,51.56l5.6-5.628a19.6,19.6,0,0,0,26.411-.073l5.626,5.6A27.442,27.442,0,0,1,31.4,58.938ZM58.934,31.369a27.386,27.386,0,0,1-7.379,18.784l-5.626-5.6a19.6,19.6,0,0,0-.074-26.411l5.6-5.627a27.323,27.323,0,0,1,7.483,18.786Z" transform="translate(-2.005 -2)" fill="#1b78fe"/>
  <path id="Path_6633" data-name="Path 6633" d="M25.306,32.053H22.054a1.839,1.839,0,0,0-1.837,1.837v7.531a1.839,1.839,0,0,0,1.837,1.837h3.253a1.839,1.839,0,0,0,1.837-1.837V33.89A1.839,1.839,0,0,0,25.306,32.053Zm0,9.367H22.054V33.89h3.253Z" transform="translate(-3.492 -4.453)" fill="#1b78fe"/>
  <path id="Path_6634" data-name="Path 6634" d="M30.229,23.015V40.533a1.839,1.839,0,0,0,1.837,1.837h3.253a1.839,1.839,0,0,0,1.837-1.837V23.015a1.839,1.839,0,0,0-1.837-1.837H32.066A1.839,1.839,0,0,0,30.229,23.015Zm5.09,17.518H32.066V23.015h3.253Z" transform="translate(-4.309 -3.566)" fill="#1b78fe"/>
  <path id="Path_6635" data-name="Path 6635" d="M42.078,42.845h3.253a1.839,1.839,0,0,0,1.837-1.837V28.84A1.839,1.839,0,0,0,45.331,27H42.078a1.839,1.839,0,0,0-1.837,1.837V41.008A1.839,1.839,0,0,0,42.078,42.845Zm0-14.005h3.253v12.17H42.078Z" transform="translate(-5.126 -4.041)" fill="#1b78fe"/>
</svg>
