<svg xmlns="http://www.w3.org/2000/svg" width="27.772" height="27.817" viewBox="0 0 27.772 27.817">
  <g id="phone" transform="translate(-2136.612 349)">
    <path id="Path_34351" data-name="Path 34351" d="M107.26,108.667l-3.571-2.81a1.742,1.742,0,0,0-2.4.234c-.644.732-1.054,1.229-1.2,1.347-1.083,1.083-3.337-.5-5.737-2.9s-3.951-4.625-2.868-5.708c.117-.117.615-.556,1.347-1.2a1.742,1.742,0,0,0,.234-2.4l-2.81-3.571a1.778,1.778,0,0,0-2.049-.527,14.99,14.99,0,0,0-3.161,2.312c-2.576,2.605.644,8.518,6.264,14.167s11.562,8.869,14.138,6.264a14.984,14.984,0,0,0,2.312-3.161,1.716,1.716,0,0,0-.5-2.049Z" transform="translate(2052.469 -435.976)" fill="#fff"/>
    <path id="Path_34352" data-name="Path 34352" d="M332.334,188.152a1.158,1.158,0,0,0-1.434,1.2,1.221,1.221,0,0,0,.878,1.054,3.538,3.538,0,0,1,2.605,2.605,1.125,1.125,0,0,0,1.054.878,1.158,1.158,0,0,0,1.2-1.434,5.5,5.5,0,0,0-1.522-2.752,5.748,5.748,0,0,0-2.781-1.551Z" transform="translate(1818.614 -528.019)" fill="#fff"/>
    <path id="Path_34353" data-name="Path 34353" d="M334.745,111.412a1.161,1.161,0,0,0,1.229-1.259,10.315,10.315,0,0,0-9.425-9.425,1.161,1.161,0,0,0-.2,2.312,7.855,7.855,0,0,1,5.006,2.342,8.146,8.146,0,0,1,2.342,5.006,1.063,1.063,0,0,0,1.054,1.024Z" transform="translate(1823.93 -445.189)" fill="#fff"/>
    <path id="Path_34354" data-name="Path 34354" d="M329.776,18.313a14.92,14.92,0,0,0-10.04-4.332,1.137,1.137,0,0,0-1.171,1.229,1.169,1.169,0,0,0,1.112,1.083,12.571,12.571,0,0,1,12.089,12.118,1.157,1.157,0,0,0,2.312-.058,14.754,14.754,0,0,0-4.3-10.041Z" transform="translate(1830.304 -362.98)" fill="#fff"/>
  </g>
</svg>
