<?xml version="1.0" encoding="utf-8"?>
<!-- Generator: Adobe Illustrator 27.6.1, SVG Export Plug-In . SVG Version: 6.00 Build 0)  -->
<svg version="1.1" id="Group_40124" xmlns="http://www.w3.org/2000/svg" xmlns:xlink="http://www.w3.org/1999/xlink" x="0px"
	 y="0px" viewBox="0 0 28.6 29.8" style="enable-background:new 0 0 28.6 29.8;" xml:space="preserve">
<style type="text/css">
	.st0{fill:#C1C2CC;}
</style>
<path id="Path_6836" class="st0" d="M11.3,3.2l-0.8-0.8L11.9,1c1.3-1.3,3.5-1.3,4.8,0l1.4,1.4l-0.8,0.8l-1.4-1.4
	c-0.9-0.9-2.3-0.9-3.2,0L11.3,3.2z"/>
<rect id="Rectangle_3198" x="4.6" y="11.8" transform="matrix(0.5422 -0.8403 0.8403 0.5422 -12.1088 12.2081)" class="st0" width="1.1" height="10.9"/>
<rect id="Rectangle_3199" x="18" y="16.6" transform="matrix(0.8403 -0.5422 0.5422 0.8403 -5.5838 15.4694)" class="st0" width="10.9" height="1.1"/>
<path id="Path_6837" class="st0" d="M26.3,15.4h-1.1V5.2c0-1-0.7-1.8-1.7-1.8H5.2c-1,0-1.7,0.8-1.7,1.8c0,0,0,0,0,0v7.9H2.3V5.2
	c0-1.6,1.3-2.9,2.9-2.9h18.3c1.6,0,2.9,1.3,2.9,3c0,0,0,0,0,0L26.3,15.4z"/>
<path id="Path_6838" class="st0" d="M27.1,29L15.6,17.5c-0.7-0.7-1.9-0.7-2.6,0L1.5,29l-0.8-0.8l11.4-11.4c1.2-1.2,3.1-1.2,4.2,0
	c0,0,0,0,0,0l11.4,11.4L27.1,29z"/>
<path id="Path_6842" class="st0" d="M25.5,29.8H3.1c-1.8,0-3.2-1.5-3.1-3.2c0,0,0,0,0,0V13.2c0-0.2,0.1-0.3,0.2-0.4l2.3-2.3l0.8,0.8
	l-2.1,2.1v13.2c0,1.1,0.9,2,2,2.1c0,0,0,0,0,0h22.3c1.1,0,2-0.9,2-2.1c0,0,0,0,0,0V13.4l-2.1-2.1l0.8-0.8l2.3,2.3
	c0.1,0.1,0.2,0.3,0.2,0.4v13.4C28.6,28.3,27.2,29.7,25.5,29.8C25.5,29.8,25.5,29.8,25.5,29.8L25.5,29.8z"/>
</svg>
