<?xml version="1.0" encoding="utf-8"?>
<!-- Generator: Adobe Illustrator 27.6.1, SVG Export Plug-In . SVG Version: 6.00 Build 0)  -->
<svg version="1.1" id="Layer_1" xmlns="http://www.w3.org/2000/svg" xmlns:xlink="http://www.w3.org/1999/xlink" x="0px" y="0px"
	 viewBox="0 0 31.4 31.5" style="enable-background:new 0 0 31.4 31.5;" xml:space="preserve">
<style type="text/css">
	.st0{fill:#C1C2CC;stroke:#7E7E7E;stroke-width:0.2;}
</style>
<g id="Group_40120" transform="translate(0.1 0.116)">
	<g id="Group_3806">
		<path id="Path_6849" class="st0" d="M30.8,13.7c0.1,0,0.1,0,0.2,0c0,0,0,0,0,0c0,0,0.1,0,0.1-0.1l0,0c0,0,0,0,0,0c0,0,0,0,0-0.1
			c0,0,0-0.1,0-0.1c0,0,0,0,0-0.1v0c0,0,0-0.1,0-0.1c0,0,0,0,0-0.1c0,0,0,0,0-0.1c0,0,0,0-0.1-0.1c0,0,0,0,0,0L15.9,0.1
			c-0.1-0.1-0.4-0.1-0.5,0L0.1,13c0,0,0,0,0,0c0,0,0,0-0.1,0.1c0,0,0,0,0,0.1c0,0,0,0,0,0.1c0,0,0,0,0,0.1v0c0,0,0,0,0,0.1
			c0,0,0,0.1,0,0.1c0,0,0,0.1,0,0.1l0,0c0,0,0,0,0,0c0,0,0,0,0.1,0.1c0,0,0,0,0.1,0c0,0,0,0,0.1,0c0,0,0.1,0,0.1,0h4.2v13.7H0.4
			c-0.2,0-0.4,0.2-0.4,0.4c0,0,0,0,0,0v3c0,0.2,0.2,0.4,0.4,0.4c0,0,0,0,0,0h30.5c0.2,0,0.4-0.2,0.4-0.4c0,0,0,0,0,0v-3
			c0-0.2-0.2-0.4-0.4-0.4c0,0,0,0,0,0h-4.2V13.7H30.8z M27.8,28.2h2.7v2.3H0.8v-2.3H27.8z M5.3,27.4V13.7h2.3v13.7L5.3,27.4z
			 M8.4,27.4V13.7h5.3v13.7L8.4,27.4z M14.5,27.4V13.7h2.3v13.7L14.5,27.4z M17.5,27.4V13.7h5.3v13.7L17.5,27.4z M23.6,27.4V13.7
			h2.3v13.7L23.6,27.4z M26.3,13H1.4L15.6,0.9L29.8,13H26.3z"/>
	</g>
</g>
</svg>
