<?xml version="1.0" encoding="utf-8"?>
<!-- Generator: Adobe Illustrator 27.6.1, SVG Export Plug-In . SVG Version: 6.00 Build 0)  -->
<svg version="1.1" id="Group_40122" xmlns="http://www.w3.org/2000/svg" xmlns:xlink="http://www.w3.org/1999/xlink" x="0px"
	 y="0px" viewBox="0 0 29 29" style="enable-background:new 0 0 29 29;" xml:space="preserve">
<style type="text/css">
	.st0{fill:#C1C2CC;}
</style>
<path id="Path_6850" class="st0" d="M2.6,29h23.8c0.8,0,1.6-0.4,2.1-1c0.5-0.6,0.7-1.4,0.5-2.2c-1.4-5.5-7.5-9.6-14.4-9.6
	s-13.1,4-14.4,9.6c-0.2,0.8,0,1.6,0.5,2.2C1,28.7,1.8,29,2.6,29z M1.6,26.2c1.2-4.8,6.6-8.3,12.9-8.3s11.7,3.5,12.9,8.3
	c0.1,0.3,0,0.6-0.2,0.8c-0.2,0.2-0.5,0.4-0.8,0.4H2.6c-0.3,0-0.6-0.1-0.8-0.4C1.6,26.8,1.6,26.5,1.6,26.2L1.6,26.2z M14.5,14.5
	c4,0,7.3-3.2,7.3-7.3S18.5,0,14.5,0S7.3,3.2,7.3,7.3S10.5,14.5,14.5,14.5L14.5,14.5z M14.5,1.6c3.1,0,5.6,2.5,5.6,5.6
	s-2.5,5.6-5.6,5.6s-5.6-2.5-5.6-5.6c0,0,0,0,0,0C8.9,4.1,11.4,1.6,14.5,1.6L14.5,1.6z"/>
</svg>
