<svg xmlns:xlink="http://www.w3.org/1999/xlink" xmlns="http://www.w3.org/2000/svg" width="60" height="48" viewBox="0 0 60 48"><g id="CONSULTATION" transform="translate(-2 -8)"><path id="Path_610" data-name="Path 610" d="M61.3,20.584,51.087,9.037a3,3,0,0,0-2.3-.966,5.041,5.041,0,0,0-3.232,1.312,4.837,4.837,0,0,0-1.73,3.186l-1.854,1.623c-2.519-.994-6.146.309-8.747,1.655l-.054-.038c-.9-.633-8.11-4.418-12.045-2.373l-2.009-1.427a4.861,4.861,0,0,0-2.038-3A5.184,5.184,0,0,0,14.122,8a3.111,3.111,0,0,0-2.579,1.2L2.525,21.688c-1.107,1.531-.41,3.844,1.586,5.266a5.19,5.19,0,0,0,2.958,1.007,3.447,3.447,0,0,0,1.575-.369L10.1,28.629c-.664,3.543,3,7.912,4.832,9.578l-1.2,1.048c-1.1.967-.9,2.874.484,4.435a4.254,4.254,0,0,0,2.788,1.521,4.811,4.811,0,0,0,1.151,2.2A4.239,4.239,0,0,0,21.126,49c.079,0,.155-.012.231-.018a5.429,5.429,0,0,0,1.1,1.833,4.316,4.316,0,0,0,2.972,1.64c.033,0,.064-.007.1-.007a5.62,5.62,0,0,0,1.13,1.861A4.376,4.376,0,0,0,29.63,56a1.683,1.683,0,0,0,1.124-.4l3.813-3.334,1.021.725a3.453,3.453,0,0,0,2.005.633,3.737,3.737,0,0,0,3.71-3.552,3.592,3.592,0,0,0,1.482.063,3.6,3.6,0,0,0,2.369-1.455,3.559,3.559,0,0,0,.662-1.956,4.193,4.193,0,0,0,1.176.179,3.914,3.914,0,0,0,.632-.051,3.485,3.485,0,0,0,2.3-1.39,3.394,3.394,0,0,0,.634-1.994,3.814,3.814,0,0,0-.029-.453,3.725,3.725,0,0,0,.471.04A4,4,0,0,0,51.656,43a3.372,3.372,0,0,0,2.232-1.335,3.249,3.249,0,0,0,.607-1.918,4.4,4.4,0,0,0-1.961-3.529l-.266-.19c1.245-1.879,2.967-5.132,2.184-7.8l1.337-1.172a3.323,3.323,0,0,0,1.22.228,5.054,5.054,0,0,0,3.23-1.308C62.084,24.368,62.55,22,61.3,20.584ZM8.072,25.643a1.229,1.229,0,0,1-1,.4A3.264,3.264,0,0,1,5.241,25.4C4.067,24.563,3.7,23.36,4.1,22.806l9.018-12.488a1.241,1.241,0,0,1,1.006-.4,3.283,3.283,0,0,1,1.829.645c1.173.836,1.544,2.036,1.143,2.592ZM17.58,43.059l0,.006-.264.23a.289.289,0,0,1-.131.023,2.378,2.378,0,0,1-1.507-.893c-.781-.885-.756-1.65-.659-1.734l6.332-5.533a.243.243,0,0,1,.131-.024,2.388,2.388,0,0,1,1.506.894c.782.882.757,1.647.659,1.733l-.542.473Zm4.2,3.494a.215.215,0,0,0-.025.029l-.568.5a.213.213,0,0,1-.06.006,2.488,2.488,0,0,1-1.514-.938,2.371,2.371,0,0,1-.752-1.65l.077-.067,5.8-5.027a2.478,2.478,0,0,1,1.513.937A2.372,2.372,0,0,1,27,41.992l-.725.633ZM25.9,50.122l0,.005-.473.413a2.7,2.7,0,0,1-1.5-.986,2.642,2.642,0,0,1-.8-1.614l2-1.744,3.211-2.805a3.435,3.435,0,0,1,2.3,2.6Zm3.735,4.92v-.959h0Zm-.06-.966a3.091,3.091,0,0,1-1.455-1.028,3.134,3.134,0,0,1-.845-1.571l4.678-4.085a3.884,3.884,0,0,1,2.3,2.6Zm9.46-3.123a1.692,1.692,0,0,1-2.316.479l-.753-.536c.49-.928.088-2.394-1.1-3.74a5.016,5.016,0,0,0-2.325-1.56,4.5,4.5,0,0,0-.924-2.064l.3.211s0,0,.006.006l6.836,4.874a1.515,1.515,0,0,1,.636,1.268A1.817,1.817,0,0,1,39.03,50.953Zm13.53-11.2a1.344,1.344,0,0,1-.245.8,1.464,1.464,0,0,1-.974.558,2.683,2.683,0,0,1-1.963-.524L38.862,33.1a.975.975,0,0,0-1.078-.032.951.951,0,0,0-.1.093.912.912,0,0,0-.172.157h0s-.007.006-.01.01a.954.954,0,0,0,.223,1.339l9.911,7.052a2.22,2.22,0,0,1,.985,1.755,1.483,1.483,0,0,1-.273.881,1.56,1.56,0,0,1-1.038.612,2.331,2.331,0,0,1-1.695-.433l-1.331-.947a.6.6,0,0,0-.063-.05l-8.014-5.7a.448.448,0,0,0-.044-.032l-.377-.27a.975.975,0,0,0-1.351.219.951.951,0,0,0,.221,1.337l.3.21c.028.023.058.047.087.069l.187.132,6.837,4.871c.027.02.055.036.083.053l.98.7c.013.012.026.023.038.032A1.85,1.85,0,0,1,43.89,46.6a1.66,1.66,0,0,1-1.418,1.64,1.89,1.89,0,0,1-1.4-.337l-6.735-4.794-1.609-1.146a.976.976,0,0,0-1.352.21.937.937,0,0,0-.09.942,4.808,4.808,0,0,0-2.374-1.527,4.6,4.6,0,0,0-1.2-2.515,4.762,4.762,0,0,0-2.085-1.4,4.206,4.206,0,0,0-1.18-2.909c-1.328-1.5-3.312-1.973-4.372-1.044l-3.675,3.211c-1.518-1.312-5.286-5.725-4.28-8.355.008-.022,0-.044.01-.065a.847.847,0,0,0,.032-.192.874.874,0,0,0,.006-.177.914.914,0,0,0-.043-.177.815.815,0,0,0-.063-.169.777.777,0,0,0-.1-.146.874.874,0,0,0-.135-.144c-.018-.014-.025-.034-.045-.049l-1.735-1.236L18.667,14.27c.035-.05.055-.106.087-.157l1.766,1.253a.375.375,0,0,0,.057.028,1.186,1.186,0,0,0,.106.055,1,1,0,0,0,.222.07.762.762,0,0,0,.1.016c.024,0,.049.012.073.012s.063-.02.1-.022a.906.906,0,0,0,.254-.061.761.761,0,0,0,.146-.072.806.806,0,0,0,.1-.048c2.028-1.566,7.343.337,9.65,1.594a10.3,10.3,0,0,0-1.113.8.957.957,0,0,0-.147.193.958.958,0,0,0-.229.132L21.2,25.6a2.935,2.935,0,0,0-.993,2.248,4,4,0,0,0,1.025,2.579A3.94,3.94,0,0,0,23.9,31.779c.066,0,.131.006.2.006a2.906,2.906,0,0,0,1.937-.707l8.05-7.013a5.091,5.091,0,0,0,1.889,1.615.941.941,0,0,0,.262.329L50.366,37.037l0,0h0l1.039.741A2.528,2.528,0,0,1,52.56,39.749Zm-.181-11.631a.98.98,0,0,0,.051.189c.008.02.007.041.016.062.807,1.63-.28,4.291-1.726,6.5L39.513,26.123a5.45,5.45,0,0,0,.819-.244,5.176,5.176,0,0,0,2.9-6.736.968.968,0,0,0-1.259-.528.956.956,0,0,0-.534,1.248A3.264,3.264,0,0,1,39.6,24.1a3.309,3.309,0,0,1-2.535-.012,3.213,3.213,0,0,1-1.747-1.757,1.016,1.016,0,0,0-.089-.135.952.952,0,0,0-.361-.487.974.974,0,0,0-1.342.268,1.105,1.105,0,0,1-.114.118l-8.656,7.54a1.007,1.007,0,0,1-.734.223,2.024,2.024,0,0,1-1.335-.7,2.062,2.062,0,0,1-.548-1.316,1.035,1.035,0,0,1,.33-.805l8.662-7.554.01-.01a.834.834,0,0,0,.127-.171.921.921,0,0,0,.231-.137c1.188-1.044,7.524-4.652,10.111-3.025a.422.422,0,0,0,.07.027.851.851,0,0,0,.172.064.88.88,0,0,0,.2.043c.025,0,.05.016.075.016a.94.94,0,0,0,.118-.021,1.3,1.3,0,0,0,.146-.026.936.936,0,0,0,.188-.081.872.872,0,0,0,.135-.08c.018-.014.038-.018.054-.031L44.4,14.628c.037.047.061.1.1.147l9.775,11.053-1.6,1.4c-.016.016-.022.035-.037.052a.847.847,0,0,0-.12.155.938.938,0,0,0-.089.153.971.971,0,0,0-.046.174.672.672,0,0,0,0,.356Zm6.582-3.579a3.142,3.142,0,0,1-1.952.83,1.107,1.107,0,0,1-.842-.311L45.954,13.512c-.453-.514-.2-1.745.882-2.691a3.136,3.136,0,0,1,1.953-.831,1.111,1.111,0,0,1,.843.312L59.843,21.849C60.3,22.361,60.046,23.592,58.961,24.539Z" fill="#FFC529"></path></g></svg>