<svg version="1.2" xmlns="http://www.w3.org/2000/svg" viewBox="0 0 166 66" width="166" height="66"><style>.a{fill:#16191d}.b{fill:#595a70}</style><path fill-rule="evenodd" class="a" d="m64.4 42.2v-17.9h7.2q2.8 0 4.3 1.3 1.5 1.3 1.5 3.3 0 1.7-0.9 2.7-0.9 1-2.2 1.4 1.5 0.3 2.5 1.5 1 1.2 1 2.9 0 2.1-1.5 3.5-1.6 1.3-4.4 1.3zm3.3-10.3h3.4q1.4 0 2.2-0.7 0.7-0.6 0.7-1.8 0-1.1-0.7-1.8-0.8-0.6-2.2-0.6h-3.4zm0 7.7h3.7q1.4 0 2.2-0.7 0.8-0.7 0.8-1.9 0-1.2-0.8-2-0.9-0.7-2.3-0.7h-3.6zm12.6-15.2h3.3v17.9h-3.3zm6.4 17.9v-17.9h3.3l8.4 12.6v-12.6h3.3v17.9h-3.3l-8.4-12.6v12.6zm26.6 0.3q-2.7 0-4.7-1.2-2-1.2-3.2-3.2-1.1-2.1-1.1-4.9 0-2.7 1.1-4.8 1.2-2.1 3.2-3.2 2-1.2 4.7-1.2 2.7 0 4.7 1.2 2 1.1 3.1 3.2 1.2 2.1 1.2 4.8 0 2.8-1.2 4.9-1.1 2-3.1 3.2-2 1.2-4.7 1.2zm0-2.9q2.6 0 4.1-1.7 1.5-1.7 1.5-4.7 0-2.9-1.5-4.6-1.5-1.7-4.1-1.7-2.6 0-4.1 1.7-1.6 1.7-1.6 4.6 0 3 1.6 4.7 1.5 1.7 4.1 1.7zm19.7 2.9q-2.7 0-4.7-1.2-1.9-1.1-3-3.2-1-2.1-1-4.8 0-2.8 1-4.9 1.1-2.1 3-3.2 2-1.2 4.7-1.2 3.2 0 5.3 1.6 2 1.6 2.6 4.5h-3.7q-0.3-1.5-1.4-2.3-1.1-0.9-2.9-0.9-2.5 0-3.9 1.7-1.4 1.7-1.4 4.7 0 2.9 1.4 4.6 1.4 1.7 3.9 1.7 1.8 0 2.9-0.8 1.1-0.8 1.4-2.2h3.7q-0.6 2.8-2.6 4.3-2.1 1.6-5.3 1.6zm16.6 0q-2 0-3.5-0.7-1.5-0.7-2.4-1.9-0.9-1.3-0.9-3.1h3.5q0 1.2 0.9 2.1 0.8 0.9 2.3 0.9 1.4 0 2.1-0.7 0.8-0.6 0.8-1.6 0-1.1-0.7-1.8-0.7-0.6-1.8-1-1.1-0.3-2.4-0.8-2.1-0.7-3.2-1.8-1.1-1.1-1.1-3 0-1.6 0.8-2.7 0.8-1.2 2.1-1.8 1.4-0.6 3.2-0.6 1.8 0 3.1 0.6 1.4 0.7 2.2 1.8 0.8 1.2 0.8 2.7h-3.5q0-0.9-0.7-1.6-0.7-0.8-2-0.8-1.1 0-1.8 0.6-0.7 0.5-0.7 1.6 0 0.9 0.5 1.4 0.6 0.5 1.6 0.9 1 0.3 2.2 0.7 1.3 0.5 2.4 1.1 1.2 0.6 1.8 1.6 0.7 1 0.7 2.6 0 1.4-0.7 2.6-0.8 1.2-2.2 2-1.4 0.7-3.4 0.7z"/><path class="b" d="m24.7 24.5c0.3 0 0.5 0 0.8 0 5.5 0 10 3.8 10 8.7 0 3.6-2.5 6.7-6.1 8-0.2 0-0.3 0-0.6 0-5.4 0-10-3.8-10-8.7 0-3.6 2.4-6.6 5.9-8l-20.4 0.1c0 12.1 11.2 21.9 25.1 21.9v-5.1h20.5c0-12.1-11.3-21.9-25.2-21.9z"/></svg>