<?xml version="1.0" encoding="utf-8"?>
<!-- Generator: Adobe Illustrator 26.5.0, SVG Export Plug-In . SVG Version: 6.00 Build 0)  -->
<svg version="1.1" id="elevate" xmlns="http://www.w3.org/2000/svg" xmlns:xlink="http://www.w3.org/1999/xlink" x="0px" y="0px"
	 viewBox="0 0 250 100" style="enable-background:new 0 0 250 100;" xml:space="preserve">
<style type="text/css">
	.st0{fill:#464948;}
</style>
<path id="Path_24600" class="st0" d="M40.7,55.5H22.4c0.1,1.7,0.9,3.3,2.2,4.4c1.3,1.1,3,1.8,4.7,1.7c2.8-0.1,5.6-0.9,8-2.3l1.9,3.9
	c-2.9,2.5-6.7,3.8-10.6,3.7c-4.5,0-8.1-1.3-10.6-3.8c-2.4-2.4-3.6-5.7-3.6-9.9c-0.1-3.8,1.4-7.5,4.1-10.2c2.5-2.5,5.9-3.8,9.4-3.7
	c4.2,0,7.5,1.4,9.9,4.2c2.1,2.6,3.2,5.9,3.1,9.3L40.7,55.5z M22,50.2h11.3c-0.2-3.8-2.1-5.7-5.6-5.7C24.3,44.5,22.4,46.4,22,50.2z"
	/>
<path id="Path_24601" class="st0" d="M51.1,29.1v37.2h-7.4V32.9L51.1,29.1z"/>
<path id="Path_24602" class="st0" d="M80.5,55.5H62.2c0.1,1.7,0.9,3.3,2.2,4.4c1.3,1.1,3,1.8,4.7,1.7c2.8-0.1,5.6-0.9,8-2.3l1.9,3.9
	c-2.9,2.5-6.7,3.8-10.6,3.7c-4.5,0-8.1-1.3-10.6-3.8c-2.4-2.4-3.6-5.7-3.6-9.9c-0.1-3.8,1.4-7.5,4.1-10.2c2.5-2.5,5.9-3.8,9.4-3.7
	c4.2,0,7.5,1.4,9.9,4.2c2.1,2.6,3.2,5.9,3.1,9.3L80.5,55.5z M61.8,50.2h11.3c-0.2-3.8-2.1-5.7-5.6-5.7
	C64.1,44.5,62.2,46.4,61.8,50.2z"/>
<path id="Path_24603" class="st0" d="M96.6,66.3h-5.8L80.4,40.1h7.5l5.7,17.3l6.1-17.3h7.8l-1.1,2.7l-1.3,3.1
	C101.3,54.8,98.5,61.5,96.6,66.3z"/>
<path id="Path_24604" class="st0" d="M130,66.3H124l-0.6-2.5c-2.2,2-5,3.1-7.9,3.2c-5.9,0-8.9-2.8-8.9-8.5c-0.1-2.7,1.4-5.2,3.7-6.6
	c2.5-1.6,6.2-2.4,11.1-2.4h1.2v-0.1c0-1.7-0.4-2.8-1.1-3.4s-2-0.9-3.8-0.9c-2.6,0-5.1,0.8-7.1,2.4c-0.7-1.3-1.4-2.5-2-3.8
	c1.8-1.4,3.7-2.6,5.8-3.4c1.9-0.7,4-1,6-0.9c6.3,0,9.4,3.8,9.4,11.5L130,66.3z M122.5,53.9h-0.9c-1.9-0.1-3.7,0.3-5.4,1.2
	c-1.2,0.5-2,1.7-2.1,3.1c0,2.4,1.1,3.6,3.2,3.6c1.2,0,2.4-0.4,3.4-1.1c0.9-0.7,1.6-1.6,1.8-2.8V53.9z"/>
<path id="Path_24605" class="st0" d="M151.4,45.9h-7.6v13c0,1.9,0.6,2.9,1.9,2.9c1.6-0.1,3.1-0.6,4.4-1.5l2.5,3.7
	c-2.6,2.1-5.9,3.2-9.2,3.2c-4.7,0-7-2.5-7-7.6V45.9h-3.7v-5.8h3.8v-4.7c2-1,4.4-2.3,7.5-3.9v8.5h7.6L151.4,45.9z"/>
<path id="Path_24606" class="st0" d="M178.9,55.5h-18.3c0.1,1.7,0.9,3.3,2.2,4.4c1.3,1.1,3,1.8,4.7,1.7c2.8-0.1,5.6-0.9,8-2.3
	l1.9,3.9c-2.9,2.5-6.7,3.8-10.6,3.7c-4.5,0-8.1-1.3-10.6-3.8c-2.4-2.4-3.6-5.7-3.6-9.9c-0.1-3.8,1.4-7.5,4.1-10.2
	c2.5-2.5,5.9-3.8,9.4-3.7c4.2,0,7.5,1.4,9.9,4.2c2.1,2.6,3.2,5.9,3.1,9.3L178.9,55.5z M160.2,50.2h11.3c-0.2-3.8-2.1-5.7-5.6-5.7
	C162.5,44.5,160.6,46.4,160.2,50.2z"/>
<path id="Path_24607" class="st0" d="M182.9,66.3V38.6h6.1v11h11.7v-11h6.3v27.7h-6.3V54.5H189v11.8H182.9z"/>
<path id="Path_24608" class="st0" d="M230.1,64.8c1.7,1.9,3.6,3.9,5.6,6.2h-7.3l-3.7-4.2c-0.6,0.1-1.4,0.1-2.2,0.1
	c-4.4,0-7.8-1.5-10.1-4.6c-1.9-2.7-2.9-5.9-2.8-9.2c0-4.6,1.3-8.3,3.8-11.1c2.3-2.6,5.7-4,9.1-3.8c4-0.2,7.9,1.8,10.1,5.2
	c1.9,2.9,2.9,6.3,2.8,9.8C235.4,58.3,233.6,62.2,230.1,64.8z M216.1,53c0,5.7,2.1,8.6,6.4,8.6c4.2,0,6.3-2.9,6.3-8.6
	c0-3.2-0.6-5.7-1.8-7.4c-1-1.5-2.7-2.4-4.5-2.3c-1.9-0.1-3.7,0.9-4.8,2.5C216.5,48,216,50.5,216.1,53z"/>
</svg>
