<svg version="1.2" xmlns="http://www.w3.org/2000/svg" viewBox="0 0 164 66" width="164" height="66"><style>.a{fill:#f27930}.b{fill:#143a72}</style><filter id="f0"><feFlood flood-color="#44455f" flood-opacity="1" /><feBlend mode="normal" in2="SourceGraphic"/><feComposite in2="SourceAlpha" operator="in" /></filter><g filter="url(#f0)"><path fill-rule="evenodd" class="a" d="m47.9 3.8l5.4 4.7q0.7 0.6 1.2 1.3 0.5 0.8 0.8 1.6 0.3 0.9 0.5 1.8 0.1 0.9 0 1.7c0 5.8-5.8 8.4-7.8 13.2q-0.3 0.5-0.4 1.1-0.2 0.5-0.3 1-0.1 0.6-0.2 1.1 0 0.6 0 1.2c0.1 0.5 0.4 2.9 1.1 3 5.1 1.2 9.2-2.4 7.6-8.1q-0.1-0.4-0.2-0.8-0.1-0.4-0.3-0.8-0.2-0.4-0.4-0.8-0.2-0.4-0.5-0.7h0.3l5.4 4.7q0.4 0.4 0.7 0.9 0.3 0.4 0.5 0.9 0.3 0.4 0.4 1 0.1 0.5 0.2 1 0.1 1.5-0.5 3-0.5 1.5-1.5 2.6-1.1 1.2-2.5 1.8-1.5 0.6-3 0.6-0.6 0.1-1.2 0-0.6-0.1-1.2-0.3-0.6-0.3-1.1-0.6-0.5-0.3-1-0.6l-6.2-5.5q-0.6-0.5-1-1.2-0.5-0.7-0.8-1.4-0.3-0.8-0.4-1.6-0.1-0.8 0-1.6c0-5.4 4.3-8.5 6.3-13.1q0.3-0.7 0.5-1.4 0.2-0.7 0.4-1.4 0.1-0.8 0.2-1.5 0-0.7 0-1.5 0.1-0.6 0-1.3 0-0.7-0.1-1.3-0.2-0.7-0.5-1.3-0.2-0.6-0.6-1.1z"/><path fill-rule="evenodd" class="b" d="m61.3 45.1c0 0 6 5.1 6.4 5.6l-0.3 0.1q-0.6-0.6-1.4-1-0.8-0.4-1.6-0.7-0.8-0.3-1.6-0.4-0.9-0.2-1.7-0.2-0.9 0-1.7 0.1-0.8 0.1-1.7 0.2-0.8 0.2-1.6 0.5-0.8 0.2-1.6 0.5-1.4 0.5-2.8 1.1-0.6 0.3-1.1 0.4-0.6 0.2-1.1 0.3-0.6 0.1-1.2 0.1-0.6 0-1.1 0-0.9-0.2-1.8-0.6-0.8-0.3-1.6-0.7-0.8-0.5-1.6-1.1-0.7-0.5-1.3-1.2l-5.3-4.5c0.1 0 0.3-0.1 0.4-0.1q1 0.7 2.2 1.1 1.2 0.5 2.4 0.8 1.3 0.2 2.6 0.3 1.2 0 2.5-0.2c1.5-0.2 6.9-2.8 8.5-2.8q0.3 0 0.7 0 0.4-0.1 0.8 0 0.3 0 0.7 0 0.4 0.1 0.8 0.1 0.5 0.2 1.1 0.4 0.5 0.3 1 0.6 0.5 0.2 1 0.6 0.5 0.3 1 0.7z"/><path class="a" d="m65.8 46.2c1.2-0.1 2.2-0.2 2.3-0.7q0-0.1 0.1-0.3 0-0.2 0-0.4 0-0.2 0-0.4 0-0.2 0-0.4v-11.7q0-0.2 0-0.4 0-0.2 0-0.4 0-0.2 0-0.4-0.1-0.2-0.1-0.4c-0.1-0.4-1.1-0.6-2.3-0.6v-0.8h8.7v0.8c-1.2 0-2.2 0.2-2.3 0.6q0 0.2 0 0.4-0.1 0.2-0.1 0.4 0 0.2 0 0.4 0 0.2 0 0.4v11.9c0 1.7 1 1.8 3.3 1.8 3.6 0 4.1-1.3 5.2-3.6h0.8l-0.8 4.6h-14.8z"/><path class="a" d="m89.6 44q0 0.2 0 0.4 0 0.2 0 0.4 0 0.2 0.1 0.4 0 0.2 0 0.3c0.1 0.5 1.1 0.6 2.3 0.7v0.8h-8.7v-0.8c1.2-0.1 2.2-0.2 2.3-0.7q0-0.1 0.1-0.3 0-0.2 0-0.4 0-0.2 0-0.4 0-0.2 0-0.4v-11.7q0-0.2 0-0.4 0-0.2 0-0.4 0-0.2 0-0.4-0.1-0.2-0.1-0.4c-0.1-0.4-1.1-0.6-2.3-0.6v-0.8h8.7v0.8c-1.2 0-2.2 0.2-2.3 0.6q0 0.2 0 0.4-0.1 0.2-0.1 0.4 0 0.2 0 0.4 0 0.2 0 0.4z"/><path class="a" d="m94.2 29.3h13.6v4.1h-0.7c-0.4-1.8-1.1-3.2-3.1-3.2h-3.5v7.6h2.6q0.5 0.1 1-0.1 0.5-0.1 0.9-0.5 0.4-0.4 0.5-0.8 0.2-0.5 0.2-1h0.7v5.9h-0.7c-0.1-1.4-0.7-2.6-2.6-2.6h-2.6v5.3q0 0.2 0 0.4 0 0.2 0 0.4 0 0.2 0 0.4 0.1 0.2 0.1 0.3c0.1 0.5 1.1 0.6 2.3 0.7v0.8h-8.7v-0.8c1.2-0.1 2.2-0.2 2.3-0.7q0-0.1 0-0.3 0.1-0.2 0.1-0.4 0-0.2 0-0.4 0-0.2 0-0.4v-11.7q0-0.2 0-0.4 0-0.2 0-0.4 0-0.2-0.1-0.4 0-0.2 0-0.4c-0.1-0.4-1.1-0.6-2.3-0.6 0 0 0-0.8 0-0.8z"/><path class="a" d="m109.2 46.2c1.2-0.1 2.1-0.2 2.3-0.7q0-0.1 0-0.3 0-0.2 0.1-0.4 0-0.2 0-0.4 0-0.2 0-0.4v-11.7q0-0.2 0-0.4 0-0.2 0-0.4-0.1-0.2-0.1-0.4 0-0.2 0-0.4c-0.2-0.4-1.1-0.6-2.3-0.6v-0.8h13.6v4.1h-0.7c-0.5-1.8-1.1-3.2-3.1-3.2h-3.5v7.1h2.3q0.5 0.1 1-0.1 0.5-0.1 0.8-0.5 0.4-0.4 0.6-0.8 0.2-0.5 0.1-1h0.8v5.9h-0.8q0.1-0.6-0.1-1-0.2-0.5-0.5-0.9-0.4-0.4-0.9-0.5-0.5-0.2-1-0.2h-2.3v5.8c0 1.9 1 2 3.3 2 3.5 0 4.1-1.3 5.2-3.6h0.8l-0.9 4.6h-14.7z"/><path fill-rule="evenodd" class="b" d="m124.6 25.1q0.1 0.1 0.1 0.2 0.1 0.1 0.1 0.2 0.1 0.1 0.1 0.2h-7.5q0-0.1 0.1-0.2 0-0.2 0.1-0.3 0.1-0.1 0.2-0.2 0.2-0.1 0.3-0.1c0.7-0.2 1-0.6 0.1-1.9l-3.6-5.2-3.5 4.9c-0.9 1.2-0.8 1.8-0.3 2.1q0.1 0 0.3 0.1 0.1 0.1 0.2 0.2 0.1 0.2 0.1 0.3 0.1 0.2 0.1 0.3h-10.7q0-0.1 0-0.3 0.1-0.1 0.2-0.3 0.1-0.1 0.3-0.2 0.1-0.1 0.3-0.1c0.7-0.3 0.7-0.9 0.4-1.8l-1.1-3h-6.7l-1.1 3.1c-0.3 0.8-0.1 1.5 0.6 1.7q0.1 0.1 0.3 0.2 0.1 0 0.2 0.2 0.1 0.1 0.1 0.2 0.1 0.2 0.1 0.3h-13.1q0-0.1 0.1-0.3 0-0.1 0.1-0.2 0.1-0.1 0.2-0.2 0.2-0.1 0.3-0.1c0.7-0.1 1.3-0.3 1.3-0.6q0.1-0.2 0.1-0.4 0-0.2 0-0.4 0-0.2 0-0.4 0-0.2 0-0.4v-9.7l-6.6 12.7h-0.6l-6.4-13.1h-0.1v9.4q0 0.2 0 0.4 0 0.2 0 0.4 0 0.2 0.1 0.4 0 0.3 0 0.5c0.1 0.6 0.6 1 1.4 1.2q0.2 0 0.3 0.1 0.1 0 0.2 0.1 0.1 0.2 0.2 0.3 0.1 0.1 0.1 0.3h-5.8q0-0.1 0.1-0.3 0-0.1 0.1-0.2 0.1-0.2 0.3-0.2 0.1-0.1 0.3-0.1c0.8-0.2 1.2-0.6 1.3-1.2q0.1-0.2 0.1-0.5 0-0.2 0-0.4 0-0.2 0-0.4 0.1-0.2 0.1-0.4v-11.1c-0.2-1.8-1-2.2-2.1-2.2-0.6-0.1-0.5-0.8-0.5-0.8h5.2l6.6 13.2 6.8-13.2h5q0 0.1-0.1 0.2 0 0.2-0.1 0.3-0.1 0.1-0.2 0.2-0.1 0.1-0.2 0.1c-1.4 0.2-1.9 1-1.9 2.5v11.5c0 0.5 0 0.8 0 1.1 0.3 1.5 2 1.2 2.3 1.1q0.3 0 0.6-0.1 0.4-0.2 0.7-0.4 0.2-0.2 0.5-0.4 0.2-0.3 0.3-0.6c1-1.9 4.3-10.2 6.6-15.8h1.8c1.6 4.2 4.9 12.6 5.9 15q0.1 0.3 0.2 0.5 0.2 0.3 0.3 0.5 0.2 0.2 0.3 0.4 0.2 0.2 0.4 0.4 0.1 0.1 0.3 0.1 0.2 0.1 0.3 0.1 0.2 0 0.4-0.1 0.1 0 0.2-0.1 0.3-0.2 0.5-0.5 0.3-0.2 0.5-0.4 0.2-0.3 0.4-0.6 0.2-0.2 0.3-0.5l4.1-5.7-4.2-6.4q-0.2-0.3-0.4-0.5-0.2-0.3-0.5-0.5-0.3-0.2-0.5-0.3-0.3-0.2-0.6-0.2-0.2-0.1-0.3-0.2-0.1-0.1-0.2-0.2-0.1-0.1-0.2-0.2 0-0.2 0-0.3h7.6q-0.1 0.1-0.1 0.2 0 0.2-0.1 0.3-0.1 0.1-0.2 0.2-0.1 0.1-0.3 0.1c-0.7 0.1-1.2 0.6-0.4 1.8l2.6 3.9 3-4c0.6-0.8 0.2-1.4-0.4-1.6q-0.1 0-0.3-0.1-0.1-0.1-0.2-0.3-0.1-0.1-0.1-0.2-0.1-0.2-0.1-0.3h5.7q0 0.1 0 0.3-0.1 0.1-0.2 0.2-0.1 0.1-0.2 0.2-0.1 0.1-0.2 0.1-0.3 0.1-0.6 0.2-0.3 0-0.6 0.2-0.2 0.1-0.5 0.3-0.2 0.2-0.4 0.4l-4.1 5.6 5.1 7.3c1.1 1.6 1.5 2.1 2.4 2.2q0.1 0.1 0.2 0.2zm-24.2-6.2l-2.7-7.5-3 7.5z"/><path class="b" d="m67 51.9h1.1v6.2h-1.1z"/><path class="b" d="m74.6 56.9l-1.9-5h-1.8v6.2h1.1v-5.1l1.9 5.1h0.1 1.7v-6.2h-1.1z"/><path class="b" d="m80.6 54.5c-1-0.3-1.2-0.5-1.2-1 0-0.6 0.5-0.7 1-0.7 0.5 0 1.7 0.1 1.7 0.1h0.1v-0.9q-0.3-0.1-0.5-0.1-0.2-0.1-0.4-0.1-0.3 0-0.5 0-0.2 0-0.5-0.1c-1.3 0-2 0.7-2 1.8 0 1.2 0.5 1.5 1.8 1.9 0.9 0.3 1.2 0.5 1.2 0.9 0 0.6-0.4 0.8-1.1 0.8-0.5 0-1.7-0.1-1.7-0.1h-0.1v1q0.2 0 0.5 0.1 0.2 0 0.4 0 0.3 0.1 0.5 0.1 0.3 0 0.5 0c1.4 0 2.1-0.6 2.1-1.9 0-1.1-0.5-1.4-1.8-1.8z"/><path class="b" d="m88 56.1c0 0.7-0.3 1-1.1 1-0.8 0-1.1-0.3-1.1-1v-4.2h-1.1v4.2c0 1.4 0.7 2.1 2.2 2.1 1.5 0 2.3-0.7 2.3-2.1v-4.2h-1.2z"/><path fill-rule="evenodd" class="b" d="m96.3 54.4q-0.1 0.3-0.2 0.5-0.1 0.3-0.3 0.5-0.2 0.2-0.4 0.3l1 2.4h-1.3l-0.8-2.1h-1.3v2.1h-1.1v-6.2h2.3q2.1 0 2.1 2 0 0.3 0 0.5zm-3.3 0.6h1.2q0.2 0 0.4-0.1 0.2-0.1 0.3-0.2 0.2-0.2 0.2-0.4 0.1-0.2 0.1-0.4 0-0.2-0.1-0.4-0.1-0.2-0.2-0.3-0.1-0.2-0.3-0.2-0.2-0.1-0.4-0.1h-1.2z"/><path fill-rule="evenodd" class="b" d="m101.9 51.9l1.5 6.2h-1.2l-0.3-1.3h-2.1l-0.3 1.3h-1.1v-0.1l1.5-6.1h2zm-1.2 0.9l-0.7 2.9h1.6l-0.6-2.9z"/><path class="b" d="m109.4 56.9l-1.9-5h-1.8v6.2h1.1v-5.1l2 5.1h1.7v-6.2h-1.1z"/><path class="b" d="m117 57c0 0-1.1 0.1-1.5 0.1-1 0-1.3-0.5-1.3-2.1 0-1.6 0.3-2.2 1.3-2.2 0.5 0 1.5 0.2 1.5 0.2h0.1v-1q-0.3-0.1-0.5-0.1-0.2-0.1-0.4-0.1-0.2 0-0.4 0-0.2 0-0.4 0c-1.9 0-2.3 1.2-2.3 3.2 0 2 0.3 3.2 2.3 3.2q0.2 0 0.4 0 0.2 0 0.4-0.1 0.2 0 0.4 0 0.2 0 0.4-0.1h0.1v-1z"/><path class="b" d="m123.4 52.9v-1h-3.8v6.2h3.8v-1h-2.7v-1.6h2.2v-1h-2.2v-1.6z"/></g></svg>