<svg version="1.2" xmlns="http://www.w3.org/2000/svg" viewBox="0 0 164 66" width="164" height="66"><style>.a{fill:#fff}</style><filter id="f0"><feFlood flood-color="#595a70" flood-opacity="1" /><feBlend mode="normal" in2="SourceGraphic"/><feComposite in2="SourceAlpha" operator="in" /></filter><g filter="url(#f0)"><path fill-rule="evenodd" class="a" d="m30.7 22c0 7.5 0 14.9 0 22.6-1.3 0-2.5 0-3.9 0 0-7.5 0-14.9 0-22.6 1.4 0 2.5 0 3.9 0zm89.7 22.6c0-7.5 0-15 0-22.6 1.3 0 2.5 0 3.8 0 0 7.6 0 15 0 22.6-1.4 0-2.5 0-3.8 0zm-32-15.2c-4.8-5.5-10.3-4.5-13.9 0.1q-1.3-1.4-2.6-2.7c2.7-6.1 14.2-7.8 19.2-0.1-0.9 1-1.8 1.9-2.7 2.7zm-13.9 7.8c3.7 4.4 9.3 5.4 13.6 0.2q1.3 1.4 2.7 2.8c-4.1 6.5-13.9 6.6-19.1-0.3 1-0.9 1.9-1.8 2.8-2.7zm71.2 3.6c5.7 0 11.3 0 17 0 0 1.3 0 2.5 0 3.8-5.6 0-11.2 0-17 0 0-1.3 0-2.4 0-3.8zm-32.4-14.9c-5.7 0-11.1 0-16.8 0 0-1.3 0-2.5 0-3.9 5.6 0 11.1 0 16.8 0 0 1.4 0 2.6 0 3.9zm-10.4 18.7c0-4.5 0-8.9 0-13.4 3.6-1.1 4.1-0.7 4.1 2.9q0 5.2 0 10.5c-1.6 0-2.8 0-4.1 0zm-53.6 0.1c0-1.3 0-2.5 0-3.9 5 0 10 0 15.2 0 0 1.3 0 2.5 0 3.9-5.2 0-10.1 0-15.2 0zm15-18.9c-5 0-9.9 0-15 0 0-1.2 0-2.4 0-3.8 4.9 0 9.8 0 15 0 0 1.3 0 2.5 0 3.8zm-10.9 5.6c3.5 0 7 0 10.7 0 0 1.1 0 2.2 0 3.6-3.4 0-6.9 0-10.7 0 0-1.3 0-2.3 0-3.6zm-39.4 3.3c-0.9 0.8-1.8 1.6-2.8 2.5-1.7-1.7-3.4-3.6-5.4-5.6 0.8-0.6 1.9-1.3 2.9-2 1.6 1.5 3.4 3.2 5.3 5.1z"/><path fill-rule="evenodd" class="a" d="m130.9 21q2.9 3.3 5.7 6.6c0.7 0.8 1.4 1.5 2.2 2.4-2.1 1.9-4.1 3.6-6.5 5.8 2.7 2.3 5 4.2 7.6 6.4-1.6 1.4-2.5 2.2-3.1 2.7-3.2-3.1-6.2-6.1-9.5-9.2 1.9-1.8 3.8-3.7 5.9-5.7-1.9-2.1-3.7-4-5.6-6 0.8-1.1 1.6-2 2.3-3q0.5 0 1 0z"/><path fill-rule="evenodd" class="a" d="m163.7 31.1c-0.9 0.8-1.8 1.5-2.8 2.4-2.1-2.3-4.2-4.5-6.3-6.8-2.4 2.5-4.5 4.6-6.8 7-1-1.1-1.8-2.1-2.8-3.2 3-3.1 6-6.3 9.1-9.5q0.3 0 0.5 0 4.6 4.6 9.1 9.1 0 0.5 0 1z"/><path fill-rule="evenodd" class="a" d="m0.3 26.1c3.7-3.9 8.1-5.8 13.3-3.9 2.2 0.7 4.1 2.4 6.4 3.9-1.4 1.3-2.4 2.2-3.4 3.1-4.6-4.8-8.8-4.8-13.5 0.1q-1.4-1.1-2.8-2.2 0-0.5 0-1z"/><path fill-rule="evenodd" class="a" d="m0.3 39.7q1.4-1.2 2.7-2.4c5 4.9 8.9 4.9 13.7 0q1.4 1.4 2.7 2.7c-3 5.6-13.5 7.7-19.1 0.3q0-0.3 0-0.6z"/><path fill-rule="evenodd" class="a" d="m37.1 21c2.2 2.6 4.5 5.1 6.9 7.9-2.3 2.5-4.7 5.1-7.3 7.9-0.8-1.1-1.6-2.1-2.5-3.3 1.3-1.3 2.7-2.9 4.4-4.6-1.5-1.7-3-3.3-4.6-5 0.9-1 1.7-2 2.6-2.9q0.2 0 0.5 0z"/><path fill-rule="evenodd" class="a" d="m26.8 22c1.4 0 2.5 0 3.9 0 0 7.5 0 14.9 0 22.6-1.3 0-2.5 0-3.9 0 0-7.5 0-14.9 0-22.6z"/><path fill-rule="evenodd" class="a" d="m124.2 44.6c-1.4 0-2.5 0-3.8 0 0-7.5 0-15 0-22.6 1.3 0 2.5 0 3.8 0 0 7.6 0 15 0 22.6z"/><path fill-rule="evenodd" class="a" d="m91.1 26.7c-0.9 1-1.8 1.9-2.7 2.7-4.8-5.5-10.3-4.5-13.9 0.1q-1.3-1.4-2.6-2.7c2.7-6.1 14.2-7.8 19.2-0.1z"/><path fill-rule="evenodd" class="a" d="m71.8 39.9c0.9-0.9 1.8-1.8 2.7-2.7 3.7 4.4 9.3 5.4 13.6 0.2q1.3 1.4 2.7 2.8c-4.1 6.5-13.9 6.6-19-0.3z"/><path fill-rule="evenodd" class="a" d="m145.7 44.6c0-1.3 0-2.4 0-3.8 5.7 0 11.3 0 17 0 0 1.3 0 2.5 0 3.8-5.6 0-11.2 0-17 0z"/><path fill-rule="evenodd" class="a" d="m113.3 22c0 1.4 0 2.6 0 3.9-5.7 0-11.1 0-16.8 0 0-1.3 0-2.5 0-3.9 5.6 0 11.1 0 16.8 0z"/><path class="a" d="m102.9 31.2h4.1v13.4h-4.1z"/><path fill-rule="evenodd" class="a" d="m64.5 44.7c-5.2 0-10.1 0-15.2 0 0-1.3 0-2.5 0-3.9 5 0 10 0 15.2 0 0 1.3 0 2.5 0 3.9z"/><path fill-rule="evenodd" class="a" d="m64.3 22c0 1.3 0 2.5 0 3.8-5 0-9.9 0-15 0 0-1.2 0-2.4 0-3.8 4.9 0 9.8 0 15 0z"/><path fill-rule="evenodd" class="a" d="m53.4 35c0-1.3 0-2.3 0-3.6 3.5 0 7 0 10.7 0 0 1.1 0 2.2 0 3.6-3.4 0-6.9 0-10.7 0z"/><path fill-rule="evenodd" class="a" d="m8.7 29.6c1.6 1.5 3.4 3.2 5.3 5.1-0.9 0.8-1.8 1.6-2.8 2.5-1.7-1.7-3.4-3.6-5.4-5.6 0.8-0.6 1.9-1.3 2.9-2z"/></g></svg>