<?xml version="1.0" encoding="utf-8"?>
<!-- Generator: Adobe Illustrator 26.5.0, SVG Export Plug-In . SVG Version: 6.00 Build 0)  -->
<svg version="1.1" id="Stanza-living" xmlns="http://www.w3.org/2000/svg" xmlns:xlink="http://www.w3.org/1999/xlink" x="0px"
	 y="0px" viewBox="0 0 250 100" style="enable-background:new 0 0 250 100;" xml:space="preserve">
<style type="text/css">
	.st0{fill:#464948;}
</style>
<path id="Path_24613" class="st0" d="M71.9,36.2v24.6l-16-9.2V27l21.3-12.3l16,9.2L71.9,36.2z M93.1,73V48.5l-16-9.2v24.6L55.9,76.1
	l16,9.2L93.1,73z"/>
<path id="Path_24614" class="st0" d="M103.7,36.9c0.9,0.7,1.8,1.3,2.9,1.7c1,0.4,2.1,0.7,3.2,0.7c1.4,0,2.1-0.4,2.1-1.2
	c0-0.4-0.2-0.8-0.6-0.9c-0.5-0.2-1-0.4-1.5-0.4c-0.6-0.1-1.3-0.2-2-0.4c-0.7-0.1-1.4-0.4-2-0.7c-0.6-0.3-1.1-0.7-1.5-1.3
	c-0.4-0.7-0.7-1.5-0.6-2.3c0-1.5,0.6-3,1.7-4c1.4-1.1,3.2-1.7,5-1.5c1,0,2,0.1,2.9,0.4c0.9,0.2,1.7,0.5,2.5,0.9v4.8
	c-0.8-0.7-1.7-1.3-2.6-1.7c-0.9-0.4-1.9-0.6-3-0.6c-0.6-0.1-1.1,0.1-1.6,0.4c-0.3,0.2-0.4,0.5-0.4,0.8c0,0.4,0.3,0.7,0.6,0.8
	c0.5,0.2,1,0.3,1.6,0.4c0.6,0.1,1.3,0.3,2,0.4c0.7,0.2,1.4,0.4,2,0.7c0.6,0.3,1.2,0.8,1.6,1.4c0.5,0.7,0.7,1.5,0.6,2.4
	c0,0.8-0.2,1.6-0.5,2.4c-0.3,0.7-0.8,1.3-1.4,1.7c-0.6,0.5-1.4,0.8-2.1,1.1c-0.8,0.3-1.7,0.4-2.6,0.4c-1.2,0-2.3-0.1-3.4-0.4
	c-0.9-0.2-1.8-0.6-2.6-1L103.7,36.9L103.7,36.9z M116.7,30.8v-0.6l7.4-7.7h0.1v4.5h4v3.9h-4v5.8c-0.1,0.7,0.1,1.3,0.5,1.8
	c0.5,0.4,1.1,0.6,1.7,0.5c0.6,0,1.3-0.2,1.8-0.6v4.1c-0.4,0.2-0.9,0.4-1.4,0.5c-0.6,0.1-1.3,0.2-2,0.2c-1.4,0.1-2.9-0.4-3.9-1.4
	c-1-1.1-1.5-2.6-1.4-4.1v-6.9L116.7,30.8z M139.9,42.8l-0.1-2c-0.4,0.8-1.1,1.4-2,1.8c-0.8,0.4-1.8,0.6-2.7,0.6
	c-0.7,0-1.4-0.1-2-0.3c-0.6-0.2-1.1-0.5-1.6-0.9c-0.4-0.4-0.8-0.9-1-1.5c-0.3-0.6-0.4-1.3-0.4-1.9c0-3,2-4.7,5.9-5.3l3.6-0.5v-0.2
	c0-0.6-0.3-1.2-0.8-1.5c-0.7-0.4-1.6-0.6-2.4-0.5c-1,0-2,0.2-2.9,0.6c-0.9,0.4-1.7,0.9-2.4,1.6v-4.5c0.8-0.5,1.6-0.9,2.5-1.2
	c1.1-0.3,2.2-0.5,3.3-0.4c1.9-0.1,3.8,0.4,5.4,1.6c1.3,1.2,2,2.9,1.9,4.7v10L139.9,42.8L139.9,42.8z M134.7,38.2
	c0,0.4,0.2,0.8,0.5,1.1c0.4,0.3,0.8,0.4,1.3,0.4c0.9,0,1.7-0.3,2.4-0.9c0.6-0.6,0.9-1.4,0.9-2.3v-0.5l-2.8,0.4
	C135.4,36.6,134.7,37.2,134.7,38.2L134.7,38.2z M151.2,42.8h-4.7V26.9h4.7v2c0.5-0.8,1.1-1.4,1.9-1.8c0.9-0.4,1.8-0.7,2.8-0.6
	c1.6-0.1,3.2,0.6,4.3,1.7c1.1,1.3,1.7,3,1.6,4.8v9.8h-4.7v-8.7c0.1-0.9-0.2-1.7-0.7-2.4c-0.5-0.6-1.3-0.9-2.1-0.9
	c-0.8,0-1.6,0.3-2.2,0.9c-0.6,0.7-0.9,1.7-0.8,2.6L151.2,42.8L151.2,42.8z M177.9,29.8l-7.6,9.2h7.8v3.8h-13.9v-3l7.6-9.1h-7.1v-3.8
	h13.3L177.9,29.8z M189.8,42.8l-0.1-2c-0.4,0.8-1.1,1.4-2,1.8c-0.8,0.4-1.8,0.6-2.7,0.6c-0.7,0-1.4-0.1-2-0.3
	c-0.6-0.2-1.1-0.5-1.6-0.9c-0.4-0.4-0.8-0.9-1-1.5c-0.3-0.6-0.4-1.3-0.4-1.9c0-3,2-4.7,5.9-5.3l3.6-0.5v-0.2c0-0.6-0.3-1.2-0.8-1.5
	c-0.7-0.4-1.6-0.6-2.4-0.5c-1,0-2,0.2-2.9,0.6c-0.9,0.4-1.7,0.9-2.4,1.6v-4.5c0.8-0.5,1.6-0.9,2.5-1.2c1.1-0.3,2.2-0.5,3.3-0.4
	c1.9-0.1,3.8,0.4,5.4,1.6c1.3,1.2,2,2.9,1.9,4.7v10L189.8,42.8L189.8,42.8z M184.5,38.2c0,0.4,0.2,0.8,0.5,1.1
	c0.4,0.3,0.8,0.4,1.3,0.4c0.9,0,1.7-0.3,2.4-0.9c0.6-0.6,0.9-1.4,0.9-2.3v-0.5l-2.8,0.4C185.3,36.6,184.5,37.2,184.5,38.2
	L184.5,38.2z M108.5,50.6v22.5h-4.7V50.6H108.5z M117.7,52.7c0,0.7-0.3,1.4-0.8,1.9c-0.3,0.2-0.5,0.5-0.9,0.6
	c-0.7,0.3-1.5,0.3-2.2,0c-0.3-0.1-0.6-0.3-0.9-0.6c-1-1.1-1-2.8,0-3.8c0.3-0.2,0.5-0.5,0.9-0.6c0.7-0.3,1.5-0.3,2.2,0
	c0.3,0.1,0.6,0.3,0.9,0.6C117.4,51.2,117.7,51.9,117.7,52.7L117.7,52.7z M112.6,73.1V57.2h4.7v15.9L112.6,73.1z M119.7,57.2h4.9
	l3.7,10l3.7-10h4.8l-6.5,15.9h-4.3L119.7,57.2z M144.4,52.7c0,0.7-0.3,1.4-0.8,1.9c-0.3,0.2-0.5,0.5-0.9,0.6c-0.7,0.3-1.5,0.3-2.2,0
	c-0.3-0.1-0.6-0.3-0.9-0.6c-1-1.1-1-2.8,0-3.8c0.3-0.2,0.5-0.5,0.9-0.6c0.7-0.3,1.5-0.3,2.2,0c0.3,0.1,0.6,0.3,0.9,0.6
	C144.1,51.2,144.4,51.9,144.4,52.7L144.4,52.7z M139.3,73.1V57.2h4.7v15.9L139.3,73.1z M152.8,73.1h-4.7V57.2h4.7v2
	c0.5-0.8,1.1-1.4,1.9-1.8c0.9-0.4,1.8-0.7,2.8-0.6c1.6-0.1,3.2,0.6,4.3,1.7c1.1,1.3,1.7,3,1.6,4.8v9.8h-4.7v-8.7
	c0.1-0.9-0.2-1.7-0.7-2.4c-0.5-0.6-1.3-0.9-2.1-0.9c-0.8,0-1.6,0.3-2.2,0.9c-0.6,0.7-0.9,1.7-0.8,2.6L152.8,73.1z M166.9,62.8
	c0-0.8,0.2-1.7,0.5-2.5c0.3-0.7,0.8-1.4,1.4-1.9c0.6-0.5,1.3-0.9,2.1-1.2c0.8-0.3,1.7-0.4,2.6-0.4c0.4,0,0.9,0,1.3,0.1
	c0.4,0.1,0.8,0.2,1.2,0.3h5.4v3.1h-1.9c0.4,0.8,0.5,1.6,0.5,2.4c0,0.8-0.2,1.7-0.5,2.4c-0.3,0.7-0.8,1.3-1.4,1.9
	c-0.6,0.5-1.3,0.9-2.1,1.2c-1.7,0.6-3.5,0.6-5.2,0c-0.6,0.2-0.9,0.5-0.9,1c0,0.3,0.1,0.6,0.4,0.7c0.3,0.1,0.7,0.2,1,0.2h4.6
	c1.5-0.1,3,0.3,4.2,1.1c1.1,0.8,1.6,2,1.6,3.4c0,0.9-0.2,1.8-0.7,2.5c-0.5,0.7-1.1,1.3-1.9,1.7c-0.8,0.5-1.8,0.8-2.7,1
	c-1.1,0.2-2.2,0.3-3.2,0.3c-1.9,0.1-3.8-0.2-5.6-1c-1.2-0.6-2-1.8-1.9-3.2c0-0.7,0.2-1.3,0.6-1.9c0.4-0.5,0.9-1,1.4-1.4
	c-0.4-0.3-0.8-0.7-1-1.2c-0.5-1.2-0.4-2.5,0.3-3.6c0.4-0.5,0.9-1,1.4-1.3c-0.5-0.5-0.8-1.1-1.1-1.7
	C167.1,64.3,166.9,63.6,166.9,62.8L166.9,62.8z M177.8,75.1c0-0.4-0.2-0.8-0.6-0.9c-0.6-0.2-1.2-0.3-1.7-0.3h-4.5
	c-0.7,0.2-1.2,0.8-1.2,1.5c0,1.1,1.2,1.6,3.6,1.6c1.1,0.1,2.2-0.1,3.3-0.5C177.3,76.4,177.8,75.8,177.8,75.1L177.8,75.1z
	 M173.6,60.4c-0.6,0-1.3,0.2-1.7,0.7c-1,1-1,2.5,0,3.5c0,0,0,0,0,0c1,0.9,2.5,0.9,3.5,0c1-1,1-2.5,0-3.5c0,0,0,0,0,0
	C174.9,60.7,174.2,60.4,173.6,60.4L173.6,60.4z"/>
</svg>
