<svg xmlns="http://www.w3.org/2000/svg" width="50" height="50" viewBox="0 0 50 50">
  <path id="noun-growth-1081240" d="M117.5,40H82.253L93,26l12.5,8.75a2.67,2.67,0,0,0,4-1.75L112,9.5l3.5,4.75a2.689,2.689,0,0,0,3.5.5,2.689,2.689,0,0,0,.5-3.5l-7.5-10A1.846,1.846,0,0,0,110.5,0a3.613,3.613,0,0,0-1.75.5l-10,7.5a2.689,2.689,0,0,0-.5,3.5,2.689,2.689,0,0,0,3.5.5l5.5-4L105,28,94,20.5a2.644,2.644,0,0,0-3.5.5L80,34.748V2.5a2.5,2.5,0,0,0-5,0V40H72.5a2.5,2.5,0,0,0,0,5H75v2.5a2.5,2.5,0,0,0,5,0V45h37.5a2.5,2.5,0,0,0,0-5Z" transform="translate(-70.003 0.002)" fill="#fff"/>
</svg>
