<svg xmlns="http://www.w3.org/2000/svg" width="473.979" height="48.981" viewBox="0 0 473.979 48.981">
  <g id="symbol" opacity="0.43">
    <g id="nav-post-login-course-mvp-">
      <g id="nav-pre-login">
        <g id="Group" transform="translate(0 0)">
          <g id="LinkedIn-LOGO" transform="translate(0 0)">
            <path id="Fill-1" d="M0,3.155v31.9H20.005v-6.45H7.017V3.155Z" transform="translate(0 3.544)" fill="#fff" fill-rule="evenodd"/>
            <g id="Group-23" transform="translate(22.569)">
              <path id="Fill-2" d="M3.938,2.932a3.894,3.894,0,1,1-3.909,3.9,3.9,3.9,0,0,1,3.909-3.9ZM.565,35.3H7.309V13.678H.565Z" transform="translate(-0.029 3.294)" fill="#fff" fill-rule="evenodd"/>
              <path id="Fill-4" d="M16.733,3.155h6.739V22.218l7.639-8.8h8.263L30.533,23.429,39.19,35.055H30.717L23.561,24.367h-.089V35.055H16.733Z" transform="translate(18.736 3.544)" fill="#fff" fill-rule="evenodd"/>
              <path id="Fill-6" d="M5.213,8.28h6.476v2.952h.088a7.093,7.093,0,0,1,6.383-3.49c6.835,0,8.091,4.477,8.091,10.3V29.893H19.51V19.381c0-2.506-.045-5.728-3.507-5.728-3.5,0-4.045,2.731-4.045,5.549v10.69H5.213Z" transform="translate(5.794 8.697)" fill="#fff" fill-rule="evenodd"/>
              <path id="Fill-8" d="M48.068,26.217a11.892,11.892,0,0,1-9.216,4.3c-6.744,0-12.139-4.477-12.139-11.42S32.108,7.682,38.853,7.682c6.294,0,10.246,4.48,10.246,11.415V21.2H33.455a5.03,5.03,0,0,0,5.079,4.208,5.755,5.755,0,0,0,4.811-2.64Zm-5.711-9.578a4.034,4.034,0,0,0-4.139-4.117,4.491,4.491,0,0,0-4.763,4.117Z" transform="translate(29.947 8.63)" fill="#fff" fill-rule="evenodd"/>
              <path id="Fill-10" d="M61.9,35.042H55.689V32.174H55.6a8.483,8.483,0,0,1-6.7,3.405c-6.474,0-10.744-4.656-10.744-11.237,0-6.045,3.78-11.6,9.984-11.6,2.787,0,5.392.76,6.921,2.864h.088V3.155H61.9Zm-11.6-16.388c-3.371,0-5.4,2.24-5.4,5.506s2.027,5.509,5.4,5.509,5.395-2.237,5.395-5.509-2.021-5.506-5.395-5.506Z" transform="translate(42.8 3.544)" fill="#fff" fill-rule="evenodd"/>
              <path id="Combined-Shape" d="M94.629,0V0a3.318,3.318,0,0,1,3.363,3.267V42.029A3.32,3.32,0,0,1,94.629,45.3H55.867a3.316,3.316,0,0,1-3.356-3.269V3.267A3.314,3.314,0,0,1,55.867,0Zm-32,6.236a3.9,3.9,0,1,0,3.909,3.9A3.906,3.906,0,0,0,62.632,6.236ZM59.251,38.6H66V16.982H59.251ZM70.237,16.982V38.6h6.737V27.906c0-2.819.538-5.552,4.048-5.552,3.462,0,3.5,3.224,3.5,5.73V38.6H91.27V26.744c0-5.823-1.261-10.3-8.093-10.3a7.1,7.1,0,0,0-6.383,3.49H76.7V16.982Z" transform="translate(58.928 0)" fill="#fff" fill-rule="evenodd"/>
            </g>
          </g>
          <path id="Marketing-Labs" d="M117.837,9.968,108.868,28.2h-3.281L96.66,9.968V35.256H93.877V6.19h4.069l9.3,19.184L116.756,6.19h3.988V35.256h-2.907Zm25.336,21.385a7.747,7.747,0,0,1-3.051,3.218,8.8,8.8,0,0,1-4.589,1.225,9.925,9.925,0,0,1-5.17-1.37,9.679,9.679,0,0,1-3.612-3.779,11.2,11.2,0,0,1-1.308-5.439,11.2,11.2,0,0,1,1.308-5.44,9.752,9.752,0,0,1,8.7-5.149,8.978,8.978,0,0,1,4.671,1.246,7.538,7.538,0,0,1,3.051,3.239V15.2H146V35.256h-2.824Zm-7.391-14.284a7.156,7.156,0,0,0-3.882,1.08,7.394,7.394,0,0,0-2.68,2.927,9.429,9.429,0,0,0,0,8.263,7.394,7.394,0,0,0,2.68,2.927,7.556,7.556,0,0,0,7.784,0,7.437,7.437,0,0,0,2.658-2.927,8.86,8.86,0,0,0,.956-4.131,8.86,8.86,0,0,0-.956-4.132,7.437,7.437,0,0,0-2.658-2.927A7.126,7.126,0,0,0,135.781,17.069Zm25.96.581a13.245,13.245,0,0,0-1.372-.124,5.28,5.28,0,0,0-3.964,1.661q-1.6,1.661-1.6,5.19V35.256h-2.782V15.2h2.7v3.737a7.1,7.1,0,0,1,2.138-2.907,5.264,5.264,0,0,1,3.425-1.163c.221,0,.707.042,1.454.125ZM165.36,4.529h2.824V22.965h2.7L178.4,15.2h3.612l-8.8,8.845,9.343,11.211h-3.572l-8.137-9.924h-2.658v9.924H165.36Zm37.295,25.952a9.7,9.7,0,0,1-3.964,4.007,11.635,11.635,0,0,1-5.461,1.267,10.311,10.311,0,0,1-5.272-1.35,9.483,9.483,0,0,1-3.633-3.758,11.2,11.2,0,0,1-1.308-5.439,10.926,10.926,0,0,1,1.348-5.44,9.891,9.891,0,0,1,3.7-3.779,10.059,10.059,0,0,1,5.168-1.37,10.165,10.165,0,0,1,5.045,1.287,9.432,9.432,0,0,1,3.7,3.841,12.742,12.742,0,0,1,1.391,6.166v.125H185.92a7.809,7.809,0,0,0,2.242,5.19,6.982,6.982,0,0,0,5.149,2.035,7.706,7.706,0,0,0,6.977-3.945Zm-9.426-13.454a6.867,6.867,0,0,0-4.941,1.91,7.922,7.922,0,0,0-2.368,4.9h14.409a7.509,7.509,0,0,0-2.2-4.879A6.685,6.685,0,0,0,193.229,17.027Zm15.205-8.346H211.3V15.2h4.9v2.325h-4.9V30.979a2.2,2.2,0,0,0,.561,1.682,2.4,2.4,0,0,0,1.682.519,8.389,8.389,0,0,0,2.658-.457v2.408a13.091,13.091,0,0,1-1.495.311,10.672,10.672,0,0,1-1.66.145,5.06,5.06,0,0,1-3.406-1.038,3.889,3.889,0,0,1-1.2-3.114V17.526h-3.406V15.2h3.406Zm11.8-.5a2.125,2.125,0,0,1,.6-1.536,2.131,2.131,0,0,1,3.011,0,2.085,2.085,0,0,1,.624,1.536,1.969,1.969,0,0,1-.624,1.474,2.183,2.183,0,0,1-3.011,0A2,2,0,0,1,220.234,8.183Zm3.737,27.073h-2.824V17.526h-3.2V15.2h6.022Zm8.85,0H230V15.2h2.782v2.74a10.181,10.181,0,0,1,3.238-2.429,8.611,8.611,0,0,1,3.737-.893,7.463,7.463,0,0,1,5.357,1.931,6.738,6.738,0,0,1,2.034,5.128V35.256h-2.824V22.218a4.84,4.84,0,0,0-1.412-3.8,5.142,5.142,0,0,0-3.569-1.266,7.14,7.14,0,0,0-3.489.913,10.837,10.837,0,0,0-3.032,2.533Zm36.467-20.1h2.822V35.09a7.734,7.734,0,0,1-2.926,6.6,11.994,11.994,0,0,1-7.413,2.2,16.8,16.8,0,0,1-8.056-1.827l.416-3.239a8.477,8.477,0,0,0,3.3,1.91,13.373,13.373,0,0,0,4.215.664,8.892,8.892,0,0,0,5.565-1.6,5.769,5.769,0,0,0,2.077-4.879V31.353a7.809,7.809,0,0,1-3.053,3.177,8.866,8.866,0,0,1-4.629,1.225,9.818,9.818,0,0,1-8.721-5.149,11.075,11.075,0,0,1-1.329-5.44,11.14,11.14,0,0,1,1.308-5.4,9.758,9.758,0,0,1,8.7-5.149,9.087,9.087,0,0,1,4.693,1.246,7.3,7.3,0,0,1,3.032,3.2Zm-7.434,1.91a7.219,7.219,0,0,0-6.561,3.965,8.859,8.859,0,0,0-.953,4.132,8.985,8.985,0,0,0,.953,4.152,7.362,7.362,0,0,0,2.68,2.948,7.556,7.556,0,0,0,7.784,0,7.4,7.4,0,0,0,2.658-2.948,8.987,8.987,0,0,0,.956-4.152,8.861,8.861,0,0,0-.956-4.132,7.158,7.158,0,0,0-6.561-3.965Zm41.163,15.613v2.574H287.281V6.19h2.9V32.682Zm18.777-1.329a7.739,7.739,0,0,1-3.053,3.218,8.786,8.786,0,0,1-4.589,1.225,9.917,9.917,0,0,1-5.168-1.37,9.685,9.685,0,0,1-3.614-3.779,11.226,11.226,0,0,1-1.308-5.439,11.227,11.227,0,0,1,1.308-5.44,9.758,9.758,0,0,1,8.7-5.149,8.973,8.973,0,0,1,4.671,1.246,7.53,7.53,0,0,1,3.053,3.239V15.2h2.822V35.256h-2.822ZM314.4,17.069a7.163,7.163,0,0,0-3.884,1.08,7.389,7.389,0,0,0-2.678,2.927,8.86,8.86,0,0,0-.956,4.132,8.86,8.86,0,0,0,.956,4.131,7.389,7.389,0,0,0,2.678,2.927,7.56,7.56,0,0,0,7.786,0,7.432,7.432,0,0,0,2.656-2.927,8.859,8.859,0,0,0,.956-4.131,8.859,8.859,0,0,0-.956-4.132,7.432,7.432,0,0,0-2.656-2.927A7.132,7.132,0,0,0,314.4,17.069Zm36.879,8.139a10.949,10.949,0,0,1-1.348,5.439,10,10,0,0,1-3.654,3.779,9.849,9.849,0,0,1-5.128,1.37,8.9,8.9,0,0,1-4.61-1.225,7.708,7.708,0,0,1-3.073-3.218v3.9h-2.824V4.529h2.824V19.1a7.538,7.538,0,0,1,3.051-3.239,8.978,8.978,0,0,1,4.671-1.246,9.818,9.818,0,0,1,8.761,5.149A11.052,11.052,0,0,1,351.281,25.208ZM340.9,17.069a7.156,7.156,0,0,0-3.882,1.08,7.374,7.374,0,0,0-2.678,2.927,8.86,8.86,0,0,0-.956,4.132,8.86,8.86,0,0,0,.956,4.131,7.374,7.374,0,0,0,2.678,2.927,7.522,7.522,0,0,0,7.765,0,7.389,7.389,0,0,0,2.678-2.927,8.859,8.859,0,0,0,.956-4.131,8.859,8.859,0,0,0-.956-4.132,7.389,7.389,0,0,0-2.678-2.927A7.164,7.164,0,0,0,340.9,17.069Zm20.146,16.36a5.408,5.408,0,0,0,3.342-.955,2.867,2.867,0,0,0,1.268-2.367,2.73,2.73,0,0,0-.873-2.1,8.44,8.44,0,0,0-2.864-1.516l-2.41-.872a8.644,8.644,0,0,1-3.633-2.18,4.674,4.674,0,0,1-1.1-3.177,5.06,5.06,0,0,1,.873-2.906,5.808,5.808,0,0,1,2.45-2.014,8.437,8.437,0,0,1,3.569-.727,10.813,10.813,0,0,1,3.593.6,8.2,8.2,0,0,1,2.928,1.723l-1.412,1.993a8.859,8.859,0,0,0-2.41-1.453,7.1,7.1,0,0,0-2.7-.54,4.844,4.844,0,0,0-2.968.851,2.612,2.612,0,0,0-1.142,2.18,2.719,2.719,0,0,0,.624,1.765,5.32,5.32,0,0,0,2.242,1.391l2.739,1.038a10.857,10.857,0,0,1,4.132,2.388,4.805,4.805,0,0,1,1.225,3.426,5.121,5.121,0,0,1-.873,2.865,6.132,6.132,0,0,1-2.552,2.138,9.157,9.157,0,0,1-4.007.81,12.056,12.056,0,0,1-3.988-.664,9.7,9.7,0,0,1-3.238-1.827l1.535-2.159a7.577,7.577,0,0,0,2.6,1.682A8.21,8.21,0,0,0,361.047,33.429Z" transform="translate(105.458 5.088)" fill="#fff" fill-rule="evenodd"/>
        </g>
      </g>
    </g>
  </g>
</svg>
