<svg xmlns="http://www.w3.org/2000/svg" xmlns:xlink="http://www.w3.org/1999/xlink" width="60" zoomAndPan="magnify" viewBox="0 0 45 36.000001" height="48" preserveAspectRatio="xMidYMid meet" version="1.0"><defs><clipPath id="d2959e3740"><path d="M 5.125 0 L 33.582031 0 L 33.582031 35.027344 L 5.125 35.027344 Z M 5.125 0 " clip-rule="nonzero"/></clipPath></defs><g clip-path="url(#d2959e3740)"><path fill="#09c688" d="M 25.652344 25.089844 L 24.824219 25.570312 C 25.296875 24.019531 25.09375 22.3125 24.203125 20.746094 C 23.535156 19.574219 22.53125 18.257812 21.070312 16.644531 C 21.441406 16.367188 21.6875 15.925781 21.6875 15.425781 C 21.6875 14.773438 21.269531 14.214844 20.6875 14.003906 L 21.386719 13.304688 C 21.675781 13.015625 21.835938 12.625 21.835938 12.214844 C 21.835938 11.800781 21.675781 11.414062 21.386719 11.121094 C 20.894531 10.632812 20.125 10.535156 19.527344 10.875 C 19.347656 10.210938 18.734375 9.738281 18.039062 9.738281 C 17.347656 9.738281 16.730469 10.210938 16.550781 10.875 C 15.953125 10.535156 15.183594 10.632812 14.691406 11.121094 C 14.089844 11.722656 14.089844 12.703125 14.691406 13.304688 L 15.390625 14.003906 C 14.808594 14.214844 14.394531 14.773438 14.394531 15.425781 C 14.394531 15.925781 14.636719 16.367188 15.007812 16.644531 C 13.546875 18.257812 12.542969 19.574219 11.875 20.746094 C 11.054688 22.1875 10.804688 23.707031 11.144531 25.167969 L 8.90625 26.464844 L 8.679688 26.0625 C 8.519531 25.78125 8.261719 25.578125 7.949219 25.492188 C 7.636719 25.40625 7.308594 25.445312 7.027344 25.605469 L 5.785156 26.308594 C 5.503906 26.46875 5.300781 26.726562 5.214844 27.039062 C 5.125 27.351562 5.167969 27.679688 5.328125 27.960938 L 8.976562 34.410156 C 9.136719 34.691406 9.394531 34.894531 9.707031 34.980469 C 9.816406 35.011719 9.925781 35.027344 10.035156 35.027344 C 10.242188 35.027344 10.445312 34.972656 10.628906 34.867188 L 11.871094 34.167969 C 12.453125 33.835938 12.660156 33.09375 12.328125 32.511719 L 12.035156 31.992188 L 12.578125 31.679688 L 18.179688 33.179688 C 18.503906 33.269531 18.832031 33.3125 19.152344 33.3125 C 19.800781 33.3125 20.429688 33.132812 21.003906 32.78125 L 29.03125 27.835938 C 29.835938 27.339844 30.097656 26.09375 29.574219 25.222656 C 29.324219 24.800781 28.296875 23.550781 25.652344 25.089844 Z M 15.910156 15.820312 C 15.691406 15.820312 15.515625 15.640625 15.515625 15.425781 C 15.515625 15.210938 15.691406 15.03125 15.910156 15.03125 L 20.167969 15.03125 C 20.386719 15.03125 20.5625 15.210938 20.5625 15.425781 C 20.5625 15.640625 20.386719 15.820312 20.167969 15.820312 Z M 15.488281 11.917969 C 15.625 11.777344 15.847656 11.753906 16.011719 11.863281 C 16.308594 12.054688 16.667969 12.085938 16.996094 11.949219 C 17.324219 11.8125 17.554688 11.539062 17.628906 11.191406 C 17.671875 11 17.84375 10.859375 18.039062 10.859375 C 18.234375 10.859375 18.40625 11 18.449219 11.191406 C 18.523438 11.539062 18.753906 11.8125 19.082031 11.949219 C 19.410156 12.085938 19.769531 12.054688 20.066406 11.863281 C 20.230469 11.753906 20.453125 11.777344 20.589844 11.917969 C 20.753906 12.082031 20.753906 12.347656 20.589844 12.511719 L 19.191406 13.910156 L 16.886719 13.910156 L 15.488281 12.511719 C 15.324219 12.347656 15.324219 12.082031 15.488281 11.917969 Z M 12.855469 21.300781 C 13.539062 20.097656 14.625 18.707031 16.257812 16.941406 L 19.820312 16.941406 C 21.453125 18.707031 22.539062 20.097656 23.226562 21.300781 C 24.242188 23.089844 24.191406 25.007812 23.09375 26.578125 L 21.230469 27.664062 C 21.136719 27.71875 21.046875 27.765625 20.953125 27.804688 C 20.96875 27.757812 20.984375 27.707031 20.996094 27.65625 C 21.246094 26.734375 20.703125 25.769531 19.765625 25.453125 C 19.800781 25.417969 19.832031 25.382812 19.863281 25.347656 C 20.160156 25.007812 20.285156 24.582031 20.226562 24.117188 C 20.113281 23.191406 19.40625 22.613281 18.117188 22.402344 C 17.121094 22.242188 17.105469 21.871094 17.097656 21.734375 C 17.070312 21.210938 17.640625 21.058594 17.753906 21.03125 C 18.21875 20.925781 18.789062 21.070312 19.023438 21.625 C 19.144531 21.910156 19.472656 22.046875 19.761719 21.925781 C 20.046875 21.804688 20.179688 21.476562 20.058594 21.191406 C 19.757812 20.472656 19.1875 20.082031 18.582031 19.941406 L 18.582031 19.707031 C 18.582031 19.398438 18.332031 19.144531 18.019531 19.144531 C 17.710938 19.144531 17.460938 19.398438 17.460938 19.707031 L 17.460938 19.945312 C 16.527344 20.175781 15.933594 20.910156 15.976562 21.789062 C 16.007812 22.433594 16.371094 23.257812 17.933594 23.511719 C 18.917969 23.675781 19.078125 23.992188 19.113281 24.253906 C 19.128906 24.402344 19.101562 24.515625 19.015625 24.613281 C 18.847656 24.808594 18.46875 24.945312 18.074219 24.953125 C 17.949219 24.957031 17.8125 24.945312 17.679688 24.914062 C 17.601562 24.886719 17.523438 24.863281 17.449219 24.839844 C 17.199219 24.730469 16.984375 24.535156 16.910156 24.230469 C 16.835938 23.929688 16.53125 23.746094 16.226562 23.820312 C 16.007812 23.875 15.851562 24.054688 15.8125 24.261719 C 15.589844 24.183594 15.382812 24.109375 15.195312 24.046875 C 14.054688 23.679688 13.035156 24.089844 12.175781 24.570312 C 12.011719 23.492188 12.242188 22.375 12.855469 21.300781 Z M 11.316406 33.1875 L 10.074219 33.890625 C 10.050781 33.90625 10.023438 33.902344 10.007812 33.898438 C 9.992188 33.894531 9.96875 33.882812 9.953125 33.855469 L 6.304688 27.410156 C 6.289062 27.382812 6.292969 27.355469 6.296875 27.339844 C 6.300781 27.324219 6.3125 27.300781 6.339844 27.285156 L 7.578125 26.585938 C 7.59375 26.574219 7.609375 26.574219 7.621094 26.574219 C 7.632812 26.574219 7.640625 26.574219 7.648438 26.578125 C 7.664062 26.582031 7.6875 26.59375 7.699219 26.617188 L 11.351562 33.066406 C 11.375 33.105469 11.359375 33.164062 11.316406 33.1875 Z M 28.441406 26.878906 L 20.414062 31.820312 C 19.816406 32.1875 19.164062 32.28125 18.46875 32.09375 L 12.644531 30.535156 C 12.5 30.496094 12.347656 30.515625 12.21875 30.589844 L 11.480469 31.015625 L 9.460938 27.441406 L 12.613281 25.617188 C 13.574219 25.058594 14.222656 24.914062 14.847656 25.117188 C 15.113281 25.203125 15.421875 25.316406 15.78125 25.445312 C 16.175781 25.585938 16.605469 25.742188 17.058594 25.894531 C 17.160156 25.933594 17.261719 25.96875 17.371094 25.996094 C 18.019531 26.203125 18.714844 26.394531 19.429688 26.527344 C 19.796875 26.660156 20.003906 27.015625 19.910156 27.367188 C 19.875 27.503906 19.761719 27.925781 19.074219 27.847656 C 18.433594 27.714844 17.820312 27.542969 17.175781 27.355469 C 16.863281 27.269531 16.539062 27.175781 16.207031 27.085938 C 15.910156 27.007812 15.601562 27.183594 15.519531 27.484375 C 15.441406 27.785156 15.617188 28.09375 15.917969 28.171875 C 16.242188 28.257812 16.558594 28.351562 16.867188 28.4375 C 17.542969 28.632812 18.183594 28.816406 18.878906 28.957031 C 18.882812 28.957031 18.882812 28.957031 18.886719 28.957031 C 18.890625 28.957031 18.894531 28.960938 18.898438 28.960938 L 19.449219 29.050781 C 20.3125 29.1875 21.082031 29.054688 21.792969 28.636719 L 26.21875 26.058594 C 27.382812 25.382812 28.300781 25.28125 28.609375 25.800781 C 28.835938 26.175781 28.703125 26.714844 28.441406 26.878906 Z M 7.855469 27.683594 C 7.890625 27.925781 7.722656 28.148438 7.480469 28.183594 C 7.238281 28.21875 7.015625 28.050781 6.980469 27.808594 C 6.945312 27.566406 7.113281 27.34375 7.355469 27.308594 C 7.597656 27.273438 7.820312 27.441406 7.855469 27.683594 Z M 33.558594 7.242188 L 29.910156 0.792969 C 29.578125 0.210938 28.839844 0.00390625 28.253906 0.335938 L 27.015625 1.035156 C 26.734375 1.195312 26.53125 1.457031 26.445312 1.769531 C 26.355469 2.082031 26.398438 2.410156 26.554688 2.691406 L 26.851562 3.207031 L 26.304688 3.523438 L 20.707031 2.023438 C 19.714844 1.757812 18.738281 1.894531 17.882812 2.421875 L 9.855469 7.367188 C 9.046875 7.863281 8.789062 9.109375 9.308594 9.980469 C 9.5625 10.402344 10.589844 11.652344 13.234375 10.113281 L 17.65625 7.535156 C 17.746094 7.484375 17.839844 7.4375 17.933594 7.398438 C 17.917969 7.445312 17.902344 7.496094 17.886719 7.542969 C 17.636719 8.476562 18.1875 9.449219 19.140625 9.757812 C 19.164062 9.765625 19.191406 9.769531 19.214844 9.773438 C 20.472656 10 21.71875 10.453125 22.722656 10.816406 C 23.074219 10.941406 23.40625 11.0625 23.691406 11.15625 C 23.996094 11.253906 24.296875 11.296875 24.585938 11.296875 C 25.421875 11.296875 26.179688 10.9375 26.835938 10.558594 L 29.980469 8.738281 L 30.207031 9.136719 C 30.429688 9.53125 30.839844 9.753906 31.261719 9.753906 C 31.464844 9.753906 31.671875 9.703125 31.859375 9.597656 L 33.101562 8.894531 C 33.382812 8.734375 33.585938 8.476562 33.671875 8.164062 C 33.757812 7.847656 33.71875 7.523438 33.558594 7.242188 Z M 26.273438 9.585938 C 25.308594 10.144531 24.664062 10.289062 24.035156 10.085938 C 23.769531 10 23.460938 9.886719 23.105469 9.757812 C 22.074219 9.386719 20.792969 8.921875 19.457031 8.675781 C 19.085938 8.542969 18.878906 8.183594 18.972656 7.835938 C 19.011719 7.695312 19.125 7.277344 19.808594 7.351562 C 20.449219 7.484375 21.0625 7.660156 21.710938 7.84375 C 22.023438 7.933594 22.34375 8.027344 22.675781 8.117188 C 22.726562 8.128906 22.773438 8.132812 22.820312 8.132812 C 23.070312 8.132812 23.296875 7.96875 23.363281 7.71875 C 23.445312 7.417969 23.265625 7.109375 22.96875 7.03125 C 22.644531 6.941406 22.328125 6.851562 22.019531 6.765625 C 21.339844 6.570312 20.699219 6.386719 20.007812 6.246094 C 20.003906 6.246094 20 6.246094 19.996094 6.246094 C 19.992188 6.242188 19.988281 6.242188 19.984375 6.242188 L 19.433594 6.152344 C 18.570312 6.015625 17.804688 6.148438 17.089844 6.566406 L 12.667969 9.140625 C 11.5 9.820312 10.585938 9.921875 10.273438 9.402344 C 10.050781 9.027344 10.179688 8.484375 10.445312 8.324219 L 18.472656 3.378906 C 19.066406 3.015625 19.722656 2.921875 20.417969 3.109375 L 26.238281 4.667969 C 26.382812 4.707031 26.535156 4.6875 26.667969 4.613281 L 27.402344 4.1875 L 29.425781 7.761719 Z M 32.589844 7.863281 C 32.582031 7.878906 32.574219 7.902344 32.546875 7.914062 L 31.304688 8.617188 C 31.265625 8.640625 31.207031 8.625 31.183594 8.585938 L 28.101562 3.136719 L 27.535156 2.136719 C 27.519531 2.109375 27.523438 2.085938 27.527344 2.070312 C 27.53125 2.050781 27.542969 2.03125 27.566406 2.015625 L 28.808594 1.3125 C 28.851562 1.289062 28.90625 1.304688 28.929688 1.347656 L 32.582031 7.792969 C 32.59375 7.820312 32.59375 7.84375 32.589844 7.863281 Z M 31.90625 7.390625 C 31.941406 7.632812 31.773438 7.859375 31.53125 7.894531 C 31.289062 7.929688 31.0625 7.761719 31.027344 7.519531 C 30.992188 7.277344 31.160156 7.054688 31.402344 7.019531 C 31.644531 6.984375 31.871094 7.148438 31.90625 7.390625 Z M 27.933594 12.289062 L 27.933594 18.222656 L 28.320312 17.726562 C 28.511719 17.484375 28.863281 17.441406 29.109375 17.628906 C 29.351562 17.820312 29.398438 18.175781 29.207031 18.417969 L 27.8125 20.203125 C 27.707031 20.339844 27.542969 20.417969 27.371094 20.417969 C 27.199219 20.417969 27.035156 20.339844 26.925781 20.203125 L 25.535156 18.417969 C 25.34375 18.175781 25.386719 17.820312 25.632812 17.628906 C 25.878906 17.441406 26.230469 17.484375 26.421875 17.726562 L 26.808594 18.222656 L 26.808594 12.289062 C 26.808594 11.980469 27.058594 11.726562 27.371094 11.726562 C 27.679688 11.726562 27.933594 11.980469 27.933594 12.289062 Z M 27.933594 12.289062 " fill-opacity="1" fill-rule="nonzero"/></g></svg>