<svg xmlns="http://www.w3.org/2000/svg" xmlns:xlink="http://www.w3.org/1999/xlink" width="60" zoomAndPan="magnify" viewBox="0 0 45 36.000001" height="48" preserveAspectRatio="xMidYMid meet" version="1.0"><defs><clipPath id="8a417392e0"><path d="M 4.875 0 L 32 0 L 32 33 L 4.875 33 Z M 4.875 0 " clip-rule="nonzero"/></clipPath><clipPath id="a0c26357a8"><path d="M 32 26 L 39.902344 26 L 39.902344 35.027344 L 32 35.027344 Z M 32 26 " clip-rule="nonzero"/></clipPath></defs><g clip-path="url(#8a417392e0)"><path fill="#2279f5" d="M 29.78125 32.558594 L 6.890625 32.558594 C 5.78125 32.558594 4.875 31.777344 4.875 30.824219 L 4.875 1.734375 C 4.875 0.777344 5.78125 0 6.890625 0 L 29.78125 0 C 30.890625 0 31.792969 0.777344 31.792969 1.734375 L 31.792969 19.109375 C 31.792969 19.28125 31.65625 19.417969 31.484375 19.417969 C 31.3125 19.417969 31.175781 19.28125 31.175781 19.109375 L 31.175781 1.734375 C 31.175781 1.117188 30.550781 0.617188 29.78125 0.617188 L 6.890625 0.617188 C 6.121094 0.617188 5.496094 1.117188 5.496094 1.734375 L 5.496094 30.824219 C 5.496094 31.4375 6.121094 31.9375 6.890625 31.9375 L 29.78125 31.9375 C 30.550781 31.9375 31.175781 31.4375 31.175781 30.824219 L 31.175781 27.859375 C 31.175781 27.6875 31.3125 27.546875 31.484375 27.546875 C 31.65625 27.546875 31.792969 27.6875 31.792969 27.859375 L 31.792969 30.824219 C 31.792969 31.777344 30.890625 32.558594 29.78125 32.558594 Z M 29.78125 32.558594 " fill-opacity="1" fill-rule="evenodd"/></g><path fill="#2279f5" d="M 12.15625 4.195312 C 11.125 4.269531 10.164062 4.707031 9.421875 5.445312 C 8.609375 6.257812 8.164062 7.339844 8.164062 8.488281 C 8.164062 9.636719 8.609375 10.71875 9.421875 11.53125 C 10.234375 12.34375 11.316406 12.789062 12.464844 12.789062 C 13.613281 12.789062 14.695312 12.34375 15.507812 11.53125 C 16.246094 10.789062 16.683594 9.828125 16.757812 8.796875 L 12.464844 8.796875 C 12.292969 8.796875 12.15625 8.65625 12.15625 8.488281 Z M 12.464844 13.410156 C 11.152344 13.410156 9.914062 12.894531 8.984375 11.964844 C 8.058594 11.039062 7.546875 9.800781 7.546875 8.488281 C 7.546875 7.171875 8.058594 5.9375 8.984375 5.007812 C 9.914062 4.078125 11.152344 3.566406 12.464844 3.566406 C 12.636719 3.566406 12.773438 3.707031 12.773438 3.875 L 12.773438 8.179688 L 17.078125 8.179688 C 17.25 8.179688 17.386719 8.316406 17.386719 8.488281 C 17.386719 9.800781 16.875 11.039062 15.945312 11.964844 C 15.015625 12.894531 13.78125 13.410156 12.464844 13.410156 Z M 12.464844 13.410156 " fill-opacity="1" fill-rule="evenodd"/><path fill="#2279f5" d="M 13.746094 7.207031 L 17.730469 7.207031 C 17.65625 6.171875 17.21875 5.214844 16.480469 4.472656 C 15.742188 3.734375 14.777344 3.296875 13.746094 3.222656 Z M 18.050781 7.824219 L 13.4375 7.824219 C 13.265625 7.824219 13.128906 7.6875 13.128906 7.515625 L 13.128906 2.90625 C 13.128906 2.734375 13.265625 2.59375 13.4375 2.59375 C 14.75 2.59375 15.988281 3.105469 16.917969 4.035156 C 17.847656 4.964844 18.359375 6.203125 18.359375 7.515625 C 18.359375 7.6875 18.21875 7.824219 18.050781 7.824219 Z M 18.050781 7.824219 " fill-opacity="1" fill-rule="evenodd"/><path fill="#2279f5" d="M 20.511719 14 L 21.898438 14 L 21.898438 7.121094 L 20.511719 7.121094 Z M 22.207031 14.621094 L 20.203125 14.621094 C 20.03125 14.621094 19.894531 14.480469 19.894531 14.3125 L 19.894531 6.808594 C 19.894531 6.640625 20.03125 6.5 20.203125 6.5 L 22.207031 6.5 C 22.378906 6.5 22.515625 6.640625 22.515625 6.808594 L 22.515625 14.3125 C 22.515625 14.480469 22.378906 14.621094 22.207031 14.621094 Z M 22.207031 14.621094 " fill-opacity="1" fill-rule="evenodd"/><path fill="#2279f5" d="M 23.816406 14 L 25.203125 14 L 25.203125 4.890625 L 23.816406 4.890625 Z M 25.511719 14.621094 L 23.507812 14.621094 C 23.335938 14.621094 23.199219 14.480469 23.199219 14.3125 L 23.199219 4.582031 C 23.199219 4.410156 23.335938 4.273438 23.507812 4.273438 L 25.511719 4.273438 C 25.683594 4.273438 25.820312 4.410156 25.820312 4.582031 L 25.820312 14.3125 C 25.820312 14.480469 25.683594 14.621094 25.511719 14.621094 Z M 25.511719 14.621094 " fill-opacity="1" fill-rule="evenodd"/><path fill="#2279f5" d="M 27.121094 14 L 28.507812 14 L 28.507812 2.003906 L 27.121094 2.003906 Z M 28.816406 14.621094 L 26.8125 14.621094 C 26.640625 14.621094 26.503906 14.480469 26.503906 14.3125 L 26.503906 1.691406 C 26.503906 1.523438 26.640625 1.382812 26.8125 1.382812 L 28.816406 1.382812 C 28.988281 1.382812 29.125 1.523438 29.125 1.691406 L 29.125 14.3125 C 29.125 14.480469 28.988281 14.621094 28.816406 14.621094 Z M 28.816406 14.621094 " fill-opacity="1" fill-rule="evenodd"/><path fill="#2279f5" d="M 21.402344 18.78125 L 8.109375 18.78125 C 7.941406 18.78125 7.800781 18.644531 7.800781 18.472656 C 7.800781 18.304688 7.941406 18.164062 8.109375 18.164062 L 21.402344 18.164062 C 21.574219 18.164062 21.710938 18.304688 21.710938 18.472656 C 21.714844 18.644531 21.574219 18.78125 21.402344 18.78125 Z M 21.402344 18.78125 " fill-opacity="1" fill-rule="evenodd"/><path fill="#2279f5" d="M 21.402344 21.976562 L 8.109375 21.976562 C 7.941406 21.976562 7.800781 21.839844 7.800781 21.667969 C 7.800781 21.496094 7.941406 21.359375 8.109375 21.359375 L 21.402344 21.359375 C 21.574219 21.359375 21.710938 21.496094 21.710938 21.667969 C 21.714844 21.839844 21.574219 21.976562 21.402344 21.976562 Z M 21.402344 21.976562 " fill-opacity="1" fill-rule="evenodd"/><path fill="#2279f5" d="M 21.402344 25.167969 L 8.109375 25.167969 C 7.941406 25.167969 7.800781 25.03125 7.800781 24.859375 C 7.800781 24.6875 7.941406 24.550781 8.109375 24.550781 L 21.402344 24.550781 C 21.574219 24.550781 21.710938 24.6875 21.710938 24.859375 C 21.714844 25.03125 21.574219 25.167969 21.402344 25.167969 Z M 21.402344 25.167969 " fill-opacity="1" fill-rule="evenodd"/><path fill="#2279f5" d="M 21.402344 28.363281 L 8.109375 28.363281 C 7.941406 28.363281 7.800781 28.222656 7.800781 28.054688 C 7.800781 27.882812 7.941406 27.746094 8.109375 27.746094 L 21.402344 27.746094 C 21.574219 27.746094 21.710938 27.882812 21.710938 28.054688 C 21.714844 28.222656 21.574219 28.363281 21.402344 28.363281 Z M 21.402344 28.363281 " fill-opacity="1" fill-rule="evenodd"/><path fill="#2279f5" d="M 24.710938 19.617188 Z M 28.390625 18.402344 C 27.082031 18.402344 25.851562 18.910156 24.929688 19.835938 C 23.019531 21.746094 23.019531 24.855469 24.929688 26.765625 C 26.835938 28.675781 29.945312 28.675781 31.855469 26.765625 C 33.765625 24.855469 33.765625 21.746094 31.855469 19.835938 C 30.929688 18.910156 29.699219 18.402344 28.390625 18.402344 Z M 28.390625 28.816406 C 26.980469 28.816406 25.566406 28.277344 24.492188 27.203125 C 22.339844 25.050781 22.339844 21.550781 24.492188 19.398438 C 25.53125 18.355469 26.917969 17.785156 28.390625 17.785156 C 29.867188 17.785156 31.25 18.355469 32.292969 19.398438 C 34.445312 21.550781 34.445312 25.050781 32.292969 27.203125 C 31.21875 28.277344 29.804688 28.816406 28.390625 28.816406 Z M 28.390625 28.816406 " fill-opacity="1" fill-rule="evenodd"/><path fill="#2279f5" d="M 34.097656 27.851562 C 34.019531 27.851562 33.941406 27.820312 33.878906 27.761719 L 32.515625 26.398438 C 32.394531 26.277344 32.394531 26.082031 32.515625 25.960938 C 32.636719 25.839844 32.832031 25.839844 32.953125 25.960938 L 34.316406 27.324219 C 34.4375 27.445312 34.4375 27.640625 34.316406 27.761719 C 34.257812 27.820312 34.179688 27.851562 34.097656 27.851562 Z M 32.636719 29.316406 C 32.554688 29.316406 32.476562 29.285156 32.414062 29.226562 L 31.050781 27.859375 C 30.929688 27.742188 30.929688 27.542969 31.050781 27.425781 C 31.171875 27.304688 31.367188 27.304688 31.488281 27.425781 L 32.851562 28.789062 C 32.972656 28.910156 32.972656 29.105469 32.851562 29.226562 C 32.792969 29.285156 32.714844 29.316406 32.636719 29.316406 Z M 32.636719 29.316406 " fill-opacity="1" fill-rule="evenodd"/><g clip-path="url(#a0c26357a8)"><path fill="#2279f5" d="M 32.75 29.332031 L 37.484375 34.066406 C 37.707031 34.289062 38.003906 34.410156 38.320312 34.410156 C 38.636719 34.410156 38.933594 34.289062 39.15625 34.066406 C 39.617188 33.601562 39.617188 32.851562 39.15625 32.390625 L 34.421875 27.65625 Z M 38.320312 35.027344 C 37.835938 35.027344 37.386719 34.839844 37.046875 34.5 L 32.09375 29.550781 C 31.972656 29.429688 31.972656 29.234375 32.09375 29.113281 L 34.203125 27 C 34.320312 26.886719 34.523438 26.886719 34.640625 27 L 39.59375 31.953125 C 39.933594 32.292969 40.121094 32.746094 40.121094 33.226562 C 40.121094 33.710938 39.933594 34.164062 39.59375 34.5 C 39.253906 34.839844 38.800781 35.027344 38.320312 35.027344 Z M 38.320312 35.027344 " fill-opacity="1" fill-rule="evenodd"/></g></svg>