<svg xmlns="http://www.w3.org/2000/svg" xmlns:xlink="http://www.w3.org/1999/xlink" width="60" zoomAndPan="magnify" viewBox="0 0 45 36.000001" height="48" preserveAspectRatio="xMidYMid meet" version="1.0"><defs><clipPath id="120af26cb5"><path d="M 2.441406 0 L 44.039062 0 L 44.039062 35.027344 L 2.441406 35.027344 Z M 2.441406 0 " clip-rule="nonzero"/></clipPath></defs><g clip-path="url(#120af26cb5)"><path fill="#f51f1f" d="M 27.964844 23.640625 L 27.964844 28.238281 C 27.964844 28.394531 27.832031 28.523438 27.675781 28.523438 L 26.730469 28.523438 C 26.574219 28.523438 26.441406 28.394531 26.441406 28.238281 L 26.441406 23.640625 C 26.441406 23.484375 26.574219 23.355469 26.730469 23.355469 L 27.675781 23.355469 C 27.832031 23.355469 27.964844 23.476562 27.964844 23.640625 Z M 31.078125 21.527344 L 30.132812 21.527344 C 29.976562 21.527344 29.847656 21.660156 29.847656 21.816406 L 29.847656 28.238281 C 29.847656 28.394531 29.976562 28.523438 30.132812 28.523438 L 31.078125 28.523438 C 31.234375 28.523438 31.367188 28.394531 31.367188 28.238281 L 31.367188 21.816406 C 31.367188 21.652344 31.242188 21.527344 31.078125 21.527344 Z M 34.488281 15.988281 L 33.542969 15.988281 C 33.390625 15.988281 33.257812 16.121094 33.257812 16.277344 L 33.257812 28.230469 C 33.257812 28.386719 33.390625 28.515625 33.542969 28.515625 L 34.488281 28.515625 C 34.644531 28.515625 34.777344 28.386719 34.777344 28.230469 L 34.777344 16.277344 C 34.777344 16.121094 34.644531 15.988281 34.488281 15.988281 Z M 37.894531 18.808594 L 36.949219 18.808594 C 36.792969 18.808594 36.660156 18.941406 36.660156 19.097656 L 36.660156 28.238281 C 36.660156 28.394531 36.792969 28.523438 36.949219 28.523438 L 37.894531 28.523438 C 38.050781 28.523438 38.179688 28.394531 38.179688 28.238281 L 38.179688 19.097656 C 38.179688 18.941406 38.050781 18.808594 37.894531 18.808594 Z M 13.050781 8.113281 C 13.519531 3.320312 20.457031 3.558594 20.597656 8.402344 C 20.621094 10.464844 18.878906 12.199219 16.816406 12.183594 C 14.6875 12.230469 12.835938 10.242188 13.050781 8.113281 Z M 14.382812 8.238281 C 14.25 11.46875 18.960938 11.789062 19.265625 8.558594 C 19.363281 5.320312 14.710938 5.023438 14.382812 8.238281 Z M 44.378906 30.515625 L 44.378906 32.527344 C 44.378906 33.902344 43.261719 35.019531 41.886719 35.019531 L 4.945312 35.019531 C 3.574219 35.027344 2.457031 33.910156 2.457031 32.535156 L 2.457031 30.523438 C 2.457031 30.152344 2.75 29.855469 3.121094 29.855469 L 5.390625 29.855469 L 5.390625 9.371094 C 5.390625 8.46875 6.128906 7.726562 7.035156 7.726562 L 8.414062 7.726562 L 8.414062 7.316406 C 8.414062 6.714844 8.898438 6.230469 9.492188 6.230469 L 10.890625 6.230469 C 10.957031 6.058594 11.019531 5.894531 11.09375 5.738281 C 11.09375 5.738281 10.117188 4.75 10.117188 4.75 C 9.6875 4.355469 9.6875 3.625 10.117188 3.222656 L 11.644531 1.695312 C 12.066406 1.273438 12.746094 1.273438 13.175781 1.683594 L 14.160156 2.671875 C 14.324219 2.597656 14.480469 2.53125 14.644531 2.464844 L 14.644531 1.085938 C 14.644531 0.484375 15.132812 0 15.730469 0 L 17.894531 0 C 18.492188 0 18.976562 0.484375 18.976562 1.085938 L 18.976562 2.464844 C 19.144531 2.523438 19.308594 2.597656 19.472656 2.671875 L 20.464844 1.683594 C 20.886719 1.265625 21.566406 1.265625 21.996094 1.675781 L 23.53125 3.214844 C 23.953125 3.65625 23.953125 4.324219 23.539062 4.742188 L 22.546875 5.738281 C 22.621094 5.894531 22.6875 6.058594 22.75 6.230469 L 24.140625 6.230469 C 24.742188 6.230469 25.226562 6.714844 25.226562 7.316406 L 25.226562 7.734375 L 39.800781 7.734375 C 40.703125 7.734375 41.445312 8.476562 41.445312 9.378906 L 41.445312 29.855469 L 43.722656 29.855469 C 44.082031 29.847656 44.378906 30.152344 44.378906 30.515625 Z M 9.753906 9.230469 C 9.753906 9.230469 11.382812 9.230469 11.382812 9.230469 C 11.882812 9.214844 12.03125 9.707031 12.15625 10.09375 C 12.253906 10.496094 12.617188 10.851562 12.574219 11.269531 C 12.558594 11.410156 12.492188 11.550781 12.386719 11.648438 L 11.234375 12.800781 L 12.410156 13.976562 C 12.410156 13.976562 13.5625 12.824219 13.5625 12.824219 C 13.90625 12.460938 14.351562 12.691406 14.710938 12.890625 C 15.066406 13.113281 15.574219 13.101562 15.847656 13.425781 C 15.9375 13.539062 15.984375 13.679688 15.984375 13.828125 L 15.984375 15.453125 L 17.65625 15.453125 L 17.65625 13.828125 C 17.65625 13.523438 17.851562 13.257812 18.148438 13.183594 C 18.542969 13.078125 18.914062 12.921875 19.25 12.734375 C 19.511719 12.570312 19.859375 12.601562 20.078125 12.824219 L 20.515625 13.25 L 21.238281 13.976562 C 21.535156 13.679688 22.125 13.09375 22.414062 12.800781 C 22.363281 12.75 21.347656 11.730469 21.261719 11.648438 C 20.761719 11.148438 21.394531 10.546875 21.519531 10.019531 C 21.625 9.640625 21.804688 9.207031 22.265625 9.222656 L 23.894531 9.222656 C 23.894531 8.804688 23.894531 7.972656 23.894531 7.554688 L 22.265625 7.554688 C 21.960938 7.554688 21.699219 7.355469 21.625 7.0625 C 21.519531 6.667969 21.363281 6.289062 21.15625 5.933594 C 21.007812 5.671875 21.050781 5.34375 21.261719 5.128906 L 22.421875 3.980469 L 21.238281 2.796875 L 20.078125 3.945312 C 19.867188 4.160156 19.546875 4.199219 19.28125 4.050781 C 18.921875 3.847656 18.542969 3.691406 18.148438 3.585938 C 17.859375 3.5 17.65625 3.238281 17.65625 2.941406 L 17.65625 1.324219 L 15.984375 1.324219 L 15.984375 2.960938 C 15.984375 3.261719 15.789062 3.527344 15.492188 3.601562 C 15.105469 3.707031 14.738281 3.863281 14.351562 4.070312 C 14.085938 4.207031 13.765625 4.167969 13.5625 3.953125 L 12.410156 2.804688 L 11.234375 3.988281 L 12.386719 5.136719 C 12.597656 5.351562 12.640625 5.679688 12.492188 5.941406 C 12.304688 6.28125 12.140625 6.660156 12.015625 7.085938 C 11.933594 7.375 11.671875 7.5625 11.375 7.5625 L 9.753906 7.5625 Z M 6.722656 29.847656 L 40.105469 29.847656 L 40.105469 9.371094 C 40.105469 9.199219 39.972656 9.066406 39.800781 9.066406 L 25.226562 9.066406 L 25.226562 9.476562 C 25.226562 10.078125 24.742188 10.5625 24.140625 10.5625 L 22.75 10.5625 C 22.695312 10.726562 22.621094 10.890625 22.546875 11.046875 L 23.203125 11.707031 L 23.53125 12.035156 C 23.945312 12.453125 23.953125 13.136719 23.539062 13.5625 C 23.539062 13.5625 22.003906 15.09375 22.003906 15.09375 C 21.660156 15.453125 21.042969 15.519531 20.628906 15.222656 C 20.410156 15.058594 19.683594 14.304688 19.488281 14.113281 C 19.324219 14.179688 19.160156 14.253906 18.996094 14.320312 L 18.996094 15.710938 C 18.996094 16.308594 18.511719 16.792969 17.910156 16.792969 L 15.746094 16.792969 C 15.15625 16.792969 14.664062 16.308594 14.664062 15.710938 L 14.664062 14.320312 C 14.5 14.261719 14.332031 14.1875 14.167969 14.113281 C 14.167969 14.113281 13.191406 15.09375 13.191406 15.09375 C 12.789062 15.519531 12.058594 15.511719 11.652344 15.085938 C 11.652344 15.085938 10.132812 13.5625 10.132812 13.5625 C 9.773438 13.210938 9.707031 12.609375 9.992188 12.191406 C 10.042969 12.09375 11.003906 11.148438 11.113281 11.039062 C 11.039062 10.882812 10.972656 10.71875 10.90625 10.554688 L 9.507812 10.554688 C 8.910156 10.554688 8.429688 10.054688 8.421875 9.46875 L 8.421875 9.058594 L 7.035156 9.058594 C 6.863281 9.058594 6.722656 9.199219 6.722656 9.363281 Z M 43.046875 31.1875 C 40.210938 31.1875 6.625 31.1875 3.789062 31.1875 L 3.789062 32.535156 C 3.789062 33.175781 4.304688 33.695312 4.945312 33.695312 L 41.886719 33.695312 C 42.53125 33.695312 43.046875 33.175781 43.046875 32.535156 Z M 28.414062 14.097656 L 25.660156 14.320312 C 24.789062 14.410156 24.898438 15.691406 25.769531 15.652344 C 25.769531 15.652344 26.648438 15.578125 26.648438 15.578125 L 18.246094 23.988281 L 14.1875 19.925781 C 13.921875 19.664062 13.503906 19.664062 13.242188 19.925781 L 8.613281 24.554688 C 8.003906 25.179688 8.925781 26.109375 9.558594 25.5 C 9.558594 25.5 13.71875 21.339844 13.71875 21.339844 L 17.777344 25.402344 C 18.042969 25.664062 18.460938 25.664062 18.722656 25.402344 L 27.714844 16.40625 L 27.675781 17.074219 C 27.644531 17.945312 28.941406 18.027344 29.007812 17.148438 C 29.007812 17.148438 29.140625 14.796875 29.140625 14.796875 C 29.171875 14.410156 28.808594 14.066406 28.414062 14.097656 Z M 28.414062 14.097656 " fill-opacity="1" fill-rule="nonzero"/></g></svg>