<svg xmlns="http://www.w3.org/2000/svg" xmlns:xlink="http://www.w3.org/1999/xlink" width="60" zoomAndPan="magnify" viewBox="0 0 45 36.000001" height="48" preserveAspectRatio="xMidYMid meet" version="1.0"><defs><clipPath id="04c06b0ce4"><path d="M 23.125 11.410156 L 38.496094 11.410156 L 38.496094 34.75 L 23.125 34.75 Z M 23.125 11.410156 " clip-rule="nonzero"/></clipPath><clipPath id="cf70b7ce9e"><path d="M 6.386719 19.78125 L 25 19.78125 L 25 34.75 L 6.386719 34.75 Z M 6.386719 19.78125 " clip-rule="nonzero"/></clipPath></defs><g clip-path="url(#04c06b0ce4)"><path fill="#e21a6b" d="M 35.609375 31.570312 L 35.476562 31.722656 L 27.996094 31.722656 L 25.828125 27.953125 C 25.511719 27.402344 25.308594 26.804688 25.226562 26.203125 L 24.960938 22.523438 C 24.882812 21.980469 24.726562 21.449219 24.503906 20.949219 L 24.082031 20.007812 C 24.445312 19.878906 25.101562 19.761719 25.679688 20.296875 C 26.203125 20.773438 27.027344 23.25 27.46875 25.261719 C 27.515625 25.472656 27.742188 25.585938 27.9375 25.507812 C 28.484375 25.296875 28.835938 24.78125 28.835938 24.195312 L 28.835938 13.15625 C 28.835938 12.675781 29.230469 12.285156 29.707031 12.285156 C 30.191406 12.285156 30.582031 12.675781 30.582031 13.15625 L 30.582031 22.574219 C 30.582031 22.765625 30.738281 22.921875 30.933594 22.921875 C 31.125 22.921875 31.28125 22.765625 31.28125 22.574219 L 31.28125 19.523438 C 31.28125 19.078125 31.671875 18.71875 32.15625 18.71875 C 32.636719 18.71875 33.03125 19.078125 33.03125 19.523438 L 33.03125 22.574219 C 33.03125 22.765625 33.183594 22.921875 33.378906 22.921875 C 33.570312 22.921875 33.726562 22.765625 33.726562 22.574219 L 33.726562 20.304688 C 33.726562 19.859375 34.117188 19.5 34.597656 19.5 C 35.082031 19.5 35.472656 19.859375 35.472656 20.304688 L 35.472656 22.574219 C 35.472656 22.765625 35.628906 22.921875 35.820312 22.921875 C 36.015625 22.921875 36.171875 22.765625 36.171875 22.574219 L 36.171875 21.695312 C 36.171875 21.214844 36.5625 20.820312 37.046875 20.820312 C 37.527344 20.820312 37.917969 21.214844 37.917969 21.695312 L 37.917969 22.601562 C 37.921875 28.03125 38.359375 28.398438 35.609375 31.570312 Z M 37.316406 32.46875 L 37.308594 33.902344 L 26.824219 33.855469 L 26.832031 32.421875 Z M 38.617188 22.601562 L 38.613281 21.695312 C 38.613281 20.828125 37.910156 20.125 37.046875 20.125 C 36.722656 20.125 36.421875 20.222656 36.171875 20.390625 L 36.171875 20.304688 C 36.171875 19.476562 35.464844 18.800781 34.597656 18.800781 C 34.246094 18.800781 33.921875 18.917969 33.65625 19.109375 C 33.46875 18.484375 32.867188 18.023438 32.15625 18.023438 C 31.832031 18.023438 31.53125 18.117188 31.28125 18.277344 L 31.28125 13.15625 C 31.28125 12.289062 30.574219 11.589844 29.707031 11.589844 C 28.84375 11.589844 28.140625 12.289062 28.140625 13.15625 L 28.140625 24.195312 C 28.140625 24.335938 28.097656 24.46875 28.023438 24.582031 C 27.671875 23.152344 26.890625 20.460938 26.152344 19.78125 C 25.167969 18.871094 23.949219 19.226562 23.441406 19.542969 C 23.292969 19.632812 23.234375 19.820312 23.304688 19.980469 L 23.871094 21.234375 C 24.066406 21.675781 24.203125 22.140625 24.269531 22.601562 L 24.53125 26.273438 C 24.628906 26.992188 24.863281 27.671875 25.222656 28.300781 L 27.191406 31.722656 L 26.484375 31.722656 C 26.292969 31.722656 26.136719 31.875 26.136719 32.066406 L 26.125 34.199219 C 26.125 34.289062 26.160156 34.378906 26.226562 34.445312 C 26.292969 34.511719 26.382812 34.550781 26.476562 34.550781 L 37.65625 34.601562 C 37.65625 34.601562 37.660156 34.601562 37.660156 34.601562 C 37.75 34.601562 37.839844 34.5625 37.902344 34.5 C 37.96875 34.433594 38.007812 34.34375 38.007812 34.253906 L 38.015625 32.121094 C 38.019531 31.929688 37.863281 31.773438 37.667969 31.773438 L 36.359375 31.769531 C 38.992188 28.714844 38.621094 28.058594 38.617188 22.601562 " fill-opacity="1" fill-rule="nonzero"/></g><path fill="#e21a6b" d="M 15.914062 0.945312 C 18.847656 0.945312 21.234375 3.332031 21.234375 6.265625 C 21.234375 9.203125 18.847656 11.589844 15.914062 11.589844 C 12.980469 11.589844 10.59375 9.203125 10.59375 6.265625 C 10.59375 3.332031 12.980469 0.945312 15.914062 0.945312 Z M 15.914062 12.285156 C 19.234375 12.285156 21.933594 9.585938 21.933594 6.265625 C 21.933594 2.949219 19.234375 0.25 15.914062 0.25 C 12.597656 0.25 9.898438 2.949219 9.898438 6.265625 C 9.898438 9.585938 12.597656 12.285156 15.914062 12.285156 " fill-opacity="1" fill-rule="nonzero"/><g clip-path="url(#cf70b7ce9e)"><path fill="#e21a6b" d="M 21.988281 34.050781 L 19.53125 34.050781 L 19.53125 20.492188 L 21.988281 20.492188 Z M 16.90625 34.050781 L 14.453125 34.050781 L 14.453125 23.324219 L 16.90625 23.324219 Z M 11.824219 34.050781 L 9.367188 34.050781 L 9.367188 26.441406 L 11.824219 26.441406 Z M 24.972656 34.398438 C 24.972656 34.207031 24.8125 34.050781 24.621094 34.050781 L 22.683594 34.050781 L 22.683594 20.144531 C 22.683594 19.953125 22.53125 19.796875 22.335938 19.796875 L 19.183594 19.796875 C 18.992188 19.796875 18.835938 19.953125 18.835938 20.144531 L 18.835938 34.050781 L 17.605469 34.050781 L 17.605469 22.976562 C 17.605469 22.785156 17.449219 22.628906 17.253906 22.628906 L 14.101562 22.628906 C 13.910156 22.628906 13.753906 22.785156 13.753906 22.976562 L 13.753906 34.050781 L 12.523438 34.050781 L 12.523438 26.09375 C 12.523438 25.898438 12.367188 25.742188 12.175781 25.742188 L 9.019531 25.742188 C 8.828125 25.742188 8.671875 25.898438 8.671875 26.09375 L 8.671875 34.050781 L 6.734375 34.050781 C 6.542969 34.050781 6.386719 34.207031 6.386719 34.398438 C 6.386719 34.59375 6.542969 34.75 6.734375 34.75 L 24.621094 34.75 C 24.8125 34.75 24.972656 34.59375 24.972656 34.398438 " fill-opacity="1" fill-rule="nonzero"/></g><path fill="#e21a6b" d="M 15.726562 7.949219 C 15.28125 7.949219 14.867188 7.796875 14.578125 7.605469 L 14.382812 8.140625 C 14.664062 8.339844 15.144531 8.484375 15.605469 8.492188 L 15.605469 9.300781 L 16.109375 9.300781 L 16.109375 8.46875 C 16.933594 8.332031 17.375 7.742188 17.375 7.109375 C 17.375 6.398438 16.957031 5.984375 16.136719 5.648438 C 15.441406 5.359375 15.144531 5.152344 15.144531 4.734375 C 15.144531 4.417969 15.375 4.050781 15.992188 4.050781 C 16.503906 4.050781 16.832031 4.222656 17 4.320312 L 17.199219 3.792969 C 16.964844 3.65625 16.640625 3.527344 16.160156 3.511719 L 16.160156 2.738281 L 15.664062 2.738281 L 15.664062 3.546875 C 14.929688 3.664062 14.457031 4.167969 14.457031 4.832031 C 14.457031 5.527344 14.960938 5.898438 15.777344 6.214844 C 16.367188 6.457031 16.675781 6.726562 16.675781 7.167969 C 16.675781 7.621094 16.296875 7.949219 15.726562 7.949219 " fill-opacity="1" fill-rule="nonzero"/><path fill="#e21a6b" d="M 10.421875 23.355469 C 10.285156 23.492188 10.066406 23.492188 9.929688 23.355469 C 9.792969 23.222656 9.792969 23 9.929688 22.863281 L 23.550781 9.242188 L 30.589844 9.242188 L 36.324219 3.507812 L 36.816406 4 L 30.878906 9.941406 L 23.839844 9.941406 L 10.421875 23.355469 " fill-opacity="1" fill-rule="nonzero"/><path fill="#e21a6b" d="M 36.355469 6.445312 L 36.355469 3.96875 L 33.878906 3.96875 L 34.929688 2.921875 L 37.40625 2.921875 L 37.40625 5.394531 L 36.355469 6.445312 " fill-opacity="1" fill-rule="nonzero"/></svg>