<svg xmlns="http://www.w3.org/2000/svg" xmlns:xlink="http://www.w3.org/1999/xlink" width="60" zoomAndPan="magnify" viewBox="0 0 45 36.000001" height="48" preserveAspectRatio="xMidYMid meet" version="1.0"><defs><clipPath id="6e8c6c46b6"><path d="M 14 8 L 24 8 L 24 18 L 14 18 Z M 14 8 " clip-rule="nonzero"/></clipPath><clipPath id="790ac3b7ef"><path d="M 1.824219 12 L 19.46875 -4.386719 L 45.292969 23.414062 L 27.648438 39.804688 Z M 1.824219 12 " clip-rule="nonzero"/></clipPath><clipPath id="479b9ba8cf"><path d="M 19.660156 -4.566406 L 2.015625 11.820312 L 27.839844 39.625 L 45.484375 23.234375 Z M 19.660156 -4.566406 " clip-rule="nonzero"/></clipPath><clipPath id="9da693555d"><path d="M 11 5 L 38 5 L 38 35 L 11 35 Z M 11 5 " clip-rule="nonzero"/></clipPath><clipPath id="ba7a31b61c"><path d="M 1.824219 12 L 19.46875 -4.386719 L 45.292969 23.414062 L 27.648438 39.804688 Z M 1.824219 12 " clip-rule="nonzero"/></clipPath><clipPath id="cabf1f8d01"><path d="M 19.660156 -4.566406 L 2.015625 11.820312 L 27.839844 39.625 L 45.484375 23.234375 Z M 19.660156 -4.566406 " clip-rule="nonzero"/></clipPath><clipPath id="1edb02c630"><path d="M 10 3 L 13 3 L 13 7 L 10 7 Z M 10 3 " clip-rule="nonzero"/></clipPath><clipPath id="f77dfce95f"><path d="M 1.824219 12 L 19.46875 -4.386719 L 45.292969 23.414062 L 27.648438 39.804688 Z M 1.824219 12 " clip-rule="nonzero"/></clipPath><clipPath id="860c9ef811"><path d="M 19.660156 -4.566406 L 2.015625 11.820312 L 27.839844 39.625 L 45.484375 23.234375 Z M 19.660156 -4.566406 " clip-rule="nonzero"/></clipPath><clipPath id="747ea565d0"><path d="M 14 1 L 17 1 L 17 4 L 14 4 Z M 14 1 " clip-rule="nonzero"/></clipPath><clipPath id="a487ec37a6"><path d="M 1.824219 12 L 19.46875 -4.386719 L 45.292969 23.414062 L 27.648438 39.804688 Z M 1.824219 12 " clip-rule="nonzero"/></clipPath><clipPath id="49cc181171"><path d="M 19.660156 -4.566406 L 2.015625 11.820312 L 27.839844 39.625 L 45.484375 23.234375 Z M 19.660156 -4.566406 " clip-rule="nonzero"/></clipPath><clipPath id="64b93b9742"><path d="M 18 0 L 21 0 L 21 4 L 18 4 Z M 18 0 " clip-rule="nonzero"/></clipPath><clipPath id="02c49a76e5"><path d="M 1.824219 12 L 19.46875 -4.386719 L 45.292969 23.414062 L 27.648438 39.804688 Z M 1.824219 12 " clip-rule="nonzero"/></clipPath><clipPath id="b3d1b61978"><path d="M 19.660156 -4.566406 L 2.015625 11.820312 L 27.839844 39.625 L 45.484375 23.234375 Z M 19.660156 -4.566406 " clip-rule="nonzero"/></clipPath><clipPath id="4845a16d65"><path d="M 22 1 L 25 1 L 25 5 L 22 5 Z M 22 1 " clip-rule="nonzero"/></clipPath><clipPath id="1a71d73ee7"><path d="M 1.824219 12 L 19.46875 -4.386719 L 45.292969 23.414062 L 27.648438 39.804688 Z M 1.824219 12 " clip-rule="nonzero"/></clipPath><clipPath id="54b6acd400"><path d="M 19.660156 -4.566406 L 2.015625 11.820312 L 27.839844 39.625 L 45.484375 23.234375 Z M 19.660156 -4.566406 " clip-rule="nonzero"/></clipPath><clipPath id="6c5a13e3e2"><path d="M 25 3 L 29 3 L 29 7 L 25 7 Z M 25 3 " clip-rule="nonzero"/></clipPath><clipPath id="c405cfdb6a"><path d="M 1.824219 12 L 19.46875 -4.386719 L 45.292969 23.414062 L 27.648438 39.804688 Z M 1.824219 12 " clip-rule="nonzero"/></clipPath><clipPath id="3b04fc1647"><path d="M 19.660156 -4.566406 L 2.015625 11.820312 L 27.839844 39.625 L 45.484375 23.234375 Z M 19.660156 -4.566406 " clip-rule="nonzero"/></clipPath><clipPath id="c587836e94"><path d="M 27 7 L 31 7 L 31 10 L 27 10 Z M 27 7 " clip-rule="nonzero"/></clipPath><clipPath id="7d16755d3d"><path d="M 1.824219 12 L 19.46875 -4.386719 L 45.292969 23.414062 L 27.648438 39.804688 Z M 1.824219 12 " clip-rule="nonzero"/></clipPath><clipPath id="33af05af3c"><path d="M 19.660156 -4.566406 L 2.015625 11.820312 L 27.839844 39.625 L 45.484375 23.234375 Z M 19.660156 -4.566406 " clip-rule="nonzero"/></clipPath><clipPath id="bb37a0e714"><path d="M 28 12 L 32 12 L 32 14 L 28 14 Z M 28 12 " clip-rule="nonzero"/></clipPath><clipPath id="d85e3c552d"><path d="M 1.824219 12 L 19.46875 -4.386719 L 45.292969 23.414062 L 27.648438 39.804688 Z M 1.824219 12 " clip-rule="nonzero"/></clipPath><clipPath id="a8f6f9cd9c"><path d="M 19.660156 -4.566406 L 2.015625 11.820312 L 27.839844 39.625 L 45.484375 23.234375 Z M 19.660156 -4.566406 " clip-rule="nonzero"/></clipPath><clipPath id="947da7ffaa"><path d="M 7 7 L 11 7 L 11 10 L 7 10 Z M 7 7 " clip-rule="nonzero"/></clipPath><clipPath id="eadefb3df4"><path d="M 1.824219 12 L 19.46875 -4.386719 L 45.292969 23.414062 L 27.648438 39.804688 Z M 1.824219 12 " clip-rule="nonzero"/></clipPath><clipPath id="9247337a61"><path d="M 19.660156 -4.566406 L 2.015625 11.820312 L 27.839844 39.625 L 45.484375 23.234375 Z M 19.660156 -4.566406 " clip-rule="nonzero"/></clipPath><clipPath id="ba5feafbc4"><path d="M 6 11 L 10 11 L 10 13 L 6 13 Z M 6 11 " clip-rule="nonzero"/></clipPath><clipPath id="f0d2410590"><path d="M 1.824219 12 L 19.46875 -4.386719 L 45.292969 23.414062 L 27.648438 39.804688 Z M 1.824219 12 " clip-rule="nonzero"/></clipPath><clipPath id="a19dc64b94"><path d="M 19.660156 -4.566406 L 2.015625 11.820312 L 27.839844 39.625 L 45.484375 23.234375 Z M 19.660156 -4.566406 " clip-rule="nonzero"/></clipPath><clipPath id="e0335ad017"><path d="M 7 15 L 11 15 L 11 18 L 7 18 Z M 7 15 " clip-rule="nonzero"/></clipPath><clipPath id="10a632c797"><path d="M 1.824219 12 L 19.46875 -4.386719 L 45.292969 23.414062 L 27.648438 39.804688 Z M 1.824219 12 " clip-rule="nonzero"/></clipPath><clipPath id="caab02e349"><path d="M 19.660156 -4.566406 L 2.015625 11.820312 L 27.839844 39.625 L 45.484375 23.234375 Z M 19.660156 -4.566406 " clip-rule="nonzero"/></clipPath><clipPath id="dfcdbd8a3f"><path d="M 9 18 L 13 18 L 13 22 L 9 22 Z M 9 18 " clip-rule="nonzero"/></clipPath><clipPath id="b2eea2cce4"><path d="M 1.824219 12 L 19.46875 -4.386719 L 45.292969 23.414062 L 27.648438 39.804688 Z M 1.824219 12 " clip-rule="nonzero"/></clipPath><clipPath id="998b98ae68"><path d="M 19.660156 -4.566406 L 2.015625 11.820312 L 27.839844 39.625 L 45.484375 23.234375 Z M 19.660156 -4.566406 " clip-rule="nonzero"/></clipPath><clipPath id="b586dbac95"><path d="M 13 21 L 16 21 L 16 24 L 13 24 Z M 13 21 " clip-rule="nonzero"/></clipPath><clipPath id="02baef84ed"><path d="M 1.824219 12 L 19.46875 -4.386719 L 45.292969 23.414062 L 27.648438 39.804688 Z M 1.824219 12 " clip-rule="nonzero"/></clipPath><clipPath id="8943092b07"><path d="M 19.660156 -4.566406 L 2.015625 11.820312 L 27.839844 39.625 L 45.484375 23.234375 Z M 19.660156 -4.566406 " clip-rule="nonzero"/></clipPath><clipPath id="dc5ff940a7"><path d="M 17 22 L 20 22 L 20 25 L 17 25 Z M 17 22 " clip-rule="nonzero"/></clipPath><clipPath id="d10e6cc079"><path d="M 1.824219 12 L 19.46875 -4.386719 L 45.292969 23.414062 L 27.648438 39.804688 Z M 1.824219 12 " clip-rule="nonzero"/></clipPath><clipPath id="8d118c21e6"><path d="M 19.660156 -4.566406 L 2.015625 11.820312 L 27.839844 39.625 L 45.484375 23.234375 Z M 19.660156 -4.566406 " clip-rule="nonzero"/></clipPath></defs><g clip-path="url(#6e8c6c46b6)"><g clip-path="url(#790ac3b7ef)"><g clip-path="url(#479b9ba8cf)"><path fill="#005fff" d="M 22.109375 15.96875 C 23.960938 14.246094 24.066406 11.339844 22.347656 9.488281 C 20.625 7.636719 17.71875 7.527344 15.867188 9.25 C 14.015625 10.96875 13.910156 13.875 15.628906 15.726562 C 17.347656 17.582031 20.253906 17.6875 22.109375 15.96875 Z M 16.679688 10.125 C 18.050781 8.851562 20.199219 8.929688 21.472656 10.300781 C 22.742188 11.671875 22.664062 13.820312 21.296875 15.09375 C 19.925781 16.363281 17.777344 16.285156 16.503906 14.914062 C 15.230469 13.546875 15.3125 11.394531 16.679688 10.125 Z M 16.679688 10.125 " fill-opacity="1" fill-rule="nonzero"/></g></g></g><g clip-path="url(#9da693555d)"><g clip-path="url(#ba7a31b61c)"><g clip-path="url(#cabf1f8d01)"><path fill="#005fff" d="M 34.882812 32.804688 L 37.957031 29.949219 L 25.410156 16.4375 C 27.085938 13.625 26.71875 9.945312 24.464844 7.519531 C 21.660156 4.5 16.921875 4.324219 13.898438 7.128906 C 10.878906 9.9375 10.703125 14.675781 13.511719 17.695312 C 15.765625 20.121094 19.402344 20.757812 22.332031 19.292969 L 28.109375 25.511719 L 24.820312 28.570312 L 27.332031 31.277344 L 28.980469 29.75 L 29.867188 30.707031 L 28.222656 32.238281 L 30.738281 34.945312 L 34.03125 31.886719 Z M 36.269531 29.886719 L 34.945312 31.117188 L 34.09375 30.199219 L 30.800781 33.257812 L 29.910156 32.296875 L 31.554688 30.769531 L 29.042969 28.0625 L 27.394531 29.589844 L 26.507812 28.632812 L 29.796875 25.574219 L 22.570312 17.792969 L 22.15625 18.035156 C 19.640625 19.507812 16.371094 19.023438 14.386719 16.882812 C 12.027344 14.34375 12.175781 10.363281 14.710938 8.003906 C 17.25 5.648438 21.234375 5.792969 23.589844 8.332031 C 25.578125 10.472656 25.820312 13.765625 24.164062 16.167969 L 23.894531 16.5625 Z M 36.269531 29.886719 " fill-opacity="1" fill-rule="nonzero"/></g></g></g><g clip-path="url(#1edb02c630)"><g clip-path="url(#f77dfce95f)"><g clip-path="url(#860c9ef811)"><path fill="#005fff" d="M 11.171875 3.316406 L 10.296875 4.128906 L 12.082031 6.050781 L 12.957031 5.238281 Z M 11.171875 3.316406 " fill-opacity="1" fill-rule="nonzero"/></g></g></g><g clip-path="url(#747ea565d0)"><g clip-path="url(#a487ec37a6)"><g clip-path="url(#49cc181171)"><path fill="#005fff" d="M 14.203125 1.449219 L 15.117188 3.90625 L 16.238281 3.492188 L 15.324219 1.03125 Z M 14.203125 1.449219 " fill-opacity="1" fill-rule="nonzero"/></g></g></g><g clip-path="url(#64b93b9742)"><g clip-path="url(#02c49a76e5)"><g clip-path="url(#b3d1b61978)"><path fill="#005fff" d="M 18.839844 0.46875 L 18.742188 3.089844 L 19.9375 3.132812 L 20.03125 0.511719 Z M 18.839844 0.46875 " fill-opacity="1" fill-rule="nonzero"/></g></g></g><g clip-path="url(#4845a16d65)"><g clip-path="url(#1a71d73ee7)"><g clip-path="url(#54b6acd400)"><path fill="#005fff" d="M 23.496094 1.335938 L 22.402344 3.71875 L 23.488281 4.21875 L 24.582031 1.832031 Z M 23.496094 1.335938 " fill-opacity="1" fill-rule="nonzero"/></g></g></g><g clip-path="url(#6c5a13e3e2)"><g clip-path="url(#c405cfdb6a)"><g clip-path="url(#3b04fc1647)"><path fill="#005fff" d="M 27.46875 3.917969 L 25.546875 5.703125 L 26.359375 6.578125 L 28.28125 4.792969 Z M 27.46875 3.917969 " fill-opacity="1" fill-rule="nonzero"/></g></g></g><g clip-path="url(#c587836e94)"><g clip-path="url(#7d16755d3d)"><g clip-path="url(#33af05af3c)"><path fill="#005fff" d="M 27.6875 8.738281 L 28.105469 9.859375 L 30.5625 8.945312 L 30.148438 7.824219 Z M 27.6875 8.738281 " fill-opacity="1" fill-rule="nonzero"/></g></g></g><g clip-path="url(#bb37a0e714)"><g clip-path="url(#d85e3c552d)"><g clip-path="url(#a8f6f9cd9c)"><path fill="#005fff" d="M 28.507812 12.363281 L 28.464844 13.554688 L 31.085938 13.652344 L 31.128906 12.457031 Z M 28.507812 12.363281 " fill-opacity="1" fill-rule="nonzero"/></g></g></g><g clip-path="url(#947da7ffaa)"><g clip-path="url(#eadefb3df4)"><g clip-path="url(#9247337a61)"><path fill="#005fff" d="M 8.210938 7.015625 L 7.714844 8.097656 L 10.097656 9.191406 L 10.597656 8.109375 Z M 8.210938 7.015625 " fill-opacity="1" fill-rule="nonzero"/></g></g></g><g clip-path="url(#ba5feafbc4)"><g clip-path="url(#f0d2410590)"><g clip-path="url(#a19dc64b94)"><path fill="#005fff" d="M 6.890625 11.5625 L 6.847656 12.757812 L 9.46875 12.855469 L 9.515625 11.660156 Z M 6.890625 11.5625 " fill-opacity="1" fill-rule="nonzero"/></g></g></g><g clip-path="url(#e0335ad017)"><g clip-path="url(#10a632c797)"><g clip-path="url(#caab02e349)"><path fill="#005fff" d="M 7.414062 16.273438 L 7.828125 17.390625 L 10.289062 16.476562 L 9.871094 15.359375 Z M 7.414062 16.273438 " fill-opacity="1" fill-rule="nonzero"/></g></g></g><g clip-path="url(#dfcdbd8a3f)"><g clip-path="url(#b2eea2cce4)"><g clip-path="url(#998b98ae68)"><path fill="#005fff" d="M 11.617188 18.636719 L 9.695312 20.421875 L 10.507812 21.296875 L 12.429688 19.511719 Z M 11.617188 18.636719 " fill-opacity="1" fill-rule="nonzero"/></g></g></g><g clip-path="url(#b586dbac95)"><g clip-path="url(#02baef84ed)"><g clip-path="url(#8943092b07)"><path fill="#005fff" d="M 14.488281 21 L 13.394531 23.382812 L 14.480469 23.882812 L 15.574219 21.496094 Z M 14.488281 21 " fill-opacity="1" fill-rule="nonzero"/></g></g></g><g clip-path="url(#dc5ff940a7)"><g clip-path="url(#d10e6cc079)"><g clip-path="url(#8d118c21e6)"><path fill="#005fff" d="M 18.039062 22.082031 L 17.945312 24.707031 L 19.136719 24.75 L 19.234375 22.125 Z M 18.039062 22.082031 " fill-opacity="1" fill-rule="nonzero"/></g></g></g></svg>