<svg xmlns="http://www.w3.org/2000/svg" xmlns:xlink="http://www.w3.org/1999/xlink" width="60" zoomAndPan="magnify" viewBox="0 0 45 36.000001" height="48" preserveAspectRatio="xMidYMid meet" version="1.0"><defs><clipPath id="2145791c7b"><path d="M 5.101562 1 L 20 1 L 20 22 L 5.101562 22 Z M 5.101562 1 " clip-rule="nonzero"/></clipPath><clipPath id="b475f53d02"><path d="M 8 26 L 37 26 L 37 34.296875 L 8 34.296875 Z M 8 26 " clip-rule="nonzero"/></clipPath><clipPath id="681ee6e707"><path d="M 36 18 L 40.855469 18 L 40.855469 22 L 36 22 Z M 36 18 " clip-rule="nonzero"/></clipPath></defs><path fill="#ffc529" d="M 38.070312 21.808594 C 38.042969 21.808594 38.015625 21.808594 37.988281 21.800781 C 37.890625 21.777344 37.8125 21.722656 37.761719 21.636719 C 37.707031 21.554688 37.691406 21.460938 37.714844 21.363281 C 37.835938 20.839844 37.929688 20.3125 38 19.78125 C 38.066406 19.25 38.105469 18.714844 38.121094 18.179688 C 38.132812 17.640625 38.117188 17.105469 38.078125 16.570312 C 38.035156 16.035156 37.964844 15.503906 37.871094 14.976562 C 37.773438 14.449219 37.652344 13.929688 37.503906 13.414062 C 37.355469 12.898438 37.179688 12.390625 36.980469 11.894531 C 36.777344 11.394531 36.554688 10.910156 36.304688 10.433594 C 36.054688 9.960938 35.78125 9.5 35.480469 9.050781 C 35.183594 8.605469 34.867188 8.175781 34.523438 7.761719 C 34.183594 7.347656 33.824219 6.949219 33.441406 6.574219 C 33.0625 6.195312 32.660156 5.839844 32.242188 5.503906 C 31.824219 5.164062 31.390625 4.851562 30.941406 4.558594 C 30.492188 4.265625 30.027344 3.996094 29.550781 3.753906 C 29.074219 3.507812 28.585938 3.285156 28.085938 3.089844 C 27.585938 2.894531 27.078125 2.726562 26.5625 2.582031 C 26.046875 2.4375 25.523438 2.320312 24.992188 2.230469 C 24.894531 2.214844 24.816406 2.164062 24.757812 2.082031 C 24.699219 2 24.679688 1.910156 24.695312 1.8125 C 24.710938 1.710938 24.761719 1.632812 24.84375 1.574219 C 24.925781 1.515625 25.015625 1.496094 25.113281 1.511719 C 25.667969 1.609375 26.214844 1.730469 26.757812 1.878906 C 27.296875 2.03125 27.828125 2.207031 28.351562 2.414062 C 28.875 2.617188 29.386719 2.847656 29.882812 3.105469 C 30.382812 3.359375 30.867188 3.640625 31.339844 3.949219 C 31.808594 4.253906 32.261719 4.582031 32.699219 4.933594 C 33.136719 5.285156 33.554688 5.660156 33.953125 6.054688 C 34.351562 6.449219 34.730469 6.863281 35.089844 7.296875 C 35.445312 7.730469 35.777344 8.179688 36.089844 8.648438 C 36.398438 9.117188 36.6875 9.597656 36.949219 10.09375 C 37.210938 10.589844 37.445312 11.097656 37.65625 11.621094 C 37.863281 12.140625 38.046875 12.671875 38.203125 13.210938 C 38.359375 13.75 38.488281 14.292969 38.585938 14.847656 C 38.6875 15.398438 38.757812 15.957031 38.800781 16.515625 C 38.847656 17.074219 38.859375 17.636719 38.847656 18.195312 C 38.832031 18.757812 38.792969 19.316406 38.71875 19.871094 C 38.648438 20.429688 38.550781 20.980469 38.425781 21.527344 C 38.378906 21.714844 38.261719 21.808594 38.070312 21.808594 Z M 38.070312 21.808594 " fill-opacity="1" fill-rule="nonzero"/><g clip-path="url(#2145791c7b)"><path fill="#ffc529" d="M 6.617188 21.808594 C 6.425781 21.808594 6.304688 21.714844 6.261719 21.527344 C 6.136719 20.980469 6.039062 20.429688 5.964844 19.871094 C 5.894531 19.316406 5.855469 18.757812 5.839844 18.195312 C 5.828125 17.636719 5.839844 17.074219 5.886719 16.515625 C 5.929688 15.957031 6 15.398438 6.101562 14.847656 C 6.199219 14.296875 6.328125 13.75 6.484375 13.210938 C 6.640625 12.671875 6.824219 12.140625 7.03125 11.621094 C 7.242188 11.101562 7.480469 10.589844 7.742188 10.09375 C 8.003906 9.597656 8.289062 9.117188 8.597656 8.648438 C 8.910156 8.179688 9.242188 7.730469 9.601562 7.296875 C 9.957031 6.863281 10.335938 6.449219 10.734375 6.054688 C 11.132812 5.660156 11.550781 5.289062 11.988281 4.933594 C 12.425781 4.582031 12.878906 4.253906 13.347656 3.949219 C 13.820312 3.640625 14.304688 3.359375 14.804688 3.105469 C 15.300781 2.847656 15.8125 2.617188 16.335938 2.414062 C 16.859375 2.207031 17.390625 2.03125 17.929688 1.878906 C 18.472656 1.730469 19.019531 1.609375 19.574219 1.511719 C 19.671875 1.496094 19.761719 1.519531 19.84375 1.574219 C 19.925781 1.632812 19.976562 1.714844 19.992188 1.8125 C 20.007812 1.910156 19.988281 2 19.929688 2.082031 C 19.871094 2.164062 19.792969 2.214844 19.695312 2.230469 C 19.164062 2.320312 18.640625 2.4375 18.125 2.582031 C 17.609375 2.726562 17.101562 2.894531 16.601562 3.089844 C 16.101562 3.285156 15.613281 3.507812 15.136719 3.753906 C 14.65625 3.996094 14.195312 4.265625 13.746094 4.558594 C 13.292969 4.851562 12.859375 5.164062 12.441406 5.503906 C 12.027344 5.839844 11.625 6.195312 11.246094 6.574219 C 10.863281 6.949219 10.503906 7.347656 10.160156 7.761719 C 9.820312 8.175781 9.5 8.605469 9.203125 9.050781 C 8.90625 9.5 8.632812 9.960938 8.382812 10.433594 C 8.132812 10.910156 7.910156 11.394531 7.707031 11.894531 C 7.507812 12.390625 7.332031 12.898438 7.183594 13.414062 C 7.035156 13.929688 6.914062 14.449219 6.816406 14.976562 C 6.71875 15.503906 6.652344 16.035156 6.609375 16.570312 C 6.570312 17.105469 6.554688 17.640625 6.566406 18.179688 C 6.582031 18.714844 6.621094 19.25 6.6875 19.78125 C 6.753906 20.3125 6.851562 20.839844 6.972656 21.363281 C 6.992188 21.460938 6.980469 21.554688 6.925781 21.636719 C 6.871094 21.722656 6.796875 21.777344 6.699219 21.800781 C 6.671875 21.808594 6.644531 21.808594 6.617188 21.808594 Z M 6.617188 21.808594 " fill-opacity="1" fill-rule="nonzero"/></g><g clip-path="url(#b475f53d02)"><path fill="#ffc529" d="M 22.339844 34.296875 C 20.949219 34.300781 19.582031 34.128906 18.234375 33.785156 C 16.886719 33.441406 15.605469 32.933594 14.386719 32.265625 C 13.167969 31.59375 12.050781 30.78125 11.039062 29.828125 C 10.027344 28.875 9.148438 27.8125 8.40625 26.636719 C 8.355469 26.550781 8.339844 26.460938 8.363281 26.363281 C 8.386719 26.269531 8.4375 26.195312 8.523438 26.140625 C 8.605469 26.085938 8.695312 26.070312 8.792969 26.089844 C 8.890625 26.113281 8.964844 26.164062 9.019531 26.246094 C 9.375 26.804688 9.765625 27.339844 10.1875 27.851562 C 10.609375 28.359375 11.058594 28.839844 11.542969 29.292969 C 12.023438 29.746094 12.535156 30.167969 13.070312 30.558594 C 13.605469 30.945312 14.164062 31.300781 14.742188 31.617188 C 15.324219 31.9375 15.921875 32.21875 16.535156 32.460938 C 17.152344 32.707031 17.777344 32.910156 18.417969 33.074219 C 19.0625 33.238281 19.710938 33.363281 20.367188 33.445312 C 21.023438 33.527344 21.683594 33.570312 22.34375 33.570312 C 23.003906 33.570312 23.664062 33.527344 24.320312 33.445312 C 24.976562 33.363281 25.625 33.238281 26.269531 33.074219 C 26.910156 32.910156 27.535156 32.707031 28.152344 32.460938 C 28.765625 32.21875 29.363281 31.9375 29.945312 31.617188 C 30.523438 31.300781 31.082031 30.945312 31.617188 30.558594 C 32.152344 30.167969 32.664062 29.746094 33.144531 29.292969 C 33.628906 28.839844 34.078125 28.359375 34.5 27.851562 C 34.921875 27.339844 35.3125 26.804688 35.667969 26.246094 C 35.722656 26.164062 35.796875 26.113281 35.894531 26.089844 C 35.992188 26.070312 36.082031 26.085938 36.164062 26.140625 C 36.25 26.195312 36.300781 26.269531 36.324219 26.363281 C 36.347656 26.460938 36.332031 26.550781 36.28125 26.636719 C 35.539062 27.8125 34.660156 28.878906 33.648438 29.832031 C 32.632812 30.785156 31.519531 31.59375 30.300781 32.265625 C 29.082031 32.933594 27.796875 33.441406 26.449219 33.785156 C 25.101562 34.128906 23.734375 34.300781 22.339844 34.296875 Z M 22.339844 34.296875 " fill-opacity="1" fill-rule="nonzero"/></g><path fill="#ffc529" d="M 18.210938 4.546875 C 18.070312 4.546875 17.964844 4.484375 17.894531 4.359375 C 17.824219 4.234375 17.828125 4.109375 17.90625 3.988281 L 19.175781 1.988281 L 17.175781 0.71875 C 17.089844 0.664062 17.035156 0.589844 17.015625 0.492188 C 16.992188 0.394531 17.007812 0.300781 17.0625 0.214844 C 17.117188 0.132812 17.191406 0.078125 17.289062 0.0546875 C 17.386719 0.0351562 17.480469 0.0507812 17.5625 0.105469 L 19.875 1.570312 C 19.960938 1.621094 20.011719 1.699219 20.035156 1.796875 C 20.054688 1.894531 20.039062 1.984375 19.988281 2.070312 L 18.523438 4.378906 C 18.449219 4.492188 18.347656 4.546875 18.210938 4.546875 Z M 18.210938 4.546875 " fill-opacity="1" fill-rule="nonzero"/><g clip-path="url(#681ee6e707)"><path fill="#ffc529" d="M 38.070312 21.824219 C 38.042969 21.824219 38.015625 21.820312 37.984375 21.8125 C 37.886719 21.789062 37.8125 21.734375 37.761719 21.648438 L 36.324219 19.320312 C 36.265625 19.234375 36.25 19.140625 36.269531 19.039062 C 36.292969 18.9375 36.347656 18.859375 36.433594 18.804688 C 36.523438 18.75 36.617188 18.738281 36.71875 18.765625 C 36.820312 18.789062 36.894531 18.847656 36.945312 18.941406 L 38.1875 20.957031 L 40.207031 19.710938 C 40.292969 19.65625 40.386719 19.636719 40.488281 19.65625 C 40.589844 19.679688 40.664062 19.734375 40.71875 19.824219 C 40.773438 19.910156 40.789062 20.003906 40.761719 20.105469 C 40.738281 20.207031 40.679688 20.28125 40.589844 20.332031 L 38.261719 21.769531 C 38.203125 21.804688 38.136719 21.824219 38.070312 21.824219 Z M 38.070312 21.824219 " fill-opacity="1" fill-rule="nonzero"/></g><path fill="#ffc529" d="M 8.082031 29.464844 C 8.054688 29.464844 8.023438 29.460938 7.996094 29.457031 C 7.898438 29.433594 7.824219 29.378906 7.773438 29.292969 C 7.71875 29.207031 7.703125 29.117188 7.726562 29.019531 L 8.359375 26.355469 C 8.382812 26.257812 8.4375 26.183594 8.523438 26.132812 C 8.605469 26.078125 8.699219 26.0625 8.796875 26.085938 L 11.457031 26.71875 C 11.554688 26.742188 11.632812 26.796875 11.6875 26.882812 C 11.742188 26.96875 11.757812 27.0625 11.734375 27.160156 C 11.710938 27.261719 11.65625 27.335938 11.566406 27.386719 C 11.480469 27.441406 11.386719 27.453125 11.289062 27.425781 L 8.980469 26.878906 L 8.4375 29.1875 C 8.390625 29.371094 8.273438 29.464844 8.082031 29.464844 Z M 8.082031 29.464844 " fill-opacity="1" fill-rule="nonzero"/><path fill="#ffc529" d="M 22.355469 28.46875 C 21.636719 28.46875 20.925781 28.398438 20.222656 28.257812 C 19.519531 28.117188 18.835938 27.910156 18.171875 27.636719 C 17.507812 27.359375 16.878906 27.023438 16.28125 26.625 C 15.683594 26.226562 15.132812 25.773438 14.625 25.265625 C 14.117188 24.757812 13.664062 24.207031 13.265625 23.609375 C 12.867188 23.011719 12.53125 22.382812 12.257812 21.71875 C 11.980469 21.054688 11.773438 20.371094 11.632812 19.667969 C 11.496094 18.960938 11.425781 18.25 11.425781 17.535156 C 11.425781 16.816406 11.496094 16.105469 11.636719 15.402344 C 11.777344 14.695312 11.984375 14.011719 12.257812 13.351562 C 12.53125 12.6875 12.871094 12.058594 13.269531 11.460938 C 13.667969 10.863281 14.121094 10.3125 14.628906 9.804688 C 15.136719 9.296875 15.6875 8.84375 16.285156 8.445312 C 16.882812 8.046875 17.511719 7.710938 18.175781 7.433594 C 18.839844 7.160156 19.523438 6.953125 20.226562 6.8125 C 20.933594 6.671875 21.644531 6.601562 22.359375 6.601562 C 23.078125 6.605469 23.789062 6.671875 24.492188 6.8125 C 25.199219 6.953125 25.882812 7.160156 26.542969 7.4375 C 27.207031 7.710938 27.835938 8.046875 28.433594 8.449219 C 29.03125 8.847656 29.582031 9.300781 30.089844 9.808594 C 30.597656 10.316406 31.050781 10.867188 31.449219 11.464844 C 31.847656 12.0625 32.183594 12.691406 32.460938 13.355469 C 32.734375 14.019531 32.941406 14.703125 33.082031 15.40625 C 33.222656 16.109375 33.292969 16.820312 33.292969 17.539062 C 33.289062 18.257812 33.21875 18.96875 33.078125 19.671875 C 32.9375 20.375 32.730469 21.058594 32.457031 21.722656 C 32.179688 22.382812 31.84375 23.011719 31.445312 23.609375 C 31.046875 24.207031 30.589844 24.757812 30.085938 25.265625 C 29.578125 25.773438 29.023438 26.226562 28.425781 26.625 C 27.832031 27.023438 27.199219 27.359375 26.539062 27.636719 C 25.875 27.910156 25.191406 28.117188 24.488281 28.257812 C 23.785156 28.398438 23.074219 28.46875 22.355469 28.46875 Z M 22.355469 7.332031 C 21.683594 7.332031 21.023438 7.398438 20.363281 7.527344 C 19.707031 7.660156 19.070312 7.851562 18.449219 8.109375 C 17.832031 8.367188 17.242188 8.679688 16.6875 9.050781 C 16.128906 9.425781 15.613281 9.847656 15.140625 10.320312 C 14.667969 10.796875 14.242188 11.3125 13.871094 11.867188 C 13.5 12.425781 13.183594 13.011719 12.929688 13.632812 C 12.671875 14.25 12.480469 14.890625 12.347656 15.546875 C 12.21875 16.203125 12.152344 16.867188 12.152344 17.539062 C 12.152344 18.207031 12.21875 18.871094 12.347656 19.527344 C 12.480469 20.183594 12.671875 20.824219 12.929688 21.441406 C 13.1875 22.0625 13.5 22.648438 13.871094 23.207031 C 14.246094 23.761719 14.667969 24.277344 15.140625 24.753906 C 15.617188 25.226562 16.132812 25.648438 16.6875 26.023438 C 17.246094 26.394531 17.832031 26.707031 18.453125 26.964844 C 19.070312 27.222656 19.710938 27.414062 20.367188 27.546875 C 21.023438 27.675781 21.6875 27.742188 22.355469 27.742188 C 23.027344 27.742188 23.691406 27.675781 24.347656 27.546875 C 25.003906 27.414062 25.644531 27.222656 26.261719 26.964844 C 26.882812 26.710938 27.46875 26.394531 28.027344 26.023438 C 28.582031 25.652344 29.097656 25.226562 29.574219 24.753906 C 30.046875 24.28125 30.46875 23.765625 30.84375 23.207031 C 31.214844 22.652344 31.527344 22.0625 31.785156 21.445312 C 32.042969 20.824219 32.234375 20.1875 32.367188 19.53125 C 32.496094 18.871094 32.5625 18.207031 32.5625 17.539062 C 32.5625 16.867188 32.496094 16.207031 32.367188 15.546875 C 32.234375 14.890625 32.039062 14.253906 31.785156 13.632812 C 31.527344 13.015625 31.210938 12.425781 30.839844 11.871094 C 30.46875 11.3125 30.042969 10.796875 29.570312 10.324219 C 29.097656 9.851562 28.582031 9.425781 28.023438 9.054688 C 27.46875 8.683594 26.878906 8.367188 26.261719 8.109375 C 25.640625 7.855469 25.003906 7.660156 24.347656 7.527344 C 23.6875 7.398438 23.027344 7.332031 22.355469 7.332031 Z M 22.355469 7.332031 " fill-opacity="1" fill-rule="nonzero"/><path fill="#ffc529" d="M 22.355469 25.535156 C 21.832031 25.535156 21.308594 25.484375 20.796875 25.382812 C 20.28125 25.277344 19.78125 25.125 19.292969 24.925781 C 18.808594 24.722656 18.347656 24.476562 17.910156 24.1875 C 17.476562 23.894531 17.070312 23.5625 16.699219 23.191406 C 16.328125 22.820312 15.996094 22.414062 15.707031 21.976562 C 15.414062 21.542969 15.167969 21.082031 14.96875 20.59375 C 14.765625 20.109375 14.613281 19.609375 14.511719 19.09375 C 14.410156 18.578125 14.359375 18.058594 14.359375 17.535156 C 14.359375 17.007812 14.410156 16.488281 14.511719 15.972656 C 14.617188 15.457031 14.769531 14.957031 14.96875 14.472656 C 15.171875 13.988281 15.417969 13.527344 15.707031 13.089844 C 16 12.652344 16.332031 12.25 16.703125 11.878906 C 17.074219 11.507812 17.480469 11.175781 17.914062 10.882812 C 18.351562 10.59375 18.8125 10.347656 19.300781 10.144531 C 19.785156 9.945312 20.285156 9.792969 20.800781 9.691406 C 21.316406 9.589844 21.835938 9.539062 22.359375 9.539062 C 22.886719 9.539062 23.40625 9.589844 23.921875 9.691406 C 24.4375 9.792969 24.9375 9.945312 25.421875 10.148438 C 25.90625 10.347656 26.367188 10.59375 26.804688 10.886719 C 27.242188 11.179688 27.644531 11.511719 28.015625 11.882812 C 28.386719 12.253906 28.71875 12.65625 29.011719 13.09375 C 29.300781 13.53125 29.546875 13.992188 29.75 14.476562 C 29.949219 14.960938 30.101562 15.460938 30.203125 15.976562 C 30.304688 16.492188 30.355469 17.011719 30.355469 17.539062 C 30.355469 18.0625 30.304688 18.582031 30.203125 19.097656 C 30.097656 19.613281 29.949219 20.113281 29.746094 20.597656 C 29.542969 21.082031 29.296875 21.542969 29.007812 21.980469 C 28.714844 22.417969 28.382812 22.820312 28.011719 23.191406 C 27.640625 23.5625 27.234375 23.894531 26.800781 24.1875 C 26.363281 24.480469 25.902344 24.726562 25.417969 24.925781 C 24.929688 25.128906 24.429688 25.277344 23.914062 25.382812 C 23.402344 25.484375 22.878906 25.535156 22.355469 25.535156 Z M 22.355469 10.265625 C 21.878906 10.265625 21.40625 10.3125 20.9375 10.40625 C 20.46875 10.5 20.015625 10.636719 19.574219 10.820312 C 19.132812 11.003906 18.714844 11.226562 18.316406 11.492188 C 17.917969 11.757812 17.550781 12.058594 17.214844 12.394531 C 16.878906 12.734375 16.578125 13.101562 16.3125 13.496094 C 16.046875 13.894531 15.820312 14.3125 15.640625 14.753906 C 15.457031 15.195312 15.320312 15.652344 15.226562 16.117188 C 15.132812 16.585938 15.085938 17.058594 15.085938 17.539062 C 15.085938 18.015625 15.132812 18.488281 15.226562 18.957031 C 15.320312 19.425781 15.457031 19.878906 15.640625 20.320312 C 15.824219 20.761719 16.046875 21.179688 16.3125 21.578125 C 16.578125 21.972656 16.878906 22.339844 17.214844 22.679688 C 17.554688 23.015625 17.921875 23.316406 18.316406 23.582031 C 18.714844 23.847656 19.132812 24.070312 19.574219 24.253906 C 20.015625 24.4375 20.472656 24.574219 20.9375 24.667969 C 21.40625 24.761719 21.878906 24.808594 22.359375 24.808594 C 22.835938 24.808594 23.308594 24.761719 23.777344 24.667969 C 24.242188 24.574219 24.699219 24.4375 25.140625 24.253906 C 25.582031 24.070312 26 23.847656 26.398438 23.582031 C 26.792969 23.316406 27.160156 23.015625 27.5 22.679688 C 27.835938 22.339844 28.136719 21.972656 28.402344 21.578125 C 28.667969 21.179688 28.890625 20.761719 29.074219 20.320312 C 29.257812 19.878906 29.394531 19.425781 29.488281 18.957031 C 29.582031 18.488281 29.628906 18.015625 29.628906 17.539062 C 29.628906 17.0625 29.582031 16.589844 29.488281 16.121094 C 29.394531 15.652344 29.257812 15.195312 29.074219 14.757812 C 28.890625 14.316406 28.667969 13.894531 28.402344 13.5 C 28.136719 13.101562 27.835938 12.734375 27.496094 12.398438 C 27.160156 12.058594 26.792969 11.757812 26.394531 11.492188 C 26 11.226562 25.578125 11.003906 25.136719 10.820312 C 24.695312 10.636719 24.242188 10.5 23.773438 10.40625 C 23.304688 10.3125 22.832031 10.265625 22.355469 10.265625 Z M 22.355469 10.265625 " fill-opacity="1" fill-rule="nonzero"/><path fill="#ffc529" d="M 24.980469 20.46875 C 24.75 20.8125 24.445312 21.070312 24.066406 21.242188 C 23.632812 21.445312 23.175781 21.558594 22.695312 21.578125 L 22.695312 22.375 C 22.699219 22.472656 22.667969 22.550781 22.601562 22.621094 C 22.53125 22.683594 22.449219 22.714844 22.351562 22.714844 C 22.257812 22.714844 22.175781 22.6875 22.105469 22.625 C 22.035156 22.554688 22.003906 22.472656 22.007812 22.375 L 22.007812 21.574219 C 21.21875 21.527344 20.457031 21.351562 19.730469 21.042969 C 19.636719 21.003906 19.558594 20.941406 19.503906 20.859375 C 19.4375 20.765625 19.40625 20.660156 19.414062 20.546875 C 19.421875 20.433594 19.464844 20.332031 19.542969 20.25 C 19.632812 20.152344 19.742188 20.105469 19.875 20.109375 C 19.949219 20.109375 20.023438 20.121094 20.089844 20.152344 C 20.699219 20.425781 21.339844 20.574219 22.007812 20.605469 L 22.007812 18.007812 C 21.566406 17.898438 21.136719 17.75 20.714844 17.570312 C 20.371094 17.417969 20.078125 17.195312 19.84375 16.898438 C 19.59375 16.574219 19.476562 16.207031 19.492188 15.796875 C 19.488281 15.410156 19.585938 15.050781 19.78125 14.714844 C 19.992188 14.363281 20.277344 14.089844 20.636719 13.890625 C 21.066406 13.660156 21.523438 13.527344 22.007812 13.496094 L 22.007812 12.707031 C 22.007812 12.609375 22.039062 12.527344 22.105469 12.457031 C 22.167969 12.386719 22.25 12.355469 22.347656 12.355469 C 22.445312 12.355469 22.527344 12.390625 22.59375 12.457031 C 22.664062 12.527344 22.695312 12.609375 22.695312 12.707031 L 22.695312 13.484375 C 23.371094 13.503906 24.027344 13.625 24.660156 13.859375 C 24.886719 13.921875 24.992188 14.074219 24.976562 14.308594 C 24.976562 14.433594 24.933594 14.542969 24.851562 14.636719 C 24.765625 14.738281 24.65625 14.785156 24.523438 14.78125 C 24.460938 14.777344 24.402344 14.761719 24.34375 14.738281 C 23.8125 14.550781 23.261719 14.449219 22.695312 14.433594 L 22.695312 17.117188 C 23.15625 17.21875 23.605469 17.359375 24.046875 17.535156 C 24.402344 17.683594 24.699219 17.90625 24.941406 18.207031 C 25.203125 18.558594 25.324219 18.949219 25.304688 19.386719 C 25.308594 19.78125 25.199219 20.140625 24.980469 20.46875 Z M 20.898438 16.488281 C 21.242188 16.707031 21.609375 16.863281 22.007812 16.949219 L 22.007812 14.46875 C 21.609375 14.503906 21.246094 14.644531 20.925781 14.878906 C 20.644531 15.089844 20.511719 15.371094 20.519531 15.722656 C 20.503906 16.046875 20.632812 16.300781 20.898438 16.488281 Z M 24.289062 19.320312 C 24.292969 19.011719 24.160156 18.78125 23.886719 18.636719 C 23.511719 18.429688 23.113281 18.277344 22.695312 18.179688 L 22.695312 20.605469 C 23.757812 20.53125 24.289062 20.101562 24.289062 19.320312 Z M 24.289062 19.320312 " fill-opacity="1" fill-rule="nonzero"/></svg>